M48
; DRILL file {KiCad 9.0.4} date 2025-10-01T23:58:46+0900
; FORMAT={-:-/ absolute / metric / decimal}
; #@! TF.CreationDate,2025-10-01T23:58:46+09:00
; #@! TF.GenerationSoftware,Kicad,Pcbnew,9.0.4
; #@! TF.FileFunction,Plated,1,2,PTH
FMAT,2
METRIC
; #@! TA.AperFunction,Plated,PTH,ViaDrill
T1C0.300
; #@! TA.AperFunction,Plated,PTH,ComponentDrill
T2C0.800
; #@! TA.AperFunction,Plated,PTH,ComponentDrill
T3C0.864
; #@! TA.AperFunction,Plated,PTH,ComponentDrill
T4C0.900
; #@! TA.AperFunction,Plated,PTH,ComponentDrill
T5C0.950
; #@! TA.AperFunction,Plated,PTH,ComponentDrill
T6C1.000
; #@! TA.AperFunction,Plated,PTH,ComponentDrill
T7C1.100
; #@! TA.AperFunction,Plated,PTH,ComponentDrill
T8C1.200
; #@! TA.AperFunction,Plated,PTH,ComponentDrill
T9C1.300
; #@! TA.AperFunction,Plated,PTH,ComponentDrill
T10C1.550
; #@! TA.AperFunction,Plated,PTH,ComponentDrill
T11C2.700
%
G90
G05
T1
X100.4Y-59.0
X100.6Y-86.0
X100.7Y-100.2
X100.7Y-127.3
X100.8Y-109.6
X100.8Y-120.4
X100.9Y-70.0
X105.0Y-65.0
X105.0Y-75.0
X105.0Y-95.0
X105.0Y-105.0
X105.0Y-115.0
X105.0Y-125.0
X105.4Y-54.5
X105.8Y-131.5
X108.5Y-89.9
X110.0Y-60.0
X110.0Y-70.0
X110.0Y-130.0
X110.85Y-120.8
X110.9Y-99.5
X111.3Y-81.1
X111.5Y-90.2
X114.8Y-117.9
X115.0Y-55.0
X115.0Y-125.0
X118.5Y-71.0
X118.5Y-72.5
X118.5Y-80.5
X118.5Y-84.0
X119.2Y-91.3
X119.8Y-112.4
X120.0Y-60.0
X120.0Y-130.0
X121.0Y-120.9
X121.5Y-99.0
X122.5Y-76.5
X122.5Y-83.5
X122.5Y-107.3
X123.4Y-117.5
X123.8Y-112.35
X124.0Y-97.0
X124.5Y-94.5
X124.8Y-91.7
X125.0Y-55.0
X125.0Y-65.0
X125.5Y-125.4
X126.1Y-104.2
X127.0Y-99.0
X129.5Y-71.0
X129.5Y-72.5
X129.5Y-80.0
X129.6Y-112.1
X130.0Y-60.0
X130.0Y-130.0
X130.2Y-117.5
X131.15Y-108.0
X131.3Y-104.2
X132.5Y-99.0
X133.5Y-76.5
X133.9Y-110.2
X134.8Y-120.2
X135.0Y-55.0
X135.1Y-114.9
X136.0Y-104.0
X137.5Y-99.0
X139.5Y-71.0
X139.5Y-75.0
X139.5Y-80.5
X140.0Y-130.0
X140.6Y-103.7
X142.45Y-76.4
X143.0Y-99.0
X143.5Y-88.0
X143.5Y-94.0
X144.9Y-115.5
X145.0Y-55.0
X145.0Y-109.7
X146.0Y-74.5
X146.95Y-70.3
X146.999Y-72.799
X147.5Y-90.5
X147.5Y-96.5
X147.75Y-72.45
X147.85Y-105.0
X148.5Y-65.0
X149.4Y-84.5
X150.0Y-60.0
X150.7Y-110.6
X151.15Y-130.15
X152.45Y-76.4
X152.5Y-92.5
X153.05Y-72.5
X153.4Y-105.0
X153.9Y-82.95
X154.65Y-110.25
X155.0Y-55.0
X155.8Y-69.55
X155.85Y-88.7
X157.15Y-118.0
X157.55Y-108.2
X157.75Y-79.45
X158.5Y-72.85
X158.55Y-83.8
X158.6Y-62.65
X159.55Y-84.7
X160.35Y-115.0
X160.6Y-105.5
X161.1Y-62.6
X162.2Y-74.2
X162.2Y-85.1
X162.65Y-130.1
X163.1Y-105.1
X163.3Y-119.85
X164.05Y-78.6
X164.1Y-69.2
X165.0Y-55.0
X165.1Y-131.8
X165.4Y-93.75
X165.4Y-124.25
X165.55Y-114.8
X165.65Y-105.0
X165.85Y-81.85
X166.6Y-74.25
X166.75Y-88.75
X166.85Y-86.05
X169.9Y-80.0
X170.0Y-60.0
X170.0Y-110.0
X170.0Y-120.0
X170.0Y-130.0
X175.0Y-55.0
X175.0Y-65.0
X175.0Y-125.0
X180.0Y-60.0
X180.0Y-70.0
X180.0Y-80.0
X180.0Y-90.0
X180.0Y-100.0
X180.0Y-110.0
X180.0Y-120.0
X180.0Y-130.0
X185.0Y-55.0
X185.0Y-65.0
X185.0Y-75.0
X185.0Y-85.0
X185.0Y-95.0
X185.0Y-105.0
X185.0Y-115.0
X185.0Y-125.0
X190.0Y-60.0
X190.0Y-70.0
X190.0Y-90.0
X190.0Y-110.0
X190.0Y-120.0
X190.0Y-130.0
X190.6Y-98.4
X195.0Y-65.0
X195.0Y-75.0
X195.0Y-85.0
X195.0Y-95.0
X195.0Y-105.0
X195.0Y-115.0
X195.0Y-125.0
X198.3Y-54.1
X198.4Y-131.6
T2
X109.66Y-109.16
X110.0Y-85.0
X110.76Y-104.12
X113.26Y-104.12
X114.66Y-109.16
X115.0Y-85.0
X120.63Y-109.12
X121.5Y-86.92
X121.5Y-97.08
X121.715Y-104.25
X124.215Y-104.25
X125.0Y-79.0
X125.0Y-84.0
X125.63Y-109.12
X129.0Y-74.0
X129.0Y-84.16
X132.5Y-74.0
X132.5Y-84.16
X133.04Y-101.92
X133.04Y-112.08
X136.5Y-78.5
X136.5Y-83.5
X137.4Y-64.25
X137.4Y-69.25
X137.95Y-109.505
X137.95Y-112.005
X140.5Y-73.36
X140.5Y-83.52
X140.67Y-97.872
X141.6Y-66.2
X141.6Y-71.2
X141.955Y-124.25
X142.75Y-114.75
X142.75Y-119.75
X143.07Y-101.82
X143.07Y-111.98
X143.8Y-74.4
X143.8Y-79.4
X144.455Y-124.25
X145.55Y-66.25
X145.55Y-71.25
X150.83Y-97.872
X153.8Y-97.2
X153.8Y-102.2
X153.9Y-69.4
X153.9Y-74.4
X154.15Y-87.25
X154.15Y-92.25
X155.6Y-76.9
X155.6Y-81.9
X157.55Y-97.2
X157.55Y-102.2
X157.8Y-69.45
X157.8Y-74.45
X157.9Y-87.0
X157.9Y-92.0
X160.54Y-94.51
X160.54Y-97.05
X160.54Y-99.59
X160.54Y-102.13
X160.73Y-69.15
X160.73Y-71.69
X160.73Y-74.23
X160.73Y-76.77
X164.2Y-60.6
X164.2Y-65.6
X168.0Y-60.6
X168.0Y-65.6
X168.16Y-94.51
X168.16Y-97.05
X168.16Y-99.59
X168.16Y-102.13
X168.35Y-69.15
X168.35Y-71.69
X168.35Y-74.23
X168.35Y-76.77
X176.75Y-61.5
X176.75Y-66.5
X181.5Y-61.5
X181.5Y-66.5
T3
X161.05Y-83.83
X161.05Y-86.37
X161.05Y-88.91
X161.05Y-91.45
X168.67Y-83.83
X168.67Y-86.37
X168.67Y-88.91
X168.67Y-91.45
T4
X117.58Y-102.23
X117.58Y-109.85
X125.0Y-73.73
X125.0Y-76.27
X129.1Y-102.1
X129.1Y-109.72
X136.5Y-73.47
X136.5Y-76.01
X138.0Y-104.25
X138.0Y-106.79
T5
X146.5Y-61.8
X149.0Y-61.8
X151.5Y-61.8
T6
X110.368Y-94.0
X115.368Y-94.0
X129.5Y-62.868
X129.5Y-67.868
X149.155Y-120.6
X149.155Y-123.14
X149.155Y-125.68
X154.4Y-120.65
X154.4Y-123.19
X154.4Y-125.73
X159.35Y-120.7
X159.35Y-123.24
X159.35Y-125.78
X171.23Y-66.37
X171.23Y-68.91
X171.23Y-71.45
X171.23Y-73.99
X171.23Y-76.53
X171.23Y-79.07
X171.23Y-81.61
X171.23Y-84.15
X171.23Y-86.69
X171.23Y-89.23
X171.23Y-91.77
X171.23Y-94.31
X171.23Y-96.85
X171.23Y-99.39
X171.23Y-101.93
X171.23Y-104.47
X171.23Y-107.01
X171.23Y-109.55
X171.23Y-112.09
X171.23Y-114.63
X173.77Y-66.37
X173.77Y-68.91
X173.77Y-71.45
X173.77Y-73.99
X173.77Y-76.53
X173.77Y-79.07
X173.77Y-81.61
X173.77Y-84.15
X173.77Y-86.69
X173.77Y-89.23
X173.77Y-91.77
X173.77Y-94.31
X173.77Y-96.85
X173.77Y-99.39
X173.77Y-101.93
X173.77Y-104.47
X173.77Y-107.01
X173.77Y-109.55
X173.77Y-112.09
X173.77Y-114.63
T7
X115.01Y-115.7
X117.55Y-115.7
X120.09Y-115.7
T9
X132.505Y-115.09
X135.005Y-125.09
X137.505Y-115.09
X140.5Y-88.245
X140.5Y-93.245
X150.5Y-90.745
T10
X108.5Y-121.3
X126.1Y-121.3
T11
X104.5Y-85.5
X104.5Y-90.5
T8
G00X109.0Y-76.55
M15
G01X109.0Y-79.45
M16
G05
G00X114.5Y-69.45
M15
G01X114.5Y-66.55
M16
G05
G00X114.5Y-76.55
M15
G01X114.5Y-79.45
M16
G05
G00X120.0Y-69.45
M15
G01X120.0Y-66.55
M16
G05
G00X147.75Y-111.9
M15
G01X147.75Y-114.8
M16
G05
G00X153.25Y-111.9
M15
G01X153.25Y-114.8
M16
G05
M30
