%TF.GenerationSoftware,KiCad,Pcbnew,9.0.4*%
%TF.CreationDate,2025-10-01T23:59:14+09:00*%
%TF.ProjectId,Arm_Main,41726d5f-4d61-4696-9e2e-6b696361645f,ver.9*%
%TF.SameCoordinates,Original*%
%TF.FileFunction,Legend,Top*%
%TF.FilePolarity,Positive*%
%FSLAX46Y46*%
G04 Gerber Fmt 4.6, Leading zero omitted, Abs format (unit mm)*
G04 Created by KiCad (PCBNEW 9.0.4) date 2025-10-01 23:59:14*
%MOMM*%
%LPD*%
G01*
G04 APERTURE LIST*
%ADD10C,0.100000*%
%ADD11C,0.200000*%
%ADD12C,0.150000*%
%ADD13C,0.254000*%
%ADD14C,0.120000*%
%ADD15C,0.250000*%
%ADD16C,0.152400*%
G04 APERTURE END LIST*
D10*
X170000000Y-59000000D02*
X198500000Y-59000000D01*
X198500000Y-122000000D01*
X170000000Y-122000000D01*
X170000000Y-59000000D01*
D11*
X177322054Y-130581504D02*
X177798244Y-130581504D01*
X177226816Y-130867219D02*
X177560149Y-129867219D01*
X177560149Y-129867219D02*
X177893482Y-130867219D01*
X178798244Y-130867219D02*
X178464911Y-130391028D01*
X178226816Y-130867219D02*
X178226816Y-129867219D01*
X178226816Y-129867219D02*
X178607768Y-129867219D01*
X178607768Y-129867219D02*
X178703006Y-129914838D01*
X178703006Y-129914838D02*
X178750625Y-129962457D01*
X178750625Y-129962457D02*
X178798244Y-130057695D01*
X178798244Y-130057695D02*
X178798244Y-130200552D01*
X178798244Y-130200552D02*
X178750625Y-130295790D01*
X178750625Y-130295790D02*
X178703006Y-130343409D01*
X178703006Y-130343409D02*
X178607768Y-130391028D01*
X178607768Y-130391028D02*
X178226816Y-130391028D01*
X179226816Y-130867219D02*
X179226816Y-129867219D01*
X179226816Y-129867219D02*
X179560149Y-130581504D01*
X179560149Y-130581504D02*
X179893482Y-129867219D01*
X179893482Y-129867219D02*
X179893482Y-130867219D01*
X180131578Y-130962457D02*
X180893482Y-130962457D01*
X181131578Y-130867219D02*
X181131578Y-129867219D01*
X181131578Y-129867219D02*
X181464911Y-130581504D01*
X181464911Y-130581504D02*
X181798244Y-129867219D01*
X181798244Y-129867219D02*
X181798244Y-130867219D01*
X182703006Y-130867219D02*
X182703006Y-130343409D01*
X182703006Y-130343409D02*
X182655387Y-130248171D01*
X182655387Y-130248171D02*
X182560149Y-130200552D01*
X182560149Y-130200552D02*
X182369673Y-130200552D01*
X182369673Y-130200552D02*
X182274435Y-130248171D01*
X182703006Y-130819600D02*
X182607768Y-130867219D01*
X182607768Y-130867219D02*
X182369673Y-130867219D01*
X182369673Y-130867219D02*
X182274435Y-130819600D01*
X182274435Y-130819600D02*
X182226816Y-130724361D01*
X182226816Y-130724361D02*
X182226816Y-130629123D01*
X182226816Y-130629123D02*
X182274435Y-130533885D01*
X182274435Y-130533885D02*
X182369673Y-130486266D01*
X182369673Y-130486266D02*
X182607768Y-130486266D01*
X182607768Y-130486266D02*
X182703006Y-130438647D01*
X183179197Y-130867219D02*
X183179197Y-130200552D01*
X183179197Y-129867219D02*
X183131578Y-129914838D01*
X183131578Y-129914838D02*
X183179197Y-129962457D01*
X183179197Y-129962457D02*
X183226816Y-129914838D01*
X183226816Y-129914838D02*
X183179197Y-129867219D01*
X183179197Y-129867219D02*
X183179197Y-129962457D01*
X183655387Y-130200552D02*
X183655387Y-130867219D01*
X183655387Y-130295790D02*
X183703006Y-130248171D01*
X183703006Y-130248171D02*
X183798244Y-130200552D01*
X183798244Y-130200552D02*
X183941101Y-130200552D01*
X183941101Y-130200552D02*
X184036339Y-130248171D01*
X184036339Y-130248171D02*
X184083958Y-130343409D01*
X184083958Y-130343409D02*
X184083958Y-130867219D01*
X184322054Y-130962457D02*
X185083958Y-130962457D01*
X185179197Y-129867219D02*
X185512530Y-130867219D01*
X185512530Y-130867219D02*
X185845863Y-129867219D01*
X186560149Y-130819600D02*
X186464911Y-130867219D01*
X186464911Y-130867219D02*
X186274435Y-130867219D01*
X186274435Y-130867219D02*
X186179197Y-130819600D01*
X186179197Y-130819600D02*
X186131578Y-130724361D01*
X186131578Y-130724361D02*
X186131578Y-130343409D01*
X186131578Y-130343409D02*
X186179197Y-130248171D01*
X186179197Y-130248171D02*
X186274435Y-130200552D01*
X186274435Y-130200552D02*
X186464911Y-130200552D01*
X186464911Y-130200552D02*
X186560149Y-130248171D01*
X186560149Y-130248171D02*
X186607768Y-130343409D01*
X186607768Y-130343409D02*
X186607768Y-130438647D01*
X186607768Y-130438647D02*
X186131578Y-130533885D01*
X187036340Y-130867219D02*
X187036340Y-130200552D01*
X187036340Y-130391028D02*
X187083959Y-130295790D01*
X187083959Y-130295790D02*
X187131578Y-130248171D01*
X187131578Y-130248171D02*
X187226816Y-130200552D01*
X187226816Y-130200552D02*
X187322054Y-130200552D01*
X188179197Y-130867219D02*
X187607769Y-130867219D01*
X187893483Y-130867219D02*
X187893483Y-129867219D01*
X187893483Y-129867219D02*
X187798245Y-130010076D01*
X187798245Y-130010076D02*
X187703007Y-130105314D01*
X187703007Y-130105314D02*
X187607769Y-130152933D01*
X188798245Y-129867219D02*
X188893483Y-129867219D01*
X188893483Y-129867219D02*
X188988721Y-129914838D01*
X188988721Y-129914838D02*
X189036340Y-129962457D01*
X189036340Y-129962457D02*
X189083959Y-130057695D01*
X189083959Y-130057695D02*
X189131578Y-130248171D01*
X189131578Y-130248171D02*
X189131578Y-130486266D01*
X189131578Y-130486266D02*
X189083959Y-130676742D01*
X189083959Y-130676742D02*
X189036340Y-130771980D01*
X189036340Y-130771980D02*
X188988721Y-130819600D01*
X188988721Y-130819600D02*
X188893483Y-130867219D01*
X188893483Y-130867219D02*
X188798245Y-130867219D01*
X188798245Y-130867219D02*
X188703007Y-130819600D01*
X188703007Y-130819600D02*
X188655388Y-130771980D01*
X188655388Y-130771980D02*
X188607769Y-130676742D01*
X188607769Y-130676742D02*
X188560150Y-130486266D01*
X188560150Y-130486266D02*
X188560150Y-130248171D01*
X188560150Y-130248171D02*
X188607769Y-130057695D01*
X188607769Y-130057695D02*
X188655388Y-129962457D01*
X188655388Y-129962457D02*
X188703007Y-129914838D01*
X188703007Y-129914838D02*
X188798245Y-129867219D01*
D12*
X143109580Y-117892857D02*
X143157200Y-117940476D01*
X143157200Y-117940476D02*
X143204819Y-118083333D01*
X143204819Y-118083333D02*
X143204819Y-118178571D01*
X143204819Y-118178571D02*
X143157200Y-118321428D01*
X143157200Y-118321428D02*
X143061961Y-118416666D01*
X143061961Y-118416666D02*
X142966723Y-118464285D01*
X142966723Y-118464285D02*
X142776247Y-118511904D01*
X142776247Y-118511904D02*
X142633390Y-118511904D01*
X142633390Y-118511904D02*
X142442914Y-118464285D01*
X142442914Y-118464285D02*
X142347676Y-118416666D01*
X142347676Y-118416666D02*
X142252438Y-118321428D01*
X142252438Y-118321428D02*
X142204819Y-118178571D01*
X142204819Y-118178571D02*
X142204819Y-118083333D01*
X142204819Y-118083333D02*
X142252438Y-117940476D01*
X142252438Y-117940476D02*
X142300057Y-117892857D01*
X143204819Y-116940476D02*
X143204819Y-117511904D01*
X143204819Y-117226190D02*
X142204819Y-117226190D01*
X142204819Y-117226190D02*
X142347676Y-117321428D01*
X142347676Y-117321428D02*
X142442914Y-117416666D01*
X142442914Y-117416666D02*
X142490533Y-117511904D01*
X142204819Y-116607142D02*
X142204819Y-115988095D01*
X142204819Y-115988095D02*
X142585771Y-116321428D01*
X142585771Y-116321428D02*
X142585771Y-116178571D01*
X142585771Y-116178571D02*
X142633390Y-116083333D01*
X142633390Y-116083333D02*
X142681009Y-116035714D01*
X142681009Y-116035714D02*
X142776247Y-115988095D01*
X142776247Y-115988095D02*
X143014342Y-115988095D01*
X143014342Y-115988095D02*
X143109580Y-116035714D01*
X143109580Y-116035714D02*
X143157200Y-116083333D01*
X143157200Y-116083333D02*
X143204819Y-116178571D01*
X143204819Y-116178571D02*
X143204819Y-116464285D01*
X143204819Y-116464285D02*
X143157200Y-116559523D01*
X143157200Y-116559523D02*
X143109580Y-116607142D01*
X177109580Y-64642857D02*
X177157200Y-64690476D01*
X177157200Y-64690476D02*
X177204819Y-64833333D01*
X177204819Y-64833333D02*
X177204819Y-64928571D01*
X177204819Y-64928571D02*
X177157200Y-65071428D01*
X177157200Y-65071428D02*
X177061961Y-65166666D01*
X177061961Y-65166666D02*
X176966723Y-65214285D01*
X176966723Y-65214285D02*
X176776247Y-65261904D01*
X176776247Y-65261904D02*
X176633390Y-65261904D01*
X176633390Y-65261904D02*
X176442914Y-65214285D01*
X176442914Y-65214285D02*
X176347676Y-65166666D01*
X176347676Y-65166666D02*
X176252438Y-65071428D01*
X176252438Y-65071428D02*
X176204819Y-64928571D01*
X176204819Y-64928571D02*
X176204819Y-64833333D01*
X176204819Y-64833333D02*
X176252438Y-64690476D01*
X176252438Y-64690476D02*
X176300057Y-64642857D01*
X176300057Y-64261904D02*
X176252438Y-64214285D01*
X176252438Y-64214285D02*
X176204819Y-64119047D01*
X176204819Y-64119047D02*
X176204819Y-63880952D01*
X176204819Y-63880952D02*
X176252438Y-63785714D01*
X176252438Y-63785714D02*
X176300057Y-63738095D01*
X176300057Y-63738095D02*
X176395295Y-63690476D01*
X176395295Y-63690476D02*
X176490533Y-63690476D01*
X176490533Y-63690476D02*
X176633390Y-63738095D01*
X176633390Y-63738095D02*
X177204819Y-64309523D01*
X177204819Y-64309523D02*
X177204819Y-63690476D01*
X176204819Y-62833333D02*
X176204819Y-63023809D01*
X176204819Y-63023809D02*
X176252438Y-63119047D01*
X176252438Y-63119047D02*
X176300057Y-63166666D01*
X176300057Y-63166666D02*
X176442914Y-63261904D01*
X176442914Y-63261904D02*
X176633390Y-63309523D01*
X176633390Y-63309523D02*
X177014342Y-63309523D01*
X177014342Y-63309523D02*
X177109580Y-63261904D01*
X177109580Y-63261904D02*
X177157200Y-63214285D01*
X177157200Y-63214285D02*
X177204819Y-63119047D01*
X177204819Y-63119047D02*
X177204819Y-62928571D01*
X177204819Y-62928571D02*
X177157200Y-62833333D01*
X177157200Y-62833333D02*
X177109580Y-62785714D01*
X177109580Y-62785714D02*
X177014342Y-62738095D01*
X177014342Y-62738095D02*
X176776247Y-62738095D01*
X176776247Y-62738095D02*
X176681009Y-62785714D01*
X176681009Y-62785714D02*
X176633390Y-62833333D01*
X176633390Y-62833333D02*
X176585771Y-62928571D01*
X176585771Y-62928571D02*
X176585771Y-63119047D01*
X176585771Y-63119047D02*
X176633390Y-63214285D01*
X176633390Y-63214285D02*
X176681009Y-63261904D01*
X176681009Y-63261904D02*
X176776247Y-63309523D01*
X142812255Y-128404467D02*
X142764636Y-128452087D01*
X142764636Y-128452087D02*
X142621779Y-128499706D01*
X142621779Y-128499706D02*
X142526541Y-128499706D01*
X142526541Y-128499706D02*
X142383684Y-128452087D01*
X142383684Y-128452087D02*
X142288446Y-128356848D01*
X142288446Y-128356848D02*
X142240827Y-128261610D01*
X142240827Y-128261610D02*
X142193208Y-128071134D01*
X142193208Y-128071134D02*
X142193208Y-127928277D01*
X142193208Y-127928277D02*
X142240827Y-127737801D01*
X142240827Y-127737801D02*
X142288446Y-127642563D01*
X142288446Y-127642563D02*
X142383684Y-127547325D01*
X142383684Y-127547325D02*
X142526541Y-127499706D01*
X142526541Y-127499706D02*
X142621779Y-127499706D01*
X142621779Y-127499706D02*
X142764636Y-127547325D01*
X142764636Y-127547325D02*
X142812255Y-127594944D01*
X143764636Y-128499706D02*
X143193208Y-128499706D01*
X143478922Y-128499706D02*
X143478922Y-127499706D01*
X143478922Y-127499706D02*
X143383684Y-127642563D01*
X143383684Y-127642563D02*
X143288446Y-127737801D01*
X143288446Y-127737801D02*
X143193208Y-127785420D01*
X144669398Y-127499706D02*
X144193208Y-127499706D01*
X144193208Y-127499706D02*
X144145589Y-127975896D01*
X144145589Y-127975896D02*
X144193208Y-127928277D01*
X144193208Y-127928277D02*
X144288446Y-127880658D01*
X144288446Y-127880658D02*
X144526541Y-127880658D01*
X144526541Y-127880658D02*
X144621779Y-127928277D01*
X144621779Y-127928277D02*
X144669398Y-127975896D01*
X144669398Y-127975896D02*
X144717017Y-128071134D01*
X144717017Y-128071134D02*
X144717017Y-128309229D01*
X144717017Y-128309229D02*
X144669398Y-128404467D01*
X144669398Y-128404467D02*
X144621779Y-128452087D01*
X144621779Y-128452087D02*
X144526541Y-128499706D01*
X144526541Y-128499706D02*
X144288446Y-128499706D01*
X144288446Y-128499706D02*
X144193208Y-128452087D01*
X144193208Y-128452087D02*
X144145589Y-128404467D01*
X102304819Y-94933333D02*
X103019104Y-94933333D01*
X103019104Y-94933333D02*
X103161961Y-94980952D01*
X103161961Y-94980952D02*
X103257200Y-95076190D01*
X103257200Y-95076190D02*
X103304819Y-95219047D01*
X103304819Y-95219047D02*
X103304819Y-95314285D01*
X103304819Y-93933333D02*
X103304819Y-94504761D01*
X103304819Y-94219047D02*
X102304819Y-94219047D01*
X102304819Y-94219047D02*
X102447676Y-94314285D01*
X102447676Y-94314285D02*
X102542914Y-94409523D01*
X102542914Y-94409523D02*
X102590533Y-94504761D01*
X104614700Y-82071428D02*
X104614700Y-80928571D01*
X105186128Y-81499999D02*
X104043271Y-81499999D01*
X104614700Y-95071428D02*
X104614700Y-93928571D01*
X143524819Y-107066666D02*
X143048628Y-107399999D01*
X143524819Y-107638094D02*
X142524819Y-107638094D01*
X142524819Y-107638094D02*
X142524819Y-107257142D01*
X142524819Y-107257142D02*
X142572438Y-107161904D01*
X142572438Y-107161904D02*
X142620057Y-107114285D01*
X142620057Y-107114285D02*
X142715295Y-107066666D01*
X142715295Y-107066666D02*
X142858152Y-107066666D01*
X142858152Y-107066666D02*
X142953390Y-107114285D01*
X142953390Y-107114285D02*
X143001009Y-107161904D01*
X143001009Y-107161904D02*
X143048628Y-107257142D01*
X143048628Y-107257142D02*
X143048628Y-107638094D01*
X142524819Y-106209523D02*
X142524819Y-106399999D01*
X142524819Y-106399999D02*
X142572438Y-106495237D01*
X142572438Y-106495237D02*
X142620057Y-106542856D01*
X142620057Y-106542856D02*
X142762914Y-106638094D01*
X142762914Y-106638094D02*
X142953390Y-106685713D01*
X142953390Y-106685713D02*
X143334342Y-106685713D01*
X143334342Y-106685713D02*
X143429580Y-106638094D01*
X143429580Y-106638094D02*
X143477200Y-106590475D01*
X143477200Y-106590475D02*
X143524819Y-106495237D01*
X143524819Y-106495237D02*
X143524819Y-106304761D01*
X143524819Y-106304761D02*
X143477200Y-106209523D01*
X143477200Y-106209523D02*
X143429580Y-106161904D01*
X143429580Y-106161904D02*
X143334342Y-106114285D01*
X143334342Y-106114285D02*
X143096247Y-106114285D01*
X143096247Y-106114285D02*
X143001009Y-106161904D01*
X143001009Y-106161904D02*
X142953390Y-106209523D01*
X142953390Y-106209523D02*
X142905771Y-106304761D01*
X142905771Y-106304761D02*
X142905771Y-106495237D01*
X142905771Y-106495237D02*
X142953390Y-106590475D01*
X142953390Y-106590475D02*
X143001009Y-106638094D01*
X143001009Y-106638094D02*
X143096247Y-106685713D01*
X136859580Y-81166666D02*
X136907200Y-81214285D01*
X136907200Y-81214285D02*
X136954819Y-81357142D01*
X136954819Y-81357142D02*
X136954819Y-81452380D01*
X136954819Y-81452380D02*
X136907200Y-81595237D01*
X136907200Y-81595237D02*
X136811961Y-81690475D01*
X136811961Y-81690475D02*
X136716723Y-81738094D01*
X136716723Y-81738094D02*
X136526247Y-81785713D01*
X136526247Y-81785713D02*
X136383390Y-81785713D01*
X136383390Y-81785713D02*
X136192914Y-81738094D01*
X136192914Y-81738094D02*
X136097676Y-81690475D01*
X136097676Y-81690475D02*
X136002438Y-81595237D01*
X136002438Y-81595237D02*
X135954819Y-81452380D01*
X135954819Y-81452380D02*
X135954819Y-81357142D01*
X135954819Y-81357142D02*
X136002438Y-81214285D01*
X136002438Y-81214285D02*
X136050057Y-81166666D01*
X136954819Y-80690475D02*
X136954819Y-80499999D01*
X136954819Y-80499999D02*
X136907200Y-80404761D01*
X136907200Y-80404761D02*
X136859580Y-80357142D01*
X136859580Y-80357142D02*
X136716723Y-80261904D01*
X136716723Y-80261904D02*
X136526247Y-80214285D01*
X136526247Y-80214285D02*
X136145295Y-80214285D01*
X136145295Y-80214285D02*
X136050057Y-80261904D01*
X136050057Y-80261904D02*
X136002438Y-80309523D01*
X136002438Y-80309523D02*
X135954819Y-80404761D01*
X135954819Y-80404761D02*
X135954819Y-80595237D01*
X135954819Y-80595237D02*
X136002438Y-80690475D01*
X136002438Y-80690475D02*
X136050057Y-80738094D01*
X136050057Y-80738094D02*
X136145295Y-80785713D01*
X136145295Y-80785713D02*
X136383390Y-80785713D01*
X136383390Y-80785713D02*
X136478628Y-80738094D01*
X136478628Y-80738094D02*
X136526247Y-80690475D01*
X136526247Y-80690475D02*
X136573866Y-80595237D01*
X136573866Y-80595237D02*
X136573866Y-80404761D01*
X136573866Y-80404761D02*
X136526247Y-80309523D01*
X136526247Y-80309523D02*
X136478628Y-80261904D01*
X136478628Y-80261904D02*
X136383390Y-80214285D01*
X168359580Y-63742857D02*
X168407200Y-63790476D01*
X168407200Y-63790476D02*
X168454819Y-63933333D01*
X168454819Y-63933333D02*
X168454819Y-64028571D01*
X168454819Y-64028571D02*
X168407200Y-64171428D01*
X168407200Y-64171428D02*
X168311961Y-64266666D01*
X168311961Y-64266666D02*
X168216723Y-64314285D01*
X168216723Y-64314285D02*
X168026247Y-64361904D01*
X168026247Y-64361904D02*
X167883390Y-64361904D01*
X167883390Y-64361904D02*
X167692914Y-64314285D01*
X167692914Y-64314285D02*
X167597676Y-64266666D01*
X167597676Y-64266666D02*
X167502438Y-64171428D01*
X167502438Y-64171428D02*
X167454819Y-64028571D01*
X167454819Y-64028571D02*
X167454819Y-63933333D01*
X167454819Y-63933333D02*
X167502438Y-63790476D01*
X167502438Y-63790476D02*
X167550057Y-63742857D01*
X167550057Y-63361904D02*
X167502438Y-63314285D01*
X167502438Y-63314285D02*
X167454819Y-63219047D01*
X167454819Y-63219047D02*
X167454819Y-62980952D01*
X167454819Y-62980952D02*
X167502438Y-62885714D01*
X167502438Y-62885714D02*
X167550057Y-62838095D01*
X167550057Y-62838095D02*
X167645295Y-62790476D01*
X167645295Y-62790476D02*
X167740533Y-62790476D01*
X167740533Y-62790476D02*
X167883390Y-62838095D01*
X167883390Y-62838095D02*
X168454819Y-63409523D01*
X168454819Y-63409523D02*
X168454819Y-62790476D01*
X167454819Y-61885714D02*
X167454819Y-62361904D01*
X167454819Y-62361904D02*
X167931009Y-62409523D01*
X167931009Y-62409523D02*
X167883390Y-62361904D01*
X167883390Y-62361904D02*
X167835771Y-62266666D01*
X167835771Y-62266666D02*
X167835771Y-62028571D01*
X167835771Y-62028571D02*
X167883390Y-61933333D01*
X167883390Y-61933333D02*
X167931009Y-61885714D01*
X167931009Y-61885714D02*
X168026247Y-61838095D01*
X168026247Y-61838095D02*
X168264342Y-61838095D01*
X168264342Y-61838095D02*
X168359580Y-61885714D01*
X168359580Y-61885714D02*
X168407200Y-61933333D01*
X168407200Y-61933333D02*
X168454819Y-62028571D01*
X168454819Y-62028571D02*
X168454819Y-62266666D01*
X168454819Y-62266666D02*
X168407200Y-62361904D01*
X168407200Y-62361904D02*
X168359580Y-62409523D01*
D13*
X163300237Y-73534318D02*
X163300237Y-72264318D01*
X164630714Y-73413365D02*
X164570238Y-73473842D01*
X164570238Y-73473842D02*
X164388809Y-73534318D01*
X164388809Y-73534318D02*
X164267857Y-73534318D01*
X164267857Y-73534318D02*
X164086428Y-73473842D01*
X164086428Y-73473842D02*
X163965476Y-73352889D01*
X163965476Y-73352889D02*
X163904999Y-73231937D01*
X163904999Y-73231937D02*
X163844523Y-72990032D01*
X163844523Y-72990032D02*
X163844523Y-72808603D01*
X163844523Y-72808603D02*
X163904999Y-72566699D01*
X163904999Y-72566699D02*
X163965476Y-72445746D01*
X163965476Y-72445746D02*
X164086428Y-72324794D01*
X164086428Y-72324794D02*
X164267857Y-72264318D01*
X164267857Y-72264318D02*
X164388809Y-72264318D01*
X164388809Y-72264318D02*
X164570238Y-72324794D01*
X164570238Y-72324794D02*
X164630714Y-72385270D01*
X165114523Y-72385270D02*
X165174999Y-72324794D01*
X165174999Y-72324794D02*
X165295952Y-72264318D01*
X165295952Y-72264318D02*
X165598333Y-72264318D01*
X165598333Y-72264318D02*
X165719285Y-72324794D01*
X165719285Y-72324794D02*
X165779761Y-72385270D01*
X165779761Y-72385270D02*
X165840238Y-72506222D01*
X165840238Y-72506222D02*
X165840238Y-72627175D01*
X165840238Y-72627175D02*
X165779761Y-72808603D01*
X165779761Y-72808603D02*
X165054047Y-73534318D01*
X165054047Y-73534318D02*
X165840238Y-73534318D01*
D10*
G36*
X121434444Y-78558530D02*
G01*
X118445556Y-78558530D01*
X118445556Y-77587895D01*
X118556667Y-77587895D01*
X118556667Y-77683133D01*
X118557155Y-77685589D01*
X118556793Y-77686678D01*
X118558909Y-77694405D01*
X118560473Y-77702267D01*
X118561284Y-77703078D01*
X118561946Y-77705494D01*
X118609564Y-77800731D01*
X118614479Y-77807064D01*
X118618931Y-77813726D01*
X118666549Y-77861345D01*
X118673215Y-77865799D01*
X118679544Y-77870711D01*
X118774782Y-77918330D01*
X118780063Y-77919776D01*
X118785016Y-77922116D01*
X118970168Y-77968404D01*
X119053239Y-78009939D01*
X119089383Y-78046084D01*
X119128095Y-78123507D01*
X119128095Y-78195138D01*
X119089383Y-78272561D01*
X119053237Y-78308708D01*
X118975816Y-78347419D01*
X118757637Y-78347419D01*
X118622478Y-78302366D01*
X118603123Y-78299926D01*
X118568894Y-78317040D01*
X118556793Y-78353344D01*
X118573907Y-78387573D01*
X118590856Y-78397234D01*
X118733712Y-78444853D01*
X118741662Y-78445855D01*
X118749524Y-78447419D01*
X118987619Y-78447419D01*
X118990075Y-78446930D01*
X118991164Y-78447293D01*
X118998891Y-78445176D01*
X119006753Y-78443613D01*
X119007564Y-78442801D01*
X119009980Y-78442140D01*
X119105217Y-78394522D01*
X119111544Y-78389611D01*
X119118213Y-78385155D01*
X119165832Y-78337535D01*
X119170285Y-78330869D01*
X119175197Y-78324541D01*
X119222816Y-78229303D01*
X119223477Y-78226887D01*
X119224289Y-78226076D01*
X119225852Y-78218214D01*
X119227969Y-78210487D01*
X119227606Y-78209398D01*
X119228095Y-78206942D01*
X119228095Y-78111704D01*
X119227606Y-78109247D01*
X119227969Y-78108159D01*
X119225852Y-78100431D01*
X119224289Y-78092570D01*
X119223477Y-78091758D01*
X119222816Y-78089343D01*
X119175197Y-77994105D01*
X119170285Y-77987776D01*
X119165831Y-77981110D01*
X119118212Y-77933492D01*
X119111550Y-77929040D01*
X119105217Y-77924125D01*
X119009980Y-77876507D01*
X119004698Y-77875060D01*
X118999746Y-77872721D01*
X118814595Y-77826433D01*
X118731523Y-77784897D01*
X118695378Y-77748753D01*
X118656667Y-77671330D01*
X118656667Y-77599698D01*
X118695378Y-77522274D01*
X118731523Y-77486130D01*
X118808947Y-77447419D01*
X119027125Y-77447419D01*
X119162283Y-77492472D01*
X119181639Y-77494912D01*
X119215867Y-77477798D01*
X119227969Y-77441494D01*
X119210854Y-77407265D01*
X119193906Y-77397604D01*
X119169609Y-77389505D01*
X119462059Y-77389505D01*
X119462789Y-77409000D01*
X119700884Y-78409000D01*
X119709018Y-78426732D01*
X119715387Y-78430651D01*
X119719134Y-78437123D01*
X119731079Y-78440308D01*
X119741610Y-78446789D01*
X119748885Y-78445056D01*
X119756109Y-78446983D01*
X119766807Y-78440789D01*
X119778837Y-78437925D01*
X119782756Y-78431555D01*
X119789228Y-78427809D01*
X119797836Y-78410302D01*
X119940000Y-77877186D01*
X120082164Y-78410302D01*
X120090772Y-78427810D01*
X120097244Y-78431557D01*
X120101163Y-78437925D01*
X120113189Y-78440788D01*
X120123891Y-78446984D01*
X120131116Y-78445057D01*
X120138390Y-78446789D01*
X120148919Y-78440308D01*
X120160866Y-78437123D01*
X120164612Y-78430651D01*
X120170982Y-78426732D01*
X120179116Y-78409000D01*
X120186429Y-78378285D01*
X120608092Y-78378285D01*
X120608092Y-78416553D01*
X120635152Y-78443613D01*
X120654286Y-78447419D01*
X121273333Y-78447419D01*
X121292467Y-78443613D01*
X121319527Y-78416553D01*
X121319527Y-78378285D01*
X121292467Y-78351225D01*
X121273333Y-78347419D01*
X120774996Y-78347419D01*
X121261069Y-77861345D01*
X121262459Y-77859263D01*
X121263487Y-77858750D01*
X121267457Y-77851784D01*
X121271908Y-77845124D01*
X121271908Y-77843976D01*
X121273148Y-77841801D01*
X121320767Y-77698945D01*
X121321769Y-77690994D01*
X121323333Y-77683133D01*
X121323333Y-77587895D01*
X121322844Y-77585438D01*
X121323207Y-77584350D01*
X121321090Y-77576622D01*
X121319527Y-77568761D01*
X121318715Y-77567949D01*
X121318054Y-77565534D01*
X121270435Y-77470296D01*
X121265523Y-77463967D01*
X121261069Y-77457301D01*
X121213450Y-77409683D01*
X121206788Y-77405231D01*
X121200455Y-77400316D01*
X121105218Y-77352698D01*
X121102802Y-77352036D01*
X121101991Y-77351225D01*
X121094129Y-77349661D01*
X121086402Y-77347545D01*
X121085313Y-77347907D01*
X121082857Y-77347419D01*
X120844762Y-77347419D01*
X120842305Y-77347907D01*
X120841217Y-77347545D01*
X120833489Y-77349661D01*
X120825628Y-77351225D01*
X120824816Y-77352036D01*
X120822401Y-77352698D01*
X120727163Y-77400317D01*
X120720834Y-77405228D01*
X120714168Y-77409683D01*
X120666550Y-77457302D01*
X120655711Y-77473523D01*
X120655711Y-77511791D01*
X120682771Y-77538851D01*
X120721039Y-77538851D01*
X120737260Y-77528012D01*
X120779142Y-77486130D01*
X120856566Y-77447419D01*
X121071054Y-77447419D01*
X121148477Y-77486130D01*
X121184621Y-77522275D01*
X121223333Y-77599698D01*
X121223333Y-77675020D01*
X121182012Y-77798981D01*
X120618931Y-78362064D01*
X120608092Y-78378285D01*
X120186429Y-78378285D01*
X120417212Y-77409000D01*
X120417942Y-77389505D01*
X120397885Y-77356913D01*
X120360658Y-77348049D01*
X120328066Y-77368106D01*
X120319932Y-77385838D01*
X120127731Y-78193075D01*
X119988312Y-77670250D01*
X119979704Y-77652743D01*
X119973805Y-77649327D01*
X119970390Y-77643429D01*
X119957830Y-77640079D01*
X119946585Y-77633569D01*
X119940001Y-77635324D01*
X119933415Y-77633568D01*
X119922165Y-77640080D01*
X119909610Y-77643429D01*
X119906195Y-77649326D01*
X119900296Y-77652742D01*
X119891688Y-77670250D01*
X119752268Y-78193075D01*
X119560069Y-77385838D01*
X119551935Y-77368106D01*
X119519343Y-77348049D01*
X119482116Y-77356913D01*
X119462059Y-77389505D01*
X119169609Y-77389505D01*
X119051049Y-77349985D01*
X119043100Y-77348982D01*
X119035238Y-77347419D01*
X118797143Y-77347419D01*
X118794686Y-77347907D01*
X118793598Y-77347545D01*
X118785870Y-77349661D01*
X118778009Y-77351225D01*
X118777197Y-77352036D01*
X118774782Y-77352698D01*
X118679544Y-77400317D01*
X118673215Y-77405228D01*
X118666549Y-77409683D01*
X118618931Y-77457302D01*
X118614479Y-77463963D01*
X118609564Y-77470297D01*
X118561946Y-77565534D01*
X118561284Y-77567949D01*
X118560473Y-77568761D01*
X118558909Y-77576622D01*
X118556793Y-77584350D01*
X118557155Y-77585438D01*
X118556667Y-77587895D01*
X118445556Y-77587895D01*
X118445556Y-77236308D01*
X121434444Y-77236308D01*
X121434444Y-78558530D01*
G37*
D12*
X118034819Y-106778094D02*
X117034819Y-106778094D01*
X117034819Y-106778094D02*
X117034819Y-106539999D01*
X117034819Y-106539999D02*
X117082438Y-106397142D01*
X117082438Y-106397142D02*
X117177676Y-106301904D01*
X117177676Y-106301904D02*
X117272914Y-106254285D01*
X117272914Y-106254285D02*
X117463390Y-106206666D01*
X117463390Y-106206666D02*
X117606247Y-106206666D01*
X117606247Y-106206666D02*
X117796723Y-106254285D01*
X117796723Y-106254285D02*
X117891961Y-106301904D01*
X117891961Y-106301904D02*
X117987200Y-106397142D01*
X117987200Y-106397142D02*
X118034819Y-106539999D01*
X118034819Y-106539999D02*
X118034819Y-106778094D01*
X118034819Y-105254285D02*
X118034819Y-105825713D01*
X118034819Y-105539999D02*
X117034819Y-105539999D01*
X117034819Y-105539999D02*
X117177676Y-105635237D01*
X117177676Y-105635237D02*
X117272914Y-105730475D01*
X117272914Y-105730475D02*
X117320533Y-105825713D01*
X119934819Y-102491904D02*
X118934819Y-102491904D01*
X119934819Y-101920476D02*
X119363390Y-102349047D01*
X118934819Y-101920476D02*
X119506247Y-102491904D01*
X123074819Y-117411904D02*
X123884342Y-117411904D01*
X123884342Y-117411904D02*
X123979580Y-117364285D01*
X123979580Y-117364285D02*
X124027200Y-117316666D01*
X124027200Y-117316666D02*
X124074819Y-117221428D01*
X124074819Y-117221428D02*
X124074819Y-117030952D01*
X124074819Y-117030952D02*
X124027200Y-116935714D01*
X124027200Y-116935714D02*
X123979580Y-116888095D01*
X123979580Y-116888095D02*
X123884342Y-116840476D01*
X123884342Y-116840476D02*
X123074819Y-116840476D01*
X123408152Y-115935714D02*
X124074819Y-115935714D01*
X123027200Y-116173809D02*
X123741485Y-116411904D01*
X123741485Y-116411904D02*
X123741485Y-115792857D01*
X155959580Y-80042857D02*
X156007200Y-80090476D01*
X156007200Y-80090476D02*
X156054819Y-80233333D01*
X156054819Y-80233333D02*
X156054819Y-80328571D01*
X156054819Y-80328571D02*
X156007200Y-80471428D01*
X156007200Y-80471428D02*
X155911961Y-80566666D01*
X155911961Y-80566666D02*
X155816723Y-80614285D01*
X155816723Y-80614285D02*
X155626247Y-80661904D01*
X155626247Y-80661904D02*
X155483390Y-80661904D01*
X155483390Y-80661904D02*
X155292914Y-80614285D01*
X155292914Y-80614285D02*
X155197676Y-80566666D01*
X155197676Y-80566666D02*
X155102438Y-80471428D01*
X155102438Y-80471428D02*
X155054819Y-80328571D01*
X155054819Y-80328571D02*
X155054819Y-80233333D01*
X155054819Y-80233333D02*
X155102438Y-80090476D01*
X155102438Y-80090476D02*
X155150057Y-80042857D01*
X155150057Y-79661904D02*
X155102438Y-79614285D01*
X155102438Y-79614285D02*
X155054819Y-79519047D01*
X155054819Y-79519047D02*
X155054819Y-79280952D01*
X155054819Y-79280952D02*
X155102438Y-79185714D01*
X155102438Y-79185714D02*
X155150057Y-79138095D01*
X155150057Y-79138095D02*
X155245295Y-79090476D01*
X155245295Y-79090476D02*
X155340533Y-79090476D01*
X155340533Y-79090476D02*
X155483390Y-79138095D01*
X155483390Y-79138095D02*
X156054819Y-79709523D01*
X156054819Y-79709523D02*
X156054819Y-79090476D01*
X155054819Y-78471428D02*
X155054819Y-78376190D01*
X155054819Y-78376190D02*
X155102438Y-78280952D01*
X155102438Y-78280952D02*
X155150057Y-78233333D01*
X155150057Y-78233333D02*
X155245295Y-78185714D01*
X155245295Y-78185714D02*
X155435771Y-78138095D01*
X155435771Y-78138095D02*
X155673866Y-78138095D01*
X155673866Y-78138095D02*
X155864342Y-78185714D01*
X155864342Y-78185714D02*
X155959580Y-78233333D01*
X155959580Y-78233333D02*
X156007200Y-78280952D01*
X156007200Y-78280952D02*
X156054819Y-78376190D01*
X156054819Y-78376190D02*
X156054819Y-78471428D01*
X156054819Y-78471428D02*
X156007200Y-78566666D01*
X156007200Y-78566666D02*
X155959580Y-78614285D01*
X155959580Y-78614285D02*
X155864342Y-78661904D01*
X155864342Y-78661904D02*
X155673866Y-78709523D01*
X155673866Y-78709523D02*
X155435771Y-78709523D01*
X155435771Y-78709523D02*
X155245295Y-78661904D01*
X155245295Y-78661904D02*
X155150057Y-78614285D01*
X155150057Y-78614285D02*
X155102438Y-78566666D01*
X155102438Y-78566666D02*
X155054819Y-78471428D01*
D13*
X163110237Y-98894318D02*
X163110237Y-97624318D01*
X164440714Y-98773365D02*
X164380238Y-98833842D01*
X164380238Y-98833842D02*
X164198809Y-98894318D01*
X164198809Y-98894318D02*
X164077857Y-98894318D01*
X164077857Y-98894318D02*
X163896428Y-98833842D01*
X163896428Y-98833842D02*
X163775476Y-98712889D01*
X163775476Y-98712889D02*
X163714999Y-98591937D01*
X163714999Y-98591937D02*
X163654523Y-98350032D01*
X163654523Y-98350032D02*
X163654523Y-98168603D01*
X163654523Y-98168603D02*
X163714999Y-97926699D01*
X163714999Y-97926699D02*
X163775476Y-97805746D01*
X163775476Y-97805746D02*
X163896428Y-97684794D01*
X163896428Y-97684794D02*
X164077857Y-97624318D01*
X164077857Y-97624318D02*
X164198809Y-97624318D01*
X164198809Y-97624318D02*
X164380238Y-97684794D01*
X164380238Y-97684794D02*
X164440714Y-97745270D01*
X165650238Y-98894318D02*
X164924523Y-98894318D01*
X165287380Y-98894318D02*
X165287380Y-97624318D01*
X165287380Y-97624318D02*
X165166428Y-97805746D01*
X165166428Y-97805746D02*
X165045476Y-97926699D01*
X165045476Y-97926699D02*
X164924523Y-97987175D01*
D12*
X158267580Y-90142857D02*
X158315200Y-90190476D01*
X158315200Y-90190476D02*
X158362819Y-90333333D01*
X158362819Y-90333333D02*
X158362819Y-90428571D01*
X158362819Y-90428571D02*
X158315200Y-90571428D01*
X158315200Y-90571428D02*
X158219961Y-90666666D01*
X158219961Y-90666666D02*
X158124723Y-90714285D01*
X158124723Y-90714285D02*
X157934247Y-90761904D01*
X157934247Y-90761904D02*
X157791390Y-90761904D01*
X157791390Y-90761904D02*
X157600914Y-90714285D01*
X157600914Y-90714285D02*
X157505676Y-90666666D01*
X157505676Y-90666666D02*
X157410438Y-90571428D01*
X157410438Y-90571428D02*
X157362819Y-90428571D01*
X157362819Y-90428571D02*
X157362819Y-90333333D01*
X157362819Y-90333333D02*
X157410438Y-90190476D01*
X157410438Y-90190476D02*
X157458057Y-90142857D01*
X157458057Y-89761904D02*
X157410438Y-89714285D01*
X157410438Y-89714285D02*
X157362819Y-89619047D01*
X157362819Y-89619047D02*
X157362819Y-89380952D01*
X157362819Y-89380952D02*
X157410438Y-89285714D01*
X157410438Y-89285714D02*
X157458057Y-89238095D01*
X157458057Y-89238095D02*
X157553295Y-89190476D01*
X157553295Y-89190476D02*
X157648533Y-89190476D01*
X157648533Y-89190476D02*
X157791390Y-89238095D01*
X157791390Y-89238095D02*
X158362819Y-89809523D01*
X158362819Y-89809523D02*
X158362819Y-89190476D01*
X157362819Y-88857142D02*
X157362819Y-88238095D01*
X157362819Y-88238095D02*
X157743771Y-88571428D01*
X157743771Y-88571428D02*
X157743771Y-88428571D01*
X157743771Y-88428571D02*
X157791390Y-88333333D01*
X157791390Y-88333333D02*
X157839009Y-88285714D01*
X157839009Y-88285714D02*
X157934247Y-88238095D01*
X157934247Y-88238095D02*
X158172342Y-88238095D01*
X158172342Y-88238095D02*
X158267580Y-88285714D01*
X158267580Y-88285714D02*
X158315200Y-88333333D01*
X158315200Y-88333333D02*
X158362819Y-88428571D01*
X158362819Y-88428571D02*
X158362819Y-88714285D01*
X158362819Y-88714285D02*
X158315200Y-88809523D01*
X158315200Y-88809523D02*
X158267580Y-88857142D01*
X158167580Y-72592857D02*
X158215200Y-72640476D01*
X158215200Y-72640476D02*
X158262819Y-72783333D01*
X158262819Y-72783333D02*
X158262819Y-72878571D01*
X158262819Y-72878571D02*
X158215200Y-73021428D01*
X158215200Y-73021428D02*
X158119961Y-73116666D01*
X158119961Y-73116666D02*
X158024723Y-73164285D01*
X158024723Y-73164285D02*
X157834247Y-73211904D01*
X157834247Y-73211904D02*
X157691390Y-73211904D01*
X157691390Y-73211904D02*
X157500914Y-73164285D01*
X157500914Y-73164285D02*
X157405676Y-73116666D01*
X157405676Y-73116666D02*
X157310438Y-73021428D01*
X157310438Y-73021428D02*
X157262819Y-72878571D01*
X157262819Y-72878571D02*
X157262819Y-72783333D01*
X157262819Y-72783333D02*
X157310438Y-72640476D01*
X157310438Y-72640476D02*
X157358057Y-72592857D01*
X157358057Y-72211904D02*
X157310438Y-72164285D01*
X157310438Y-72164285D02*
X157262819Y-72069047D01*
X157262819Y-72069047D02*
X157262819Y-71830952D01*
X157262819Y-71830952D02*
X157310438Y-71735714D01*
X157310438Y-71735714D02*
X157358057Y-71688095D01*
X157358057Y-71688095D02*
X157453295Y-71640476D01*
X157453295Y-71640476D02*
X157548533Y-71640476D01*
X157548533Y-71640476D02*
X157691390Y-71688095D01*
X157691390Y-71688095D02*
X158262819Y-72259523D01*
X158262819Y-72259523D02*
X158262819Y-71640476D01*
X157358057Y-71259523D02*
X157310438Y-71211904D01*
X157310438Y-71211904D02*
X157262819Y-71116666D01*
X157262819Y-71116666D02*
X157262819Y-70878571D01*
X157262819Y-70878571D02*
X157310438Y-70783333D01*
X157310438Y-70783333D02*
X157358057Y-70735714D01*
X157358057Y-70735714D02*
X157453295Y-70688095D01*
X157453295Y-70688095D02*
X157548533Y-70688095D01*
X157548533Y-70688095D02*
X157691390Y-70735714D01*
X157691390Y-70735714D02*
X158262819Y-71307142D01*
X158262819Y-71307142D02*
X158262819Y-70688095D01*
X107373333Y-104479580D02*
X107325714Y-104527200D01*
X107325714Y-104527200D02*
X107182857Y-104574819D01*
X107182857Y-104574819D02*
X107087619Y-104574819D01*
X107087619Y-104574819D02*
X106944762Y-104527200D01*
X106944762Y-104527200D02*
X106849524Y-104431961D01*
X106849524Y-104431961D02*
X106801905Y-104336723D01*
X106801905Y-104336723D02*
X106754286Y-104146247D01*
X106754286Y-104146247D02*
X106754286Y-104003390D01*
X106754286Y-104003390D02*
X106801905Y-103812914D01*
X106801905Y-103812914D02*
X106849524Y-103717676D01*
X106849524Y-103717676D02*
X106944762Y-103622438D01*
X106944762Y-103622438D02*
X107087619Y-103574819D01*
X107087619Y-103574819D02*
X107182857Y-103574819D01*
X107182857Y-103574819D02*
X107325714Y-103622438D01*
X107325714Y-103622438D02*
X107373333Y-103670057D01*
X108325714Y-104574819D02*
X107754286Y-104574819D01*
X108040000Y-104574819D02*
X108040000Y-103574819D01*
X108040000Y-103574819D02*
X107944762Y-103717676D01*
X107944762Y-103717676D02*
X107849524Y-103812914D01*
X107849524Y-103812914D02*
X107754286Y-103860533D01*
X122933108Y-100609580D02*
X122885489Y-100657200D01*
X122885489Y-100657200D02*
X122742632Y-100704819D01*
X122742632Y-100704819D02*
X122647394Y-100704819D01*
X122647394Y-100704819D02*
X122504537Y-100657200D01*
X122504537Y-100657200D02*
X122409299Y-100561961D01*
X122409299Y-100561961D02*
X122361680Y-100466723D01*
X122361680Y-100466723D02*
X122314061Y-100276247D01*
X122314061Y-100276247D02*
X122314061Y-100133390D01*
X122314061Y-100133390D02*
X122361680Y-99942914D01*
X122361680Y-99942914D02*
X122409299Y-99847676D01*
X122409299Y-99847676D02*
X122504537Y-99752438D01*
X122504537Y-99752438D02*
X122647394Y-99704819D01*
X122647394Y-99704819D02*
X122742632Y-99704819D01*
X122742632Y-99704819D02*
X122885489Y-99752438D01*
X122885489Y-99752438D02*
X122933108Y-99800057D01*
X123790251Y-99704819D02*
X123599775Y-99704819D01*
X123599775Y-99704819D02*
X123504537Y-99752438D01*
X123504537Y-99752438D02*
X123456918Y-99800057D01*
X123456918Y-99800057D02*
X123361680Y-99942914D01*
X123361680Y-99942914D02*
X123314061Y-100133390D01*
X123314061Y-100133390D02*
X123314061Y-100514342D01*
X123314061Y-100514342D02*
X123361680Y-100609580D01*
X123361680Y-100609580D02*
X123409299Y-100657200D01*
X123409299Y-100657200D02*
X123504537Y-100704819D01*
X123504537Y-100704819D02*
X123695013Y-100704819D01*
X123695013Y-100704819D02*
X123790251Y-100657200D01*
X123790251Y-100657200D02*
X123837870Y-100609580D01*
X123837870Y-100609580D02*
X123885489Y-100514342D01*
X123885489Y-100514342D02*
X123885489Y-100276247D01*
X123885489Y-100276247D02*
X123837870Y-100181009D01*
X123837870Y-100181009D02*
X123790251Y-100133390D01*
X123790251Y-100133390D02*
X123695013Y-100085771D01*
X123695013Y-100085771D02*
X123504537Y-100085771D01*
X123504537Y-100085771D02*
X123409299Y-100133390D01*
X123409299Y-100133390D02*
X123361680Y-100181009D01*
X123361680Y-100181009D02*
X123314061Y-100276247D01*
X154267580Y-72492857D02*
X154315200Y-72540476D01*
X154315200Y-72540476D02*
X154362819Y-72683333D01*
X154362819Y-72683333D02*
X154362819Y-72778571D01*
X154362819Y-72778571D02*
X154315200Y-72921428D01*
X154315200Y-72921428D02*
X154219961Y-73016666D01*
X154219961Y-73016666D02*
X154124723Y-73064285D01*
X154124723Y-73064285D02*
X153934247Y-73111904D01*
X153934247Y-73111904D02*
X153791390Y-73111904D01*
X153791390Y-73111904D02*
X153600914Y-73064285D01*
X153600914Y-73064285D02*
X153505676Y-73016666D01*
X153505676Y-73016666D02*
X153410438Y-72921428D01*
X153410438Y-72921428D02*
X153362819Y-72778571D01*
X153362819Y-72778571D02*
X153362819Y-72683333D01*
X153362819Y-72683333D02*
X153410438Y-72540476D01*
X153410438Y-72540476D02*
X153458057Y-72492857D01*
X154362819Y-71540476D02*
X154362819Y-72111904D01*
X154362819Y-71826190D02*
X153362819Y-71826190D01*
X153362819Y-71826190D02*
X153505676Y-71921428D01*
X153505676Y-71921428D02*
X153600914Y-72016666D01*
X153600914Y-72016666D02*
X153648533Y-72111904D01*
X153791390Y-70969047D02*
X153743771Y-71064285D01*
X153743771Y-71064285D02*
X153696152Y-71111904D01*
X153696152Y-71111904D02*
X153600914Y-71159523D01*
X153600914Y-71159523D02*
X153553295Y-71159523D01*
X153553295Y-71159523D02*
X153458057Y-71111904D01*
X153458057Y-71111904D02*
X153410438Y-71064285D01*
X153410438Y-71064285D02*
X153362819Y-70969047D01*
X153362819Y-70969047D02*
X153362819Y-70778571D01*
X153362819Y-70778571D02*
X153410438Y-70683333D01*
X153410438Y-70683333D02*
X153458057Y-70635714D01*
X153458057Y-70635714D02*
X153553295Y-70588095D01*
X153553295Y-70588095D02*
X153600914Y-70588095D01*
X153600914Y-70588095D02*
X153696152Y-70635714D01*
X153696152Y-70635714D02*
X153743771Y-70683333D01*
X153743771Y-70683333D02*
X153791390Y-70778571D01*
X153791390Y-70778571D02*
X153791390Y-70969047D01*
X153791390Y-70969047D02*
X153839009Y-71064285D01*
X153839009Y-71064285D02*
X153886628Y-71111904D01*
X153886628Y-71111904D02*
X153981866Y-71159523D01*
X153981866Y-71159523D02*
X154172342Y-71159523D01*
X154172342Y-71159523D02*
X154267580Y-71111904D01*
X154267580Y-71111904D02*
X154315200Y-71064285D01*
X154315200Y-71064285D02*
X154362819Y-70969047D01*
X154362819Y-70969047D02*
X154362819Y-70778571D01*
X154362819Y-70778571D02*
X154315200Y-70683333D01*
X154315200Y-70683333D02*
X154267580Y-70635714D01*
X154267580Y-70635714D02*
X154172342Y-70588095D01*
X154172342Y-70588095D02*
X153981866Y-70588095D01*
X153981866Y-70588095D02*
X153886628Y-70635714D01*
X153886628Y-70635714D02*
X153839009Y-70683333D01*
X153839009Y-70683333D02*
X153791390Y-70778571D01*
X129554819Y-106648094D02*
X128554819Y-106648094D01*
X128554819Y-106648094D02*
X128554819Y-106409999D01*
X128554819Y-106409999D02*
X128602438Y-106267142D01*
X128602438Y-106267142D02*
X128697676Y-106171904D01*
X128697676Y-106171904D02*
X128792914Y-106124285D01*
X128792914Y-106124285D02*
X128983390Y-106076666D01*
X128983390Y-106076666D02*
X129126247Y-106076666D01*
X129126247Y-106076666D02*
X129316723Y-106124285D01*
X129316723Y-106124285D02*
X129411961Y-106171904D01*
X129411961Y-106171904D02*
X129507200Y-106267142D01*
X129507200Y-106267142D02*
X129554819Y-106409999D01*
X129554819Y-106409999D02*
X129554819Y-106648094D01*
X128554819Y-105743332D02*
X128554819Y-105124285D01*
X128554819Y-105124285D02*
X128935771Y-105457618D01*
X128935771Y-105457618D02*
X128935771Y-105314761D01*
X128935771Y-105314761D02*
X128983390Y-105219523D01*
X128983390Y-105219523D02*
X129031009Y-105171904D01*
X129031009Y-105171904D02*
X129126247Y-105124285D01*
X129126247Y-105124285D02*
X129364342Y-105124285D01*
X129364342Y-105124285D02*
X129459580Y-105171904D01*
X129459580Y-105171904D02*
X129507200Y-105219523D01*
X129507200Y-105219523D02*
X129554819Y-105314761D01*
X129554819Y-105314761D02*
X129554819Y-105600475D01*
X129554819Y-105600475D02*
X129507200Y-105695713D01*
X129507200Y-105695713D02*
X129459580Y-105743332D01*
X131454819Y-102361904D02*
X130454819Y-102361904D01*
X131454819Y-101790476D02*
X130883390Y-102219047D01*
X130454819Y-101790476D02*
X131026247Y-102361904D01*
X135609580Y-108092857D02*
X135657200Y-108140476D01*
X135657200Y-108140476D02*
X135704819Y-108283333D01*
X135704819Y-108283333D02*
X135704819Y-108378571D01*
X135704819Y-108378571D02*
X135657200Y-108521428D01*
X135657200Y-108521428D02*
X135561961Y-108616666D01*
X135561961Y-108616666D02*
X135466723Y-108664285D01*
X135466723Y-108664285D02*
X135276247Y-108711904D01*
X135276247Y-108711904D02*
X135133390Y-108711904D01*
X135133390Y-108711904D02*
X134942914Y-108664285D01*
X134942914Y-108664285D02*
X134847676Y-108616666D01*
X134847676Y-108616666D02*
X134752438Y-108521428D01*
X134752438Y-108521428D02*
X134704819Y-108378571D01*
X134704819Y-108378571D02*
X134704819Y-108283333D01*
X134704819Y-108283333D02*
X134752438Y-108140476D01*
X134752438Y-108140476D02*
X134800057Y-108092857D01*
X135704819Y-107140476D02*
X135704819Y-107711904D01*
X135704819Y-107426190D02*
X134704819Y-107426190D01*
X134704819Y-107426190D02*
X134847676Y-107521428D01*
X134847676Y-107521428D02*
X134942914Y-107616666D01*
X134942914Y-107616666D02*
X134990533Y-107711904D01*
X135704819Y-106188095D02*
X135704819Y-106759523D01*
X135704819Y-106473809D02*
X134704819Y-106473809D01*
X134704819Y-106473809D02*
X134847676Y-106569047D01*
X134847676Y-106569047D02*
X134942914Y-106664285D01*
X134942914Y-106664285D02*
X134990533Y-106759523D01*
D10*
G36*
X160334444Y-113958530D02*
G01*
X157345556Y-113958530D01*
X157345556Y-112987895D01*
X157456667Y-112987895D01*
X157456667Y-113083133D01*
X157457155Y-113085589D01*
X157456793Y-113086678D01*
X157458909Y-113094405D01*
X157460473Y-113102267D01*
X157461284Y-113103078D01*
X157461946Y-113105494D01*
X157509564Y-113200731D01*
X157514479Y-113207064D01*
X157518931Y-113213726D01*
X157566549Y-113261345D01*
X157573215Y-113265799D01*
X157579544Y-113270711D01*
X157674782Y-113318330D01*
X157680063Y-113319776D01*
X157685016Y-113322116D01*
X157870168Y-113368404D01*
X157953239Y-113409939D01*
X157989383Y-113446084D01*
X158028095Y-113523507D01*
X158028095Y-113595138D01*
X157989383Y-113672561D01*
X157953237Y-113708708D01*
X157875816Y-113747419D01*
X157657637Y-113747419D01*
X157522478Y-113702366D01*
X157503123Y-113699926D01*
X157468894Y-113717040D01*
X157456793Y-113753344D01*
X157473907Y-113787573D01*
X157490856Y-113797234D01*
X157633712Y-113844853D01*
X157641662Y-113845855D01*
X157649524Y-113847419D01*
X157887619Y-113847419D01*
X157890075Y-113846930D01*
X157891164Y-113847293D01*
X157898891Y-113845176D01*
X157906753Y-113843613D01*
X157907564Y-113842801D01*
X157909980Y-113842140D01*
X158005217Y-113794522D01*
X158011544Y-113789611D01*
X158018213Y-113785155D01*
X158065832Y-113737535D01*
X158070285Y-113730869D01*
X158075197Y-113724541D01*
X158122816Y-113629303D01*
X158123477Y-113626887D01*
X158124289Y-113626076D01*
X158125852Y-113618214D01*
X158127969Y-113610487D01*
X158127606Y-113609398D01*
X158128095Y-113606942D01*
X158128095Y-113511704D01*
X158127606Y-113509247D01*
X158127969Y-113508159D01*
X158125852Y-113500431D01*
X158124289Y-113492570D01*
X158123477Y-113491758D01*
X158122816Y-113489343D01*
X158075197Y-113394105D01*
X158070285Y-113387776D01*
X158065831Y-113381110D01*
X158018212Y-113333492D01*
X158011550Y-113329040D01*
X158005217Y-113324125D01*
X157909980Y-113276507D01*
X157904698Y-113275060D01*
X157899746Y-113272721D01*
X157714595Y-113226433D01*
X157631523Y-113184897D01*
X157595378Y-113148753D01*
X157556667Y-113071330D01*
X157556667Y-112999698D01*
X157595378Y-112922274D01*
X157631523Y-112886130D01*
X157708947Y-112847419D01*
X157927125Y-112847419D01*
X158062283Y-112892472D01*
X158081639Y-112894912D01*
X158115867Y-112877798D01*
X158127969Y-112841494D01*
X158110854Y-112807265D01*
X158093906Y-112797604D01*
X158069609Y-112789505D01*
X158362059Y-112789505D01*
X158362789Y-112809000D01*
X158600884Y-113809000D01*
X158609018Y-113826732D01*
X158615387Y-113830651D01*
X158619134Y-113837123D01*
X158631079Y-113840308D01*
X158641610Y-113846789D01*
X158648885Y-113845056D01*
X158656109Y-113846983D01*
X158666807Y-113840789D01*
X158678837Y-113837925D01*
X158682756Y-113831555D01*
X158689228Y-113827809D01*
X158697836Y-113810302D01*
X158840000Y-113277186D01*
X158982164Y-113810302D01*
X158990772Y-113827810D01*
X158997244Y-113831557D01*
X159001163Y-113837925D01*
X159013189Y-113840788D01*
X159023891Y-113846984D01*
X159031116Y-113845057D01*
X159038390Y-113846789D01*
X159048919Y-113840308D01*
X159060866Y-113837123D01*
X159064612Y-113830651D01*
X159070982Y-113826732D01*
X159079116Y-113809000D01*
X159317212Y-112809000D01*
X159317942Y-112789505D01*
X159311037Y-112778285D01*
X159508092Y-112778285D01*
X159508092Y-112816553D01*
X159535152Y-112843613D01*
X159554286Y-112847419D01*
X160063145Y-112847419D01*
X159802371Y-113145446D01*
X159795276Y-113157766D01*
X159793806Y-113159237D01*
X159793806Y-113160320D01*
X159792636Y-113162352D01*
X159793806Y-113179906D01*
X159793806Y-113197505D01*
X159795062Y-113198761D01*
X159795181Y-113200536D01*
X159808425Y-113212124D01*
X159820866Y-113224565D01*
X159823166Y-113225022D01*
X159823981Y-113225735D01*
X159826053Y-113225596D01*
X159840000Y-113228371D01*
X159971054Y-113228371D01*
X160048477Y-113267082D01*
X160084621Y-113303227D01*
X160123333Y-113380650D01*
X160123333Y-113595138D01*
X160084621Y-113672561D01*
X160048475Y-113708708D01*
X159971054Y-113747419D01*
X159708947Y-113747419D01*
X159631524Y-113708708D01*
X159589642Y-113666825D01*
X159573421Y-113655986D01*
X159535152Y-113655986D01*
X159508092Y-113683045D01*
X159508092Y-113721314D01*
X159518930Y-113737535D01*
X159566549Y-113785155D01*
X159573215Y-113789609D01*
X159579544Y-113794521D01*
X159674782Y-113842140D01*
X159677197Y-113842801D01*
X159678009Y-113843613D01*
X159685870Y-113845176D01*
X159693598Y-113847293D01*
X159694686Y-113846930D01*
X159697143Y-113847419D01*
X159982857Y-113847419D01*
X159985313Y-113846930D01*
X159986402Y-113847293D01*
X159994129Y-113845176D01*
X160001991Y-113843613D01*
X160002802Y-113842801D01*
X160005218Y-113842140D01*
X160100455Y-113794522D01*
X160106782Y-113789611D01*
X160113451Y-113785155D01*
X160161070Y-113737535D01*
X160165523Y-113730869D01*
X160170435Y-113724541D01*
X160218054Y-113629303D01*
X160218715Y-113626887D01*
X160219527Y-113626076D01*
X160221090Y-113618214D01*
X160223207Y-113610487D01*
X160222844Y-113609398D01*
X160223333Y-113606942D01*
X160223333Y-113368847D01*
X160222844Y-113366390D01*
X160223207Y-113365302D01*
X160221090Y-113357574D01*
X160219527Y-113349713D01*
X160218715Y-113348901D01*
X160218054Y-113346486D01*
X160170435Y-113251248D01*
X160165523Y-113244919D01*
X160161069Y-113238253D01*
X160113450Y-113190635D01*
X160106788Y-113186183D01*
X160100455Y-113181268D01*
X160005218Y-113133650D01*
X160002802Y-113132988D01*
X160001991Y-113132177D01*
X159994129Y-113130613D01*
X159986402Y-113128497D01*
X159985313Y-113128859D01*
X159982857Y-113128371D01*
X159950188Y-113128371D01*
X160210962Y-112830344D01*
X160218056Y-112818023D01*
X160219527Y-112816553D01*
X160219527Y-112815469D01*
X160220697Y-112813438D01*
X160219527Y-112795883D01*
X160219527Y-112778285D01*
X160218270Y-112777028D01*
X160218152Y-112775254D01*
X160204907Y-112763665D01*
X160192467Y-112751225D01*
X160190166Y-112750767D01*
X160189352Y-112750055D01*
X160187279Y-112750193D01*
X160173333Y-112747419D01*
X159554286Y-112747419D01*
X159535152Y-112751225D01*
X159508092Y-112778285D01*
X159311037Y-112778285D01*
X159297885Y-112756913D01*
X159260658Y-112748049D01*
X159228066Y-112768106D01*
X159219932Y-112785838D01*
X159027731Y-113593075D01*
X158888312Y-113070250D01*
X158879704Y-113052743D01*
X158873805Y-113049327D01*
X158870390Y-113043429D01*
X158857830Y-113040079D01*
X158846585Y-113033569D01*
X158840001Y-113035324D01*
X158833415Y-113033568D01*
X158822165Y-113040080D01*
X158809610Y-113043429D01*
X158806195Y-113049326D01*
X158800296Y-113052742D01*
X158791688Y-113070250D01*
X158652268Y-113593075D01*
X158460069Y-112785838D01*
X158451935Y-112768106D01*
X158419343Y-112748049D01*
X158382116Y-112756913D01*
X158362059Y-112789505D01*
X158069609Y-112789505D01*
X157951049Y-112749985D01*
X157943100Y-112748982D01*
X157935238Y-112747419D01*
X157697143Y-112747419D01*
X157694686Y-112747907D01*
X157693598Y-112747545D01*
X157685870Y-112749661D01*
X157678009Y-112751225D01*
X157677197Y-112752036D01*
X157674782Y-112752698D01*
X157579544Y-112800317D01*
X157573215Y-112805228D01*
X157566549Y-112809683D01*
X157518931Y-112857302D01*
X157514479Y-112863963D01*
X157509564Y-112870297D01*
X157461946Y-112965534D01*
X157461284Y-112967949D01*
X157460473Y-112968761D01*
X157458909Y-112976622D01*
X157456793Y-112984350D01*
X157457155Y-112985438D01*
X157456667Y-112987895D01*
X157345556Y-112987895D01*
X157345556Y-112636308D01*
X160334444Y-112636308D01*
X160334444Y-113958530D01*
G37*
D12*
X136757142Y-67109580D02*
X136709523Y-67157200D01*
X136709523Y-67157200D02*
X136566666Y-67204819D01*
X136566666Y-67204819D02*
X136471428Y-67204819D01*
X136471428Y-67204819D02*
X136328571Y-67157200D01*
X136328571Y-67157200D02*
X136233333Y-67061961D01*
X136233333Y-67061961D02*
X136185714Y-66966723D01*
X136185714Y-66966723D02*
X136138095Y-66776247D01*
X136138095Y-66776247D02*
X136138095Y-66633390D01*
X136138095Y-66633390D02*
X136185714Y-66442914D01*
X136185714Y-66442914D02*
X136233333Y-66347676D01*
X136233333Y-66347676D02*
X136328571Y-66252438D01*
X136328571Y-66252438D02*
X136471428Y-66204819D01*
X136471428Y-66204819D02*
X136566666Y-66204819D01*
X136566666Y-66204819D02*
X136709523Y-66252438D01*
X136709523Y-66252438D02*
X136757142Y-66300057D01*
X137709523Y-67204819D02*
X137138095Y-67204819D01*
X137423809Y-67204819D02*
X137423809Y-66204819D01*
X137423809Y-66204819D02*
X137328571Y-66347676D01*
X137328571Y-66347676D02*
X137233333Y-66442914D01*
X137233333Y-66442914D02*
X137138095Y-66490533D01*
X138328571Y-66204819D02*
X138423809Y-66204819D01*
X138423809Y-66204819D02*
X138519047Y-66252438D01*
X138519047Y-66252438D02*
X138566666Y-66300057D01*
X138566666Y-66300057D02*
X138614285Y-66395295D01*
X138614285Y-66395295D02*
X138661904Y-66585771D01*
X138661904Y-66585771D02*
X138661904Y-66823866D01*
X138661904Y-66823866D02*
X138614285Y-67014342D01*
X138614285Y-67014342D02*
X138566666Y-67109580D01*
X138566666Y-67109580D02*
X138519047Y-67157200D01*
X138519047Y-67157200D02*
X138423809Y-67204819D01*
X138423809Y-67204819D02*
X138328571Y-67204819D01*
X138328571Y-67204819D02*
X138233333Y-67157200D01*
X138233333Y-67157200D02*
X138185714Y-67109580D01*
X138185714Y-67109580D02*
X138138095Y-67014342D01*
X138138095Y-67014342D02*
X138090476Y-66823866D01*
X138090476Y-66823866D02*
X138090476Y-66585771D01*
X138090476Y-66585771D02*
X138138095Y-66395295D01*
X138138095Y-66395295D02*
X138185714Y-66300057D01*
X138185714Y-66300057D02*
X138233333Y-66252438D01*
X138233333Y-66252438D02*
X138328571Y-66204819D01*
X144159580Y-77542857D02*
X144207200Y-77590476D01*
X144207200Y-77590476D02*
X144254819Y-77733333D01*
X144254819Y-77733333D02*
X144254819Y-77828571D01*
X144254819Y-77828571D02*
X144207200Y-77971428D01*
X144207200Y-77971428D02*
X144111961Y-78066666D01*
X144111961Y-78066666D02*
X144016723Y-78114285D01*
X144016723Y-78114285D02*
X143826247Y-78161904D01*
X143826247Y-78161904D02*
X143683390Y-78161904D01*
X143683390Y-78161904D02*
X143492914Y-78114285D01*
X143492914Y-78114285D02*
X143397676Y-78066666D01*
X143397676Y-78066666D02*
X143302438Y-77971428D01*
X143302438Y-77971428D02*
X143254819Y-77828571D01*
X143254819Y-77828571D02*
X143254819Y-77733333D01*
X143254819Y-77733333D02*
X143302438Y-77590476D01*
X143302438Y-77590476D02*
X143350057Y-77542857D01*
X144254819Y-76590476D02*
X144254819Y-77161904D01*
X144254819Y-76876190D02*
X143254819Y-76876190D01*
X143254819Y-76876190D02*
X143397676Y-76971428D01*
X143397676Y-76971428D02*
X143492914Y-77066666D01*
X143492914Y-77066666D02*
X143540533Y-77161904D01*
X143588152Y-75733333D02*
X144254819Y-75733333D01*
X143207200Y-75971428D02*
X143921485Y-76209523D01*
X143921485Y-76209523D02*
X143921485Y-75590476D01*
X130968878Y-92356467D02*
X130968878Y-91569065D01*
X130968878Y-91569065D02*
X131231346Y-92131495D01*
X131231346Y-92131495D02*
X131493813Y-91569065D01*
X131493813Y-91569065D02*
X131493813Y-92356467D01*
X131868766Y-92356467D02*
X131868766Y-91569065D01*
X131868766Y-91569065D02*
X132056243Y-91569065D01*
X132056243Y-91569065D02*
X132168729Y-91606560D01*
X132168729Y-91606560D02*
X132243720Y-91681551D01*
X132243720Y-91681551D02*
X132281215Y-91756542D01*
X132281215Y-91756542D02*
X132318710Y-91906523D01*
X132318710Y-91906523D02*
X132318710Y-92019009D01*
X132318710Y-92019009D02*
X132281215Y-92168990D01*
X132281215Y-92168990D02*
X132243720Y-92243981D01*
X132243720Y-92243981D02*
X132168729Y-92318972D01*
X132168729Y-92318972D02*
X132056243Y-92356467D01*
X132056243Y-92356467D02*
X131868766Y-92356467D01*
X133068617Y-92356467D02*
X132618673Y-92356467D01*
X132843645Y-92356467D02*
X132843645Y-91569065D01*
X132843645Y-91569065D02*
X132768654Y-91681551D01*
X132768654Y-91681551D02*
X132693664Y-91756542D01*
X132693664Y-91756542D02*
X132618673Y-91794037D01*
X111993333Y-109519580D02*
X111945714Y-109567200D01*
X111945714Y-109567200D02*
X111802857Y-109614819D01*
X111802857Y-109614819D02*
X111707619Y-109614819D01*
X111707619Y-109614819D02*
X111564762Y-109567200D01*
X111564762Y-109567200D02*
X111469524Y-109471961D01*
X111469524Y-109471961D02*
X111421905Y-109376723D01*
X111421905Y-109376723D02*
X111374286Y-109186247D01*
X111374286Y-109186247D02*
X111374286Y-109043390D01*
X111374286Y-109043390D02*
X111421905Y-108852914D01*
X111421905Y-108852914D02*
X111469524Y-108757676D01*
X111469524Y-108757676D02*
X111564762Y-108662438D01*
X111564762Y-108662438D02*
X111707619Y-108614819D01*
X111707619Y-108614819D02*
X111802857Y-108614819D01*
X111802857Y-108614819D02*
X111945714Y-108662438D01*
X111945714Y-108662438D02*
X111993333Y-108710057D01*
X112374286Y-108710057D02*
X112421905Y-108662438D01*
X112421905Y-108662438D02*
X112517143Y-108614819D01*
X112517143Y-108614819D02*
X112755238Y-108614819D01*
X112755238Y-108614819D02*
X112850476Y-108662438D01*
X112850476Y-108662438D02*
X112898095Y-108710057D01*
X112898095Y-108710057D02*
X112945714Y-108805295D01*
X112945714Y-108805295D02*
X112945714Y-108900533D01*
X112945714Y-108900533D02*
X112898095Y-109043390D01*
X112898095Y-109043390D02*
X112326667Y-109614819D01*
X112326667Y-109614819D02*
X112945714Y-109614819D01*
X145583333Y-98326819D02*
X145250000Y-97850628D01*
X145011905Y-98326819D02*
X145011905Y-97326819D01*
X145011905Y-97326819D02*
X145392857Y-97326819D01*
X145392857Y-97326819D02*
X145488095Y-97374438D01*
X145488095Y-97374438D02*
X145535714Y-97422057D01*
X145535714Y-97422057D02*
X145583333Y-97517295D01*
X145583333Y-97517295D02*
X145583333Y-97660152D01*
X145583333Y-97660152D02*
X145535714Y-97755390D01*
X145535714Y-97755390D02*
X145488095Y-97803009D01*
X145488095Y-97803009D02*
X145392857Y-97850628D01*
X145392857Y-97850628D02*
X145011905Y-97850628D01*
X145916667Y-97326819D02*
X146583333Y-97326819D01*
X146583333Y-97326819D02*
X146154762Y-98326819D01*
X154066666Y-127564819D02*
X154066666Y-128279104D01*
X154066666Y-128279104D02*
X154019047Y-128421961D01*
X154019047Y-128421961D02*
X153923809Y-128517200D01*
X153923809Y-128517200D02*
X153780952Y-128564819D01*
X153780952Y-128564819D02*
X153685714Y-128564819D01*
X154971428Y-127898152D02*
X154971428Y-128564819D01*
X154733333Y-127517200D02*
X154495238Y-128231485D01*
X154495238Y-128231485D02*
X155114285Y-128231485D01*
X144904761Y-91204819D02*
X144571428Y-90728628D01*
X144333333Y-91204819D02*
X144333333Y-90204819D01*
X144333333Y-90204819D02*
X144714285Y-90204819D01*
X144714285Y-90204819D02*
X144809523Y-90252438D01*
X144809523Y-90252438D02*
X144857142Y-90300057D01*
X144857142Y-90300057D02*
X144904761Y-90395295D01*
X144904761Y-90395295D02*
X144904761Y-90538152D01*
X144904761Y-90538152D02*
X144857142Y-90633390D01*
X144857142Y-90633390D02*
X144809523Y-90681009D01*
X144809523Y-90681009D02*
X144714285Y-90728628D01*
X144714285Y-90728628D02*
X144333333Y-90728628D01*
X145190476Y-90204819D02*
X145523809Y-91204819D01*
X145523809Y-91204819D02*
X145857142Y-90204819D01*
X146142857Y-90300057D02*
X146190476Y-90252438D01*
X146190476Y-90252438D02*
X146285714Y-90204819D01*
X146285714Y-90204819D02*
X146523809Y-90204819D01*
X146523809Y-90204819D02*
X146619047Y-90252438D01*
X146619047Y-90252438D02*
X146666666Y-90300057D01*
X146666666Y-90300057D02*
X146714285Y-90395295D01*
X146714285Y-90395295D02*
X146714285Y-90490533D01*
X146714285Y-90490533D02*
X146666666Y-90633390D01*
X146666666Y-90633390D02*
X146095238Y-91204819D01*
X146095238Y-91204819D02*
X146714285Y-91204819D01*
X157917580Y-100342857D02*
X157965200Y-100390476D01*
X157965200Y-100390476D02*
X158012819Y-100533333D01*
X158012819Y-100533333D02*
X158012819Y-100628571D01*
X158012819Y-100628571D02*
X157965200Y-100771428D01*
X157965200Y-100771428D02*
X157869961Y-100866666D01*
X157869961Y-100866666D02*
X157774723Y-100914285D01*
X157774723Y-100914285D02*
X157584247Y-100961904D01*
X157584247Y-100961904D02*
X157441390Y-100961904D01*
X157441390Y-100961904D02*
X157250914Y-100914285D01*
X157250914Y-100914285D02*
X157155676Y-100866666D01*
X157155676Y-100866666D02*
X157060438Y-100771428D01*
X157060438Y-100771428D02*
X157012819Y-100628571D01*
X157012819Y-100628571D02*
X157012819Y-100533333D01*
X157012819Y-100533333D02*
X157060438Y-100390476D01*
X157060438Y-100390476D02*
X157108057Y-100342857D01*
X157108057Y-99961904D02*
X157060438Y-99914285D01*
X157060438Y-99914285D02*
X157012819Y-99819047D01*
X157012819Y-99819047D02*
X157012819Y-99580952D01*
X157012819Y-99580952D02*
X157060438Y-99485714D01*
X157060438Y-99485714D02*
X157108057Y-99438095D01*
X157108057Y-99438095D02*
X157203295Y-99390476D01*
X157203295Y-99390476D02*
X157298533Y-99390476D01*
X157298533Y-99390476D02*
X157441390Y-99438095D01*
X157441390Y-99438095D02*
X158012819Y-100009523D01*
X158012819Y-100009523D02*
X158012819Y-99390476D01*
X158012819Y-98438095D02*
X158012819Y-99009523D01*
X158012819Y-98723809D02*
X157012819Y-98723809D01*
X157012819Y-98723809D02*
X157155676Y-98819047D01*
X157155676Y-98819047D02*
X157250914Y-98914285D01*
X157250914Y-98914285D02*
X157298533Y-99009523D01*
X141967580Y-69342857D02*
X142015200Y-69390476D01*
X142015200Y-69390476D02*
X142062819Y-69533333D01*
X142062819Y-69533333D02*
X142062819Y-69628571D01*
X142062819Y-69628571D02*
X142015200Y-69771428D01*
X142015200Y-69771428D02*
X141919961Y-69866666D01*
X141919961Y-69866666D02*
X141824723Y-69914285D01*
X141824723Y-69914285D02*
X141634247Y-69961904D01*
X141634247Y-69961904D02*
X141491390Y-69961904D01*
X141491390Y-69961904D02*
X141300914Y-69914285D01*
X141300914Y-69914285D02*
X141205676Y-69866666D01*
X141205676Y-69866666D02*
X141110438Y-69771428D01*
X141110438Y-69771428D02*
X141062819Y-69628571D01*
X141062819Y-69628571D02*
X141062819Y-69533333D01*
X141062819Y-69533333D02*
X141110438Y-69390476D01*
X141110438Y-69390476D02*
X141158057Y-69342857D01*
X142062819Y-68390476D02*
X142062819Y-68961904D01*
X142062819Y-68676190D02*
X141062819Y-68676190D01*
X141062819Y-68676190D02*
X141205676Y-68771428D01*
X141205676Y-68771428D02*
X141300914Y-68866666D01*
X141300914Y-68866666D02*
X141348533Y-68961904D01*
X141158057Y-68009523D02*
X141110438Y-67961904D01*
X141110438Y-67961904D02*
X141062819Y-67866666D01*
X141062819Y-67866666D02*
X141062819Y-67628571D01*
X141062819Y-67628571D02*
X141110438Y-67533333D01*
X141110438Y-67533333D02*
X141158057Y-67485714D01*
X141158057Y-67485714D02*
X141253295Y-67438095D01*
X141253295Y-67438095D02*
X141348533Y-67438095D01*
X141348533Y-67438095D02*
X141491390Y-67485714D01*
X141491390Y-67485714D02*
X142062819Y-68057142D01*
X142062819Y-68057142D02*
X142062819Y-67438095D01*
X149238095Y-78954819D02*
X149238095Y-79764342D01*
X149238095Y-79764342D02*
X149285714Y-79859580D01*
X149285714Y-79859580D02*
X149333333Y-79907200D01*
X149333333Y-79907200D02*
X149428571Y-79954819D01*
X149428571Y-79954819D02*
X149619047Y-79954819D01*
X149619047Y-79954819D02*
X149714285Y-79907200D01*
X149714285Y-79907200D02*
X149761904Y-79859580D01*
X149761904Y-79859580D02*
X149809523Y-79764342D01*
X149809523Y-79764342D02*
X149809523Y-78954819D01*
X150809523Y-79954819D02*
X150238095Y-79954819D01*
X150523809Y-79954819D02*
X150523809Y-78954819D01*
X150523809Y-78954819D02*
X150428571Y-79097676D01*
X150428571Y-79097676D02*
X150333333Y-79192914D01*
X150333333Y-79192914D02*
X150238095Y-79240533D01*
X132954819Y-79246666D02*
X132478628Y-79579999D01*
X132954819Y-79818094D02*
X131954819Y-79818094D01*
X131954819Y-79818094D02*
X131954819Y-79437142D01*
X131954819Y-79437142D02*
X132002438Y-79341904D01*
X132002438Y-79341904D02*
X132050057Y-79294285D01*
X132050057Y-79294285D02*
X132145295Y-79246666D01*
X132145295Y-79246666D02*
X132288152Y-79246666D01*
X132288152Y-79246666D02*
X132383390Y-79294285D01*
X132383390Y-79294285D02*
X132431009Y-79341904D01*
X132431009Y-79341904D02*
X132478628Y-79437142D01*
X132478628Y-79437142D02*
X132478628Y-79818094D01*
X131954819Y-78913332D02*
X131954819Y-78294285D01*
X131954819Y-78294285D02*
X132335771Y-78627618D01*
X132335771Y-78627618D02*
X132335771Y-78484761D01*
X132335771Y-78484761D02*
X132383390Y-78389523D01*
X132383390Y-78389523D02*
X132431009Y-78341904D01*
X132431009Y-78341904D02*
X132526247Y-78294285D01*
X132526247Y-78294285D02*
X132764342Y-78294285D01*
X132764342Y-78294285D02*
X132859580Y-78341904D01*
X132859580Y-78341904D02*
X132907200Y-78389523D01*
X132907200Y-78389523D02*
X132954819Y-78484761D01*
X132954819Y-78484761D02*
X132954819Y-78770475D01*
X132954819Y-78770475D02*
X132907200Y-78865713D01*
X132907200Y-78865713D02*
X132859580Y-78913332D01*
X145909580Y-69392857D02*
X145957200Y-69440476D01*
X145957200Y-69440476D02*
X146004819Y-69583333D01*
X146004819Y-69583333D02*
X146004819Y-69678571D01*
X146004819Y-69678571D02*
X145957200Y-69821428D01*
X145957200Y-69821428D02*
X145861961Y-69916666D01*
X145861961Y-69916666D02*
X145766723Y-69964285D01*
X145766723Y-69964285D02*
X145576247Y-70011904D01*
X145576247Y-70011904D02*
X145433390Y-70011904D01*
X145433390Y-70011904D02*
X145242914Y-69964285D01*
X145242914Y-69964285D02*
X145147676Y-69916666D01*
X145147676Y-69916666D02*
X145052438Y-69821428D01*
X145052438Y-69821428D02*
X145004819Y-69678571D01*
X145004819Y-69678571D02*
X145004819Y-69583333D01*
X145004819Y-69583333D02*
X145052438Y-69440476D01*
X145052438Y-69440476D02*
X145100057Y-69392857D01*
X146004819Y-68440476D02*
X146004819Y-69011904D01*
X146004819Y-68726190D02*
X145004819Y-68726190D01*
X145004819Y-68726190D02*
X145147676Y-68821428D01*
X145147676Y-68821428D02*
X145242914Y-68916666D01*
X145242914Y-68916666D02*
X145290533Y-69011904D01*
X145004819Y-67583333D02*
X145004819Y-67773809D01*
X145004819Y-67773809D02*
X145052438Y-67869047D01*
X145052438Y-67869047D02*
X145100057Y-67916666D01*
X145100057Y-67916666D02*
X145242914Y-68011904D01*
X145242914Y-68011904D02*
X145433390Y-68059523D01*
X145433390Y-68059523D02*
X145814342Y-68059523D01*
X145814342Y-68059523D02*
X145909580Y-68011904D01*
X145909580Y-68011904D02*
X145957200Y-67964285D01*
X145957200Y-67964285D02*
X146004819Y-67869047D01*
X146004819Y-67869047D02*
X146004819Y-67678571D01*
X146004819Y-67678571D02*
X145957200Y-67583333D01*
X145957200Y-67583333D02*
X145909580Y-67535714D01*
X145909580Y-67535714D02*
X145814342Y-67488095D01*
X145814342Y-67488095D02*
X145576247Y-67488095D01*
X145576247Y-67488095D02*
X145481009Y-67535714D01*
X145481009Y-67535714D02*
X145433390Y-67583333D01*
X145433390Y-67583333D02*
X145385771Y-67678571D01*
X145385771Y-67678571D02*
X145385771Y-67869047D01*
X145385771Y-67869047D02*
X145433390Y-67964285D01*
X145433390Y-67964285D02*
X145481009Y-68011904D01*
X145481009Y-68011904D02*
X145576247Y-68059523D01*
X112333333Y-85359580D02*
X112285714Y-85407200D01*
X112285714Y-85407200D02*
X112142857Y-85454819D01*
X112142857Y-85454819D02*
X112047619Y-85454819D01*
X112047619Y-85454819D02*
X111904762Y-85407200D01*
X111904762Y-85407200D02*
X111809524Y-85311961D01*
X111809524Y-85311961D02*
X111761905Y-85216723D01*
X111761905Y-85216723D02*
X111714286Y-85026247D01*
X111714286Y-85026247D02*
X111714286Y-84883390D01*
X111714286Y-84883390D02*
X111761905Y-84692914D01*
X111761905Y-84692914D02*
X111809524Y-84597676D01*
X111809524Y-84597676D02*
X111904762Y-84502438D01*
X111904762Y-84502438D02*
X112047619Y-84454819D01*
X112047619Y-84454819D02*
X112142857Y-84454819D01*
X112142857Y-84454819D02*
X112285714Y-84502438D01*
X112285714Y-84502438D02*
X112333333Y-84550057D01*
X112666667Y-84454819D02*
X113285714Y-84454819D01*
X113285714Y-84454819D02*
X112952381Y-84835771D01*
X112952381Y-84835771D02*
X113095238Y-84835771D01*
X113095238Y-84835771D02*
X113190476Y-84883390D01*
X113190476Y-84883390D02*
X113238095Y-84931009D01*
X113238095Y-84931009D02*
X113285714Y-85026247D01*
X113285714Y-85026247D02*
X113285714Y-85264342D01*
X113285714Y-85264342D02*
X113238095Y-85359580D01*
X113238095Y-85359580D02*
X113190476Y-85407200D01*
X113190476Y-85407200D02*
X113095238Y-85454819D01*
X113095238Y-85454819D02*
X112809524Y-85454819D01*
X112809524Y-85454819D02*
X112714286Y-85407200D01*
X112714286Y-85407200D02*
X112666667Y-85359580D01*
X141414819Y-106258094D02*
X140414819Y-106258094D01*
X140414819Y-106258094D02*
X140414819Y-106019999D01*
X140414819Y-106019999D02*
X140462438Y-105877142D01*
X140462438Y-105877142D02*
X140557676Y-105781904D01*
X140557676Y-105781904D02*
X140652914Y-105734285D01*
X140652914Y-105734285D02*
X140843390Y-105686666D01*
X140843390Y-105686666D02*
X140986247Y-105686666D01*
X140986247Y-105686666D02*
X141176723Y-105734285D01*
X141176723Y-105734285D02*
X141271961Y-105781904D01*
X141271961Y-105781904D02*
X141367200Y-105877142D01*
X141367200Y-105877142D02*
X141414819Y-106019999D01*
X141414819Y-106019999D02*
X141414819Y-106258094D01*
X140414819Y-104781904D02*
X140414819Y-105258094D01*
X140414819Y-105258094D02*
X140891009Y-105305713D01*
X140891009Y-105305713D02*
X140843390Y-105258094D01*
X140843390Y-105258094D02*
X140795771Y-105162856D01*
X140795771Y-105162856D02*
X140795771Y-104924761D01*
X140795771Y-104924761D02*
X140843390Y-104829523D01*
X140843390Y-104829523D02*
X140891009Y-104781904D01*
X140891009Y-104781904D02*
X140986247Y-104734285D01*
X140986247Y-104734285D02*
X141224342Y-104734285D01*
X141224342Y-104734285D02*
X141319580Y-104781904D01*
X141319580Y-104781904D02*
X141367200Y-104829523D01*
X141367200Y-104829523D02*
X141414819Y-104924761D01*
X141414819Y-104924761D02*
X141414819Y-105162856D01*
X141414819Y-105162856D02*
X141367200Y-105258094D01*
X141367200Y-105258094D02*
X141319580Y-105305713D01*
X135454819Y-120685238D02*
X134978628Y-121018571D01*
X135454819Y-121256666D02*
X134454819Y-121256666D01*
X134454819Y-121256666D02*
X134454819Y-120875714D01*
X134454819Y-120875714D02*
X134502438Y-120780476D01*
X134502438Y-120780476D02*
X134550057Y-120732857D01*
X134550057Y-120732857D02*
X134645295Y-120685238D01*
X134645295Y-120685238D02*
X134788152Y-120685238D01*
X134788152Y-120685238D02*
X134883390Y-120732857D01*
X134883390Y-120732857D02*
X134931009Y-120780476D01*
X134931009Y-120780476D02*
X134978628Y-120875714D01*
X134978628Y-120875714D02*
X134978628Y-121256666D01*
X134454819Y-120399523D02*
X135454819Y-120066190D01*
X135454819Y-120066190D02*
X134454819Y-119732857D01*
X135454819Y-118875714D02*
X135454819Y-119447142D01*
X135454819Y-119161428D02*
X134454819Y-119161428D01*
X134454819Y-119161428D02*
X134597676Y-119256666D01*
X134597676Y-119256666D02*
X134692914Y-119351904D01*
X134692914Y-119351904D02*
X134740533Y-119447142D01*
X135801905Y-71664819D02*
X135801905Y-70664819D01*
X135801905Y-70664819D02*
X136040000Y-70664819D01*
X136040000Y-70664819D02*
X136182857Y-70712438D01*
X136182857Y-70712438D02*
X136278095Y-70807676D01*
X136278095Y-70807676D02*
X136325714Y-70902914D01*
X136325714Y-70902914D02*
X136373333Y-71093390D01*
X136373333Y-71093390D02*
X136373333Y-71236247D01*
X136373333Y-71236247D02*
X136325714Y-71426723D01*
X136325714Y-71426723D02*
X136278095Y-71521961D01*
X136278095Y-71521961D02*
X136182857Y-71617200D01*
X136182857Y-71617200D02*
X136040000Y-71664819D01*
X136040000Y-71664819D02*
X135801905Y-71664819D01*
X137230476Y-70998152D02*
X137230476Y-71664819D01*
X136992381Y-70617200D02*
X136754286Y-71331485D01*
X136754286Y-71331485D02*
X137373333Y-71331485D01*
X140954819Y-78606666D02*
X140478628Y-78939999D01*
X140954819Y-79178094D02*
X139954819Y-79178094D01*
X139954819Y-79178094D02*
X139954819Y-78797142D01*
X139954819Y-78797142D02*
X140002438Y-78701904D01*
X140002438Y-78701904D02*
X140050057Y-78654285D01*
X140050057Y-78654285D02*
X140145295Y-78606666D01*
X140145295Y-78606666D02*
X140288152Y-78606666D01*
X140288152Y-78606666D02*
X140383390Y-78654285D01*
X140383390Y-78654285D02*
X140431009Y-78701904D01*
X140431009Y-78701904D02*
X140478628Y-78797142D01*
X140478628Y-78797142D02*
X140478628Y-79178094D01*
X139954819Y-77701904D02*
X139954819Y-78178094D01*
X139954819Y-78178094D02*
X140431009Y-78225713D01*
X140431009Y-78225713D02*
X140383390Y-78178094D01*
X140383390Y-78178094D02*
X140335771Y-78082856D01*
X140335771Y-78082856D02*
X140335771Y-77844761D01*
X140335771Y-77844761D02*
X140383390Y-77749523D01*
X140383390Y-77749523D02*
X140431009Y-77701904D01*
X140431009Y-77701904D02*
X140526247Y-77654285D01*
X140526247Y-77654285D02*
X140764342Y-77654285D01*
X140764342Y-77654285D02*
X140859580Y-77701904D01*
X140859580Y-77701904D02*
X140907200Y-77749523D01*
X140907200Y-77749523D02*
X140954819Y-77844761D01*
X140954819Y-77844761D02*
X140954819Y-78082856D01*
X140954819Y-78082856D02*
X140907200Y-78178094D01*
X140907200Y-78178094D02*
X140859580Y-78225713D01*
X121954819Y-92166666D02*
X121478628Y-92499999D01*
X121954819Y-92738094D02*
X120954819Y-92738094D01*
X120954819Y-92738094D02*
X120954819Y-92357142D01*
X120954819Y-92357142D02*
X121002438Y-92261904D01*
X121002438Y-92261904D02*
X121050057Y-92214285D01*
X121050057Y-92214285D02*
X121145295Y-92166666D01*
X121145295Y-92166666D02*
X121288152Y-92166666D01*
X121288152Y-92166666D02*
X121383390Y-92214285D01*
X121383390Y-92214285D02*
X121431009Y-92261904D01*
X121431009Y-92261904D02*
X121478628Y-92357142D01*
X121478628Y-92357142D02*
X121478628Y-92738094D01*
X121954819Y-91214285D02*
X121954819Y-91785713D01*
X121954819Y-91499999D02*
X120954819Y-91499999D01*
X120954819Y-91499999D02*
X121097676Y-91595237D01*
X121097676Y-91595237D02*
X121192914Y-91690475D01*
X121192914Y-91690475D02*
X121240533Y-91785713D01*
X154517580Y-90392857D02*
X154565200Y-90440476D01*
X154565200Y-90440476D02*
X154612819Y-90583333D01*
X154612819Y-90583333D02*
X154612819Y-90678571D01*
X154612819Y-90678571D02*
X154565200Y-90821428D01*
X154565200Y-90821428D02*
X154469961Y-90916666D01*
X154469961Y-90916666D02*
X154374723Y-90964285D01*
X154374723Y-90964285D02*
X154184247Y-91011904D01*
X154184247Y-91011904D02*
X154041390Y-91011904D01*
X154041390Y-91011904D02*
X153850914Y-90964285D01*
X153850914Y-90964285D02*
X153755676Y-90916666D01*
X153755676Y-90916666D02*
X153660438Y-90821428D01*
X153660438Y-90821428D02*
X153612819Y-90678571D01*
X153612819Y-90678571D02*
X153612819Y-90583333D01*
X153612819Y-90583333D02*
X153660438Y-90440476D01*
X153660438Y-90440476D02*
X153708057Y-90392857D01*
X154612819Y-89440476D02*
X154612819Y-90011904D01*
X154612819Y-89726190D02*
X153612819Y-89726190D01*
X153612819Y-89726190D02*
X153755676Y-89821428D01*
X153755676Y-89821428D02*
X153850914Y-89916666D01*
X153850914Y-89916666D02*
X153898533Y-90011904D01*
X154612819Y-88964285D02*
X154612819Y-88773809D01*
X154612819Y-88773809D02*
X154565200Y-88678571D01*
X154565200Y-88678571D02*
X154517580Y-88630952D01*
X154517580Y-88630952D02*
X154374723Y-88535714D01*
X154374723Y-88535714D02*
X154184247Y-88488095D01*
X154184247Y-88488095D02*
X153803295Y-88488095D01*
X153803295Y-88488095D02*
X153708057Y-88535714D01*
X153708057Y-88535714D02*
X153660438Y-88583333D01*
X153660438Y-88583333D02*
X153612819Y-88678571D01*
X153612819Y-88678571D02*
X153612819Y-88869047D01*
X153612819Y-88869047D02*
X153660438Y-88964285D01*
X153660438Y-88964285D02*
X153708057Y-89011904D01*
X153708057Y-89011904D02*
X153803295Y-89059523D01*
X153803295Y-89059523D02*
X154041390Y-89059523D01*
X154041390Y-89059523D02*
X154136628Y-89011904D01*
X154136628Y-89011904D02*
X154184247Y-88964285D01*
X154184247Y-88964285D02*
X154231866Y-88869047D01*
X154231866Y-88869047D02*
X154231866Y-88678571D01*
X154231866Y-88678571D02*
X154184247Y-88583333D01*
X154184247Y-88583333D02*
X154136628Y-88535714D01*
X154136628Y-88535714D02*
X154041390Y-88488095D01*
X125359580Y-81666666D02*
X125407200Y-81714285D01*
X125407200Y-81714285D02*
X125454819Y-81857142D01*
X125454819Y-81857142D02*
X125454819Y-81952380D01*
X125454819Y-81952380D02*
X125407200Y-82095237D01*
X125407200Y-82095237D02*
X125311961Y-82190475D01*
X125311961Y-82190475D02*
X125216723Y-82238094D01*
X125216723Y-82238094D02*
X125026247Y-82285713D01*
X125026247Y-82285713D02*
X124883390Y-82285713D01*
X124883390Y-82285713D02*
X124692914Y-82238094D01*
X124692914Y-82238094D02*
X124597676Y-82190475D01*
X124597676Y-82190475D02*
X124502438Y-82095237D01*
X124502438Y-82095237D02*
X124454819Y-81952380D01*
X124454819Y-81952380D02*
X124454819Y-81857142D01*
X124454819Y-81857142D02*
X124502438Y-81714285D01*
X124502438Y-81714285D02*
X124550057Y-81666666D01*
X124454819Y-81333332D02*
X124454819Y-80666666D01*
X124454819Y-80666666D02*
X125454819Y-81095237D01*
X129454819Y-79246666D02*
X128978628Y-79579999D01*
X129454819Y-79818094D02*
X128454819Y-79818094D01*
X128454819Y-79818094D02*
X128454819Y-79437142D01*
X128454819Y-79437142D02*
X128502438Y-79341904D01*
X128502438Y-79341904D02*
X128550057Y-79294285D01*
X128550057Y-79294285D02*
X128645295Y-79246666D01*
X128645295Y-79246666D02*
X128788152Y-79246666D01*
X128788152Y-79246666D02*
X128883390Y-79294285D01*
X128883390Y-79294285D02*
X128931009Y-79341904D01*
X128931009Y-79341904D02*
X128978628Y-79437142D01*
X128978628Y-79437142D02*
X128978628Y-79818094D01*
X128550057Y-78865713D02*
X128502438Y-78818094D01*
X128502438Y-78818094D02*
X128454819Y-78722856D01*
X128454819Y-78722856D02*
X128454819Y-78484761D01*
X128454819Y-78484761D02*
X128502438Y-78389523D01*
X128502438Y-78389523D02*
X128550057Y-78341904D01*
X128550057Y-78341904D02*
X128645295Y-78294285D01*
X128645295Y-78294285D02*
X128740533Y-78294285D01*
X128740533Y-78294285D02*
X128883390Y-78341904D01*
X128883390Y-78341904D02*
X129454819Y-78913332D01*
X129454819Y-78913332D02*
X129454819Y-78294285D01*
X124261905Y-71954819D02*
X124261905Y-70954819D01*
X124261905Y-70954819D02*
X124500000Y-70954819D01*
X124500000Y-70954819D02*
X124642857Y-71002438D01*
X124642857Y-71002438D02*
X124738095Y-71097676D01*
X124738095Y-71097676D02*
X124785714Y-71192914D01*
X124785714Y-71192914D02*
X124833333Y-71383390D01*
X124833333Y-71383390D02*
X124833333Y-71526247D01*
X124833333Y-71526247D02*
X124785714Y-71716723D01*
X124785714Y-71716723D02*
X124738095Y-71811961D01*
X124738095Y-71811961D02*
X124642857Y-71907200D01*
X124642857Y-71907200D02*
X124500000Y-71954819D01*
X124500000Y-71954819D02*
X124261905Y-71954819D01*
X125214286Y-71050057D02*
X125261905Y-71002438D01*
X125261905Y-71002438D02*
X125357143Y-70954819D01*
X125357143Y-70954819D02*
X125595238Y-70954819D01*
X125595238Y-70954819D02*
X125690476Y-71002438D01*
X125690476Y-71002438D02*
X125738095Y-71050057D01*
X125738095Y-71050057D02*
X125785714Y-71145295D01*
X125785714Y-71145295D02*
X125785714Y-71240533D01*
X125785714Y-71240533D02*
X125738095Y-71383390D01*
X125738095Y-71383390D02*
X125166667Y-71954819D01*
X125166667Y-71954819D02*
X125785714Y-71954819D01*
X164098095Y-87094819D02*
X164098095Y-87904342D01*
X164098095Y-87904342D02*
X164145714Y-87999580D01*
X164145714Y-87999580D02*
X164193333Y-88047200D01*
X164193333Y-88047200D02*
X164288571Y-88094819D01*
X164288571Y-88094819D02*
X164479047Y-88094819D01*
X164479047Y-88094819D02*
X164574285Y-88047200D01*
X164574285Y-88047200D02*
X164621904Y-87999580D01*
X164621904Y-87999580D02*
X164669523Y-87904342D01*
X164669523Y-87904342D02*
X164669523Y-87094819D01*
X165098095Y-87190057D02*
X165145714Y-87142438D01*
X165145714Y-87142438D02*
X165240952Y-87094819D01*
X165240952Y-87094819D02*
X165479047Y-87094819D01*
X165479047Y-87094819D02*
X165574285Y-87142438D01*
X165574285Y-87142438D02*
X165621904Y-87190057D01*
X165621904Y-87190057D02*
X165669523Y-87285295D01*
X165669523Y-87285295D02*
X165669523Y-87380533D01*
X165669523Y-87380533D02*
X165621904Y-87523390D01*
X165621904Y-87523390D02*
X165050476Y-88094819D01*
X165050476Y-88094819D02*
X165669523Y-88094819D01*
X168670000Y-92352619D02*
X168670000Y-92590714D01*
X168431905Y-92495476D02*
X168670000Y-92590714D01*
X168670000Y-92590714D02*
X168908095Y-92495476D01*
X168527143Y-92781190D02*
X168670000Y-92590714D01*
X168670000Y-92590714D02*
X168812857Y-92781190D01*
X168669999Y-93442980D02*
X168669999Y-93204885D01*
X168908094Y-93300123D02*
X168669999Y-93204885D01*
X168669999Y-93204885D02*
X168431904Y-93300123D01*
X168812856Y-93014409D02*
X168669999Y-93204885D01*
X168669999Y-93204885D02*
X168527142Y-93014409D01*
X181859580Y-64642857D02*
X181907200Y-64690476D01*
X181907200Y-64690476D02*
X181954819Y-64833333D01*
X181954819Y-64833333D02*
X181954819Y-64928571D01*
X181954819Y-64928571D02*
X181907200Y-65071428D01*
X181907200Y-65071428D02*
X181811961Y-65166666D01*
X181811961Y-65166666D02*
X181716723Y-65214285D01*
X181716723Y-65214285D02*
X181526247Y-65261904D01*
X181526247Y-65261904D02*
X181383390Y-65261904D01*
X181383390Y-65261904D02*
X181192914Y-65214285D01*
X181192914Y-65214285D02*
X181097676Y-65166666D01*
X181097676Y-65166666D02*
X181002438Y-65071428D01*
X181002438Y-65071428D02*
X180954819Y-64928571D01*
X180954819Y-64928571D02*
X180954819Y-64833333D01*
X180954819Y-64833333D02*
X181002438Y-64690476D01*
X181002438Y-64690476D02*
X181050057Y-64642857D01*
X181050057Y-64261904D02*
X181002438Y-64214285D01*
X181002438Y-64214285D02*
X180954819Y-64119047D01*
X180954819Y-64119047D02*
X180954819Y-63880952D01*
X180954819Y-63880952D02*
X181002438Y-63785714D01*
X181002438Y-63785714D02*
X181050057Y-63738095D01*
X181050057Y-63738095D02*
X181145295Y-63690476D01*
X181145295Y-63690476D02*
X181240533Y-63690476D01*
X181240533Y-63690476D02*
X181383390Y-63738095D01*
X181383390Y-63738095D02*
X181954819Y-64309523D01*
X181954819Y-64309523D02*
X181954819Y-63690476D01*
X180954819Y-63357142D02*
X180954819Y-62690476D01*
X180954819Y-62690476D02*
X181954819Y-63119047D01*
D10*
X118438094Y-129242580D02*
X118438094Y-130242580D01*
X118438094Y-129766390D02*
X117866666Y-129766390D01*
X117866666Y-129242580D02*
X117866666Y-130242580D01*
X117438094Y-129290200D02*
X117295237Y-129242580D01*
X117295237Y-129242580D02*
X117057142Y-129242580D01*
X117057142Y-129242580D02*
X116961904Y-129290200D01*
X116961904Y-129290200D02*
X116914285Y-129337819D01*
X116914285Y-129337819D02*
X116866666Y-129433057D01*
X116866666Y-129433057D02*
X116866666Y-129528295D01*
X116866666Y-129528295D02*
X116914285Y-129623533D01*
X116914285Y-129623533D02*
X116961904Y-129671152D01*
X116961904Y-129671152D02*
X117057142Y-129718771D01*
X117057142Y-129718771D02*
X117247618Y-129766390D01*
X117247618Y-129766390D02*
X117342856Y-129814009D01*
X117342856Y-129814009D02*
X117390475Y-129861628D01*
X117390475Y-129861628D02*
X117438094Y-129956866D01*
X117438094Y-129956866D02*
X117438094Y-130052104D01*
X117438094Y-130052104D02*
X117390475Y-130147342D01*
X117390475Y-130147342D02*
X117342856Y-130194961D01*
X117342856Y-130194961D02*
X117247618Y-130242580D01*
X117247618Y-130242580D02*
X117009523Y-130242580D01*
X117009523Y-130242580D02*
X116866666Y-130194961D01*
X115914285Y-129242580D02*
X116485713Y-129242580D01*
X116199999Y-129242580D02*
X116199999Y-130242580D01*
X116199999Y-130242580D02*
X116295237Y-130099723D01*
X116295237Y-130099723D02*
X116390475Y-130004485D01*
X116390475Y-130004485D02*
X116485713Y-129956866D01*
D12*
X133494819Y-107166666D02*
X133018628Y-107499999D01*
X133494819Y-107738094D02*
X132494819Y-107738094D01*
X132494819Y-107738094D02*
X132494819Y-107357142D01*
X132494819Y-107357142D02*
X132542438Y-107261904D01*
X132542438Y-107261904D02*
X132590057Y-107214285D01*
X132590057Y-107214285D02*
X132685295Y-107166666D01*
X132685295Y-107166666D02*
X132828152Y-107166666D01*
X132828152Y-107166666D02*
X132923390Y-107214285D01*
X132923390Y-107214285D02*
X132971009Y-107261904D01*
X132971009Y-107261904D02*
X133018628Y-107357142D01*
X133018628Y-107357142D02*
X133018628Y-107738094D01*
X132828152Y-106309523D02*
X133494819Y-106309523D01*
X132447200Y-106547618D02*
X133161485Y-106785713D01*
X133161485Y-106785713D02*
X133161485Y-106166666D01*
X148821779Y-127514819D02*
X148821779Y-128229104D01*
X148821779Y-128229104D02*
X148774160Y-128371961D01*
X148774160Y-128371961D02*
X148678922Y-128467200D01*
X148678922Y-128467200D02*
X148536065Y-128514819D01*
X148536065Y-128514819D02*
X148440827Y-128514819D01*
X149202732Y-127514819D02*
X149821779Y-127514819D01*
X149821779Y-127514819D02*
X149488446Y-127895771D01*
X149488446Y-127895771D02*
X149631303Y-127895771D01*
X149631303Y-127895771D02*
X149726541Y-127943390D01*
X149726541Y-127943390D02*
X149774160Y-127991009D01*
X149774160Y-127991009D02*
X149821779Y-128086247D01*
X149821779Y-128086247D02*
X149821779Y-128324342D01*
X149821779Y-128324342D02*
X149774160Y-128419580D01*
X149774160Y-128419580D02*
X149726541Y-128467200D01*
X149726541Y-128467200D02*
X149631303Y-128514819D01*
X149631303Y-128514819D02*
X149345589Y-128514819D01*
X149345589Y-128514819D02*
X149250351Y-128467200D01*
X149250351Y-128467200D02*
X149202732Y-128419580D01*
D10*
G36*
X109863691Y-69380638D02*
G01*
X108541469Y-69380638D01*
X108541469Y-68651905D01*
X108652580Y-68651905D01*
X108652580Y-69223333D01*
X108656386Y-69242467D01*
X108683446Y-69269527D01*
X108721714Y-69269527D01*
X108748774Y-69242467D01*
X108752580Y-69223333D01*
X108752580Y-68987619D01*
X109702580Y-68987619D01*
X109721714Y-68983813D01*
X109725354Y-68980172D01*
X109730402Y-68979163D01*
X109738479Y-68967047D01*
X109748774Y-68956753D01*
X109748774Y-68951606D01*
X109751630Y-68947323D01*
X109748774Y-68933044D01*
X109748774Y-68918485D01*
X109745133Y-68914844D01*
X109744124Y-68909797D01*
X109730315Y-68896017D01*
X109591574Y-68803522D01*
X109505578Y-68717526D01*
X109461587Y-68629544D01*
X109449626Y-68614132D01*
X109413321Y-68602031D01*
X109379093Y-68619145D01*
X109366992Y-68655450D01*
X109372145Y-68674266D01*
X109419763Y-68769503D01*
X109424678Y-68775836D01*
X109429130Y-68782498D01*
X109524368Y-68877736D01*
X109528481Y-68880484D01*
X109531988Y-68883984D01*
X109537441Y-68887619D01*
X108752580Y-68887619D01*
X108752580Y-68651905D01*
X108748774Y-68632771D01*
X108721714Y-68605711D01*
X108683446Y-68605711D01*
X108656386Y-68632771D01*
X108652580Y-68651905D01*
X108541469Y-68651905D01*
X108541469Y-67706109D01*
X108653016Y-67706109D01*
X108659209Y-67716807D01*
X108662074Y-67728837D01*
X108668443Y-67732756D01*
X108672190Y-67739228D01*
X108689697Y-67747836D01*
X109222812Y-67890000D01*
X108689697Y-68032164D01*
X108672190Y-68040772D01*
X108668443Y-68047243D01*
X108662074Y-68051163D01*
X108659209Y-68063192D01*
X108653016Y-68073891D01*
X108654942Y-68081114D01*
X108653210Y-68088390D01*
X108659690Y-68098920D01*
X108662876Y-68110866D01*
X108669347Y-68114612D01*
X108673267Y-68120982D01*
X108690999Y-68129116D01*
X109690999Y-68367212D01*
X109710494Y-68367942D01*
X109743086Y-68347885D01*
X109751950Y-68310658D01*
X109731893Y-68278066D01*
X109714161Y-68269932D01*
X108906923Y-68077731D01*
X109429749Y-67938312D01*
X109447257Y-67929704D01*
X109450672Y-67923804D01*
X109456570Y-67920390D01*
X109459918Y-67907833D01*
X109466431Y-67896585D01*
X109464674Y-67890000D01*
X109466431Y-67883415D01*
X109459918Y-67872166D01*
X109456570Y-67859610D01*
X109450672Y-67856195D01*
X109447257Y-67850296D01*
X109429749Y-67841688D01*
X108906923Y-67702268D01*
X109714161Y-67510069D01*
X109731893Y-67501935D01*
X109751950Y-67469343D01*
X109743086Y-67432116D01*
X109710494Y-67412059D01*
X109690999Y-67412789D01*
X108690999Y-67650884D01*
X108673267Y-67659018D01*
X108669347Y-67665387D01*
X108662876Y-67669134D01*
X108659690Y-67681079D01*
X108653210Y-67691610D01*
X108654942Y-67698885D01*
X108653016Y-67706109D01*
X108541469Y-67706109D01*
X108541469Y-66699524D01*
X108652580Y-66699524D01*
X108652580Y-66937619D01*
X108653068Y-66940075D01*
X108652706Y-66941164D01*
X108654822Y-66948891D01*
X108656386Y-66956753D01*
X108657197Y-66957564D01*
X108657859Y-66959980D01*
X108705479Y-67055218D01*
X108710394Y-67061552D01*
X108714845Y-67068212D01*
X108762463Y-67115831D01*
X108769129Y-67120285D01*
X108775458Y-67125197D01*
X108870696Y-67172816D01*
X108873111Y-67173477D01*
X108873923Y-67174289D01*
X108881784Y-67175852D01*
X108889512Y-67177969D01*
X108890600Y-67177606D01*
X108893057Y-67178095D01*
X108988295Y-67178095D01*
X108990751Y-67177606D01*
X108991840Y-67177969D01*
X108999567Y-67175852D01*
X109007429Y-67174289D01*
X109008240Y-67173477D01*
X109010656Y-67172816D01*
X109105893Y-67125198D01*
X109112226Y-67120282D01*
X109118888Y-67115831D01*
X109166507Y-67068213D01*
X109170961Y-67061546D01*
X109175873Y-67055218D01*
X109223492Y-66959980D01*
X109224938Y-66954698D01*
X109227278Y-66949746D01*
X109273566Y-66764594D01*
X109315101Y-66681522D01*
X109351246Y-66645378D01*
X109428670Y-66606667D01*
X109500301Y-66606667D01*
X109577724Y-66645378D01*
X109613868Y-66681523D01*
X109652580Y-66758946D01*
X109652580Y-66977125D01*
X109607527Y-67112284D01*
X109605087Y-67131639D01*
X109622201Y-67165868D01*
X109658505Y-67177969D01*
X109692734Y-67160855D01*
X109702395Y-67143906D01*
X109750014Y-67001050D01*
X109751016Y-66993099D01*
X109752580Y-66985238D01*
X109752580Y-66747143D01*
X109752091Y-66744686D01*
X109752454Y-66743598D01*
X109750337Y-66735870D01*
X109748774Y-66728009D01*
X109747962Y-66727197D01*
X109747301Y-66724782D01*
X109699682Y-66629544D01*
X109694770Y-66623215D01*
X109690316Y-66616549D01*
X109642697Y-66568931D01*
X109636035Y-66564479D01*
X109629702Y-66559564D01*
X109534465Y-66511946D01*
X109532049Y-66511284D01*
X109531238Y-66510473D01*
X109523376Y-66508909D01*
X109515649Y-66506793D01*
X109514560Y-66507155D01*
X109512104Y-66506667D01*
X109416866Y-66506667D01*
X109414409Y-66507155D01*
X109413321Y-66506793D01*
X109405593Y-66508909D01*
X109397732Y-66510473D01*
X109396920Y-66511284D01*
X109394505Y-66511946D01*
X109299267Y-66559565D01*
X109292938Y-66564476D01*
X109286272Y-66568931D01*
X109238654Y-66616550D01*
X109234202Y-66623211D01*
X109229287Y-66629545D01*
X109181669Y-66724782D01*
X109180222Y-66730063D01*
X109177883Y-66735016D01*
X109131595Y-66920166D01*
X109090059Y-67003238D01*
X109053915Y-67039383D01*
X108976492Y-67078095D01*
X108904861Y-67078095D01*
X108827437Y-67039383D01*
X108791292Y-67003239D01*
X108752580Y-66925815D01*
X108752580Y-66707638D01*
X108797634Y-66572479D01*
X108800074Y-66553123D01*
X108782960Y-66518894D01*
X108746656Y-66506793D01*
X108712427Y-66523907D01*
X108702766Y-66540855D01*
X108655146Y-66683712D01*
X108654143Y-66691662D01*
X108652580Y-66699524D01*
X108541469Y-66699524D01*
X108541469Y-66395556D01*
X109863691Y-66395556D01*
X109863691Y-69380638D01*
G37*
X148238095Y-72909800D02*
X148380952Y-72957419D01*
X148380952Y-72957419D02*
X148619047Y-72957419D01*
X148619047Y-72957419D02*
X148714285Y-72909800D01*
X148714285Y-72909800D02*
X148761904Y-72862180D01*
X148761904Y-72862180D02*
X148809523Y-72766942D01*
X148809523Y-72766942D02*
X148809523Y-72671704D01*
X148809523Y-72671704D02*
X148761904Y-72576466D01*
X148761904Y-72576466D02*
X148714285Y-72528847D01*
X148714285Y-72528847D02*
X148619047Y-72481228D01*
X148619047Y-72481228D02*
X148428571Y-72433609D01*
X148428571Y-72433609D02*
X148333333Y-72385990D01*
X148333333Y-72385990D02*
X148285714Y-72338371D01*
X148285714Y-72338371D02*
X148238095Y-72243133D01*
X148238095Y-72243133D02*
X148238095Y-72147895D01*
X148238095Y-72147895D02*
X148285714Y-72052657D01*
X148285714Y-72052657D02*
X148333333Y-72005038D01*
X148333333Y-72005038D02*
X148428571Y-71957419D01*
X148428571Y-71957419D02*
X148666666Y-71957419D01*
X148666666Y-71957419D02*
X148809523Y-72005038D01*
X149571428Y-72433609D02*
X149714285Y-72481228D01*
X149714285Y-72481228D02*
X149761904Y-72528847D01*
X149761904Y-72528847D02*
X149809523Y-72624085D01*
X149809523Y-72624085D02*
X149809523Y-72766942D01*
X149809523Y-72766942D02*
X149761904Y-72862180D01*
X149761904Y-72862180D02*
X149714285Y-72909800D01*
X149714285Y-72909800D02*
X149619047Y-72957419D01*
X149619047Y-72957419D02*
X149238095Y-72957419D01*
X149238095Y-72957419D02*
X149238095Y-71957419D01*
X149238095Y-71957419D02*
X149571428Y-71957419D01*
X149571428Y-71957419D02*
X149666666Y-72005038D01*
X149666666Y-72005038D02*
X149714285Y-72052657D01*
X149714285Y-72052657D02*
X149761904Y-72147895D01*
X149761904Y-72147895D02*
X149761904Y-72243133D01*
X149761904Y-72243133D02*
X149714285Y-72338371D01*
X149714285Y-72338371D02*
X149666666Y-72385990D01*
X149666666Y-72385990D02*
X149571428Y-72433609D01*
X149571428Y-72433609D02*
X149238095Y-72433609D01*
X150761904Y-72957419D02*
X150190476Y-72957419D01*
X150476190Y-72957419D02*
X150476190Y-71957419D01*
X150476190Y-71957419D02*
X150380952Y-72100276D01*
X150380952Y-72100276D02*
X150285714Y-72195514D01*
X150285714Y-72195514D02*
X150190476Y-72243133D01*
D12*
X148666666Y-57704819D02*
X148666666Y-58419104D01*
X148666666Y-58419104D02*
X148619047Y-58561961D01*
X148619047Y-58561961D02*
X148523809Y-58657200D01*
X148523809Y-58657200D02*
X148380952Y-58704819D01*
X148380952Y-58704819D02*
X148285714Y-58704819D01*
X149095238Y-57800057D02*
X149142857Y-57752438D01*
X149142857Y-57752438D02*
X149238095Y-57704819D01*
X149238095Y-57704819D02*
X149476190Y-57704819D01*
X149476190Y-57704819D02*
X149571428Y-57752438D01*
X149571428Y-57752438D02*
X149619047Y-57800057D01*
X149619047Y-57800057D02*
X149666666Y-57895295D01*
X149666666Y-57895295D02*
X149666666Y-57990533D01*
X149666666Y-57990533D02*
X149619047Y-58133390D01*
X149619047Y-58133390D02*
X149047619Y-58704819D01*
X149047619Y-58704819D02*
X149666666Y-58704819D01*
X159016666Y-127614819D02*
X159016666Y-128329104D01*
X159016666Y-128329104D02*
X158969047Y-128471961D01*
X158969047Y-128471961D02*
X158873809Y-128567200D01*
X158873809Y-128567200D02*
X158730952Y-128614819D01*
X158730952Y-128614819D02*
X158635714Y-128614819D01*
X159969047Y-127614819D02*
X159492857Y-127614819D01*
X159492857Y-127614819D02*
X159445238Y-128091009D01*
X159445238Y-128091009D02*
X159492857Y-128043390D01*
X159492857Y-128043390D02*
X159588095Y-127995771D01*
X159588095Y-127995771D02*
X159826190Y-127995771D01*
X159826190Y-127995771D02*
X159921428Y-128043390D01*
X159921428Y-128043390D02*
X159969047Y-128091009D01*
X159969047Y-128091009D02*
X160016666Y-128186247D01*
X160016666Y-128186247D02*
X160016666Y-128424342D01*
X160016666Y-128424342D02*
X159969047Y-128519580D01*
X159969047Y-128519580D02*
X159921428Y-128567200D01*
X159921428Y-128567200D02*
X159826190Y-128614819D01*
X159826190Y-128614819D02*
X159588095Y-128614819D01*
X159588095Y-128614819D02*
X159492857Y-128567200D01*
X159492857Y-128567200D02*
X159445238Y-128519580D01*
X164559580Y-63742857D02*
X164607200Y-63790476D01*
X164607200Y-63790476D02*
X164654819Y-63933333D01*
X164654819Y-63933333D02*
X164654819Y-64028571D01*
X164654819Y-64028571D02*
X164607200Y-64171428D01*
X164607200Y-64171428D02*
X164511961Y-64266666D01*
X164511961Y-64266666D02*
X164416723Y-64314285D01*
X164416723Y-64314285D02*
X164226247Y-64361904D01*
X164226247Y-64361904D02*
X164083390Y-64361904D01*
X164083390Y-64361904D02*
X163892914Y-64314285D01*
X163892914Y-64314285D02*
X163797676Y-64266666D01*
X163797676Y-64266666D02*
X163702438Y-64171428D01*
X163702438Y-64171428D02*
X163654819Y-64028571D01*
X163654819Y-64028571D02*
X163654819Y-63933333D01*
X163654819Y-63933333D02*
X163702438Y-63790476D01*
X163702438Y-63790476D02*
X163750057Y-63742857D01*
X163750057Y-63361904D02*
X163702438Y-63314285D01*
X163702438Y-63314285D02*
X163654819Y-63219047D01*
X163654819Y-63219047D02*
X163654819Y-62980952D01*
X163654819Y-62980952D02*
X163702438Y-62885714D01*
X163702438Y-62885714D02*
X163750057Y-62838095D01*
X163750057Y-62838095D02*
X163845295Y-62790476D01*
X163845295Y-62790476D02*
X163940533Y-62790476D01*
X163940533Y-62790476D02*
X164083390Y-62838095D01*
X164083390Y-62838095D02*
X164654819Y-63409523D01*
X164654819Y-63409523D02*
X164654819Y-62790476D01*
X163988152Y-61933333D02*
X164654819Y-61933333D01*
X163607200Y-62171428D02*
X164321485Y-62409523D01*
X164321485Y-62409523D02*
X164321485Y-61790476D01*
X108859580Y-99666666D02*
X108907200Y-99714285D01*
X108907200Y-99714285D02*
X108954819Y-99857142D01*
X108954819Y-99857142D02*
X108954819Y-99952380D01*
X108954819Y-99952380D02*
X108907200Y-100095237D01*
X108907200Y-100095237D02*
X108811961Y-100190475D01*
X108811961Y-100190475D02*
X108716723Y-100238094D01*
X108716723Y-100238094D02*
X108526247Y-100285713D01*
X108526247Y-100285713D02*
X108383390Y-100285713D01*
X108383390Y-100285713D02*
X108192914Y-100238094D01*
X108192914Y-100238094D02*
X108097676Y-100190475D01*
X108097676Y-100190475D02*
X108002438Y-100095237D01*
X108002438Y-100095237D02*
X107954819Y-99952380D01*
X107954819Y-99952380D02*
X107954819Y-99857142D01*
X107954819Y-99857142D02*
X108002438Y-99714285D01*
X108002438Y-99714285D02*
X108050057Y-99666666D01*
X108288152Y-98809523D02*
X108954819Y-98809523D01*
X107907200Y-99047618D02*
X108621485Y-99285713D01*
X108621485Y-99285713D02*
X108621485Y-98666666D01*
X154167580Y-100342857D02*
X154215200Y-100390476D01*
X154215200Y-100390476D02*
X154262819Y-100533333D01*
X154262819Y-100533333D02*
X154262819Y-100628571D01*
X154262819Y-100628571D02*
X154215200Y-100771428D01*
X154215200Y-100771428D02*
X154119961Y-100866666D01*
X154119961Y-100866666D02*
X154024723Y-100914285D01*
X154024723Y-100914285D02*
X153834247Y-100961904D01*
X153834247Y-100961904D02*
X153691390Y-100961904D01*
X153691390Y-100961904D02*
X153500914Y-100914285D01*
X153500914Y-100914285D02*
X153405676Y-100866666D01*
X153405676Y-100866666D02*
X153310438Y-100771428D01*
X153310438Y-100771428D02*
X153262819Y-100628571D01*
X153262819Y-100628571D02*
X153262819Y-100533333D01*
X153262819Y-100533333D02*
X153310438Y-100390476D01*
X153310438Y-100390476D02*
X153358057Y-100342857D01*
X154262819Y-99390476D02*
X154262819Y-99961904D01*
X154262819Y-99676190D02*
X153262819Y-99676190D01*
X153262819Y-99676190D02*
X153405676Y-99771428D01*
X153405676Y-99771428D02*
X153500914Y-99866666D01*
X153500914Y-99866666D02*
X153548533Y-99961904D01*
X153262819Y-99057142D02*
X153262819Y-98390476D01*
X153262819Y-98390476D02*
X154262819Y-98819047D01*
X122963333Y-109479580D02*
X122915714Y-109527200D01*
X122915714Y-109527200D02*
X122772857Y-109574819D01*
X122772857Y-109574819D02*
X122677619Y-109574819D01*
X122677619Y-109574819D02*
X122534762Y-109527200D01*
X122534762Y-109527200D02*
X122439524Y-109431961D01*
X122439524Y-109431961D02*
X122391905Y-109336723D01*
X122391905Y-109336723D02*
X122344286Y-109146247D01*
X122344286Y-109146247D02*
X122344286Y-109003390D01*
X122344286Y-109003390D02*
X122391905Y-108812914D01*
X122391905Y-108812914D02*
X122439524Y-108717676D01*
X122439524Y-108717676D02*
X122534762Y-108622438D01*
X122534762Y-108622438D02*
X122677619Y-108574819D01*
X122677619Y-108574819D02*
X122772857Y-108574819D01*
X122772857Y-108574819D02*
X122915714Y-108622438D01*
X122915714Y-108622438D02*
X122963333Y-108670057D01*
X123868095Y-108574819D02*
X123391905Y-108574819D01*
X123391905Y-108574819D02*
X123344286Y-109051009D01*
X123344286Y-109051009D02*
X123391905Y-109003390D01*
X123391905Y-109003390D02*
X123487143Y-108955771D01*
X123487143Y-108955771D02*
X123725238Y-108955771D01*
X123725238Y-108955771D02*
X123820476Y-109003390D01*
X123820476Y-109003390D02*
X123868095Y-109051009D01*
X123868095Y-109051009D02*
X123915714Y-109146247D01*
X123915714Y-109146247D02*
X123915714Y-109384342D01*
X123915714Y-109384342D02*
X123868095Y-109479580D01*
X123868095Y-109479580D02*
X123820476Y-109527200D01*
X123820476Y-109527200D02*
X123725238Y-109574819D01*
X123725238Y-109574819D02*
X123487143Y-109574819D01*
X123487143Y-109574819D02*
X123391905Y-109527200D01*
X123391905Y-109527200D02*
X123344286Y-109479580D01*
X129333333Y-72094934D02*
X129285714Y-72142554D01*
X129285714Y-72142554D02*
X129142857Y-72190173D01*
X129142857Y-72190173D02*
X129047619Y-72190173D01*
X129047619Y-72190173D02*
X128904762Y-72142554D01*
X128904762Y-72142554D02*
X128809524Y-72047315D01*
X128809524Y-72047315D02*
X128761905Y-71952077D01*
X128761905Y-71952077D02*
X128714286Y-71761601D01*
X128714286Y-71761601D02*
X128714286Y-71618744D01*
X128714286Y-71618744D02*
X128761905Y-71428268D01*
X128761905Y-71428268D02*
X128809524Y-71333030D01*
X128809524Y-71333030D02*
X128904762Y-71237792D01*
X128904762Y-71237792D02*
X129047619Y-71190173D01*
X129047619Y-71190173D02*
X129142857Y-71190173D01*
X129142857Y-71190173D02*
X129285714Y-71237792D01*
X129285714Y-71237792D02*
X129333333Y-71285411D01*
X129904762Y-71618744D02*
X129809524Y-71571125D01*
X129809524Y-71571125D02*
X129761905Y-71523506D01*
X129761905Y-71523506D02*
X129714286Y-71428268D01*
X129714286Y-71428268D02*
X129714286Y-71380649D01*
X129714286Y-71380649D02*
X129761905Y-71285411D01*
X129761905Y-71285411D02*
X129809524Y-71237792D01*
X129809524Y-71237792D02*
X129904762Y-71190173D01*
X129904762Y-71190173D02*
X130095238Y-71190173D01*
X130095238Y-71190173D02*
X130190476Y-71237792D01*
X130190476Y-71237792D02*
X130238095Y-71285411D01*
X130238095Y-71285411D02*
X130285714Y-71380649D01*
X130285714Y-71380649D02*
X130285714Y-71428268D01*
X130285714Y-71428268D02*
X130238095Y-71523506D01*
X130238095Y-71523506D02*
X130190476Y-71571125D01*
X130190476Y-71571125D02*
X130095238Y-71618744D01*
X130095238Y-71618744D02*
X129904762Y-71618744D01*
X129904762Y-71618744D02*
X129809524Y-71666363D01*
X129809524Y-71666363D02*
X129761905Y-71713982D01*
X129761905Y-71713982D02*
X129714286Y-71809220D01*
X129714286Y-71809220D02*
X129714286Y-71999696D01*
X129714286Y-71999696D02*
X129761905Y-72094934D01*
X129761905Y-72094934D02*
X129809524Y-72142554D01*
X129809524Y-72142554D02*
X129904762Y-72190173D01*
X129904762Y-72190173D02*
X130095238Y-72190173D01*
X130095238Y-72190173D02*
X130190476Y-72142554D01*
X130190476Y-72142554D02*
X130238095Y-72094934D01*
X130238095Y-72094934D02*
X130285714Y-71999696D01*
X130285714Y-71999696D02*
X130285714Y-71809220D01*
X130285714Y-71809220D02*
X130238095Y-71713982D01*
X130238095Y-71713982D02*
X130190476Y-71666363D01*
X130190476Y-71666363D02*
X130095238Y-71618744D01*
D14*
%TO.C,C13*%
X141030000Y-114580000D02*
X141724000Y-114580000D01*
X141030000Y-119920000D02*
X141030000Y-114580000D01*
X141724000Y-119920000D02*
X141030000Y-119920000D01*
X143776000Y-114580000D02*
X144470000Y-114580000D01*
X144470000Y-114580000D02*
X144470000Y-119920000D01*
X144470000Y-119920000D02*
X143776000Y-119920000D01*
%TO.C,C26*%
X175030000Y-61330000D02*
X175724000Y-61330000D01*
X175030000Y-66670000D02*
X175030000Y-61330000D01*
X175724000Y-66670000D02*
X175030000Y-66670000D01*
X177776000Y-61330000D02*
X178470000Y-61330000D01*
X178470000Y-61330000D02*
X178470000Y-66670000D01*
X178470000Y-66670000D02*
X177776000Y-66670000D01*
%TO.C,C15*%
X140605113Y-124533000D02*
X140605113Y-123967000D01*
X140645113Y-124767000D02*
X140645113Y-123733000D01*
X140685113Y-124927000D02*
X140685113Y-123573000D01*
X140725113Y-125055000D02*
X140725113Y-123445000D01*
X140765113Y-125164000D02*
X140765113Y-123336000D01*
X140805113Y-125261000D02*
X140805113Y-123239000D01*
X140845113Y-125348000D02*
X140845113Y-123152000D01*
X140885113Y-125427000D02*
X140885113Y-123073000D01*
X140925113Y-123210000D02*
X140925113Y-122999000D01*
X140925113Y-125501000D02*
X140925113Y-125290000D01*
X140965113Y-123210000D02*
X140965113Y-122931000D01*
X140965113Y-125569000D02*
X140965113Y-125290000D01*
X141005113Y-123210000D02*
X141005113Y-122867000D01*
X141005113Y-125633000D02*
X141005113Y-125290000D01*
X141045113Y-123210000D02*
X141045113Y-122807000D01*
X141045113Y-125693000D02*
X141045113Y-125290000D01*
X141085113Y-123210000D02*
X141085113Y-122751000D01*
X141085113Y-125749000D02*
X141085113Y-125290000D01*
X141125113Y-123210000D02*
X141125113Y-122697000D01*
X141125113Y-125803000D02*
X141125113Y-125290000D01*
X141165113Y-123210000D02*
X141165113Y-122646000D01*
X141165113Y-125854000D02*
X141165113Y-125290000D01*
X141205113Y-123210000D02*
X141205113Y-122598000D01*
X141205113Y-125902000D02*
X141205113Y-125290000D01*
X141245113Y-123210000D02*
X141245113Y-122551000D01*
X141245113Y-125949000D02*
X141245113Y-125290000D01*
X141285113Y-123210000D02*
X141285113Y-122507000D01*
X141285113Y-125993000D02*
X141285113Y-125290000D01*
X141325113Y-123210000D02*
X141325113Y-122465000D01*
X141325113Y-126035000D02*
X141325113Y-125290000D01*
X141365113Y-123210000D02*
X141365113Y-122425000D01*
X141365113Y-126075000D02*
X141365113Y-125290000D01*
X141405113Y-123210000D02*
X141405113Y-122386000D01*
X141405113Y-126114000D02*
X141405113Y-125290000D01*
X141445113Y-123210000D02*
X141445113Y-122349000D01*
X141445113Y-126151000D02*
X141445113Y-125290000D01*
X141485113Y-123210000D02*
X141485113Y-122314000D01*
X141485113Y-126186000D02*
X141485113Y-125290000D01*
X141525113Y-123210000D02*
X141525113Y-122280000D01*
X141525113Y-126220000D02*
X141525113Y-125290000D01*
X141565113Y-123210000D02*
X141565113Y-122247000D01*
X141565113Y-126253000D02*
X141565113Y-125290000D01*
X141605113Y-123210000D02*
X141605113Y-122215000D01*
X141605113Y-126285000D02*
X141605113Y-125290000D01*
X141645113Y-123210000D02*
X141645113Y-122185000D01*
X141645113Y-126315000D02*
X141645113Y-125290000D01*
X141685113Y-123210000D02*
X141685113Y-122156000D01*
X141685113Y-126344000D02*
X141685113Y-125290000D01*
X141725113Y-123210000D02*
X141725113Y-122128000D01*
X141725113Y-126372000D02*
X141725113Y-125290000D01*
X141765113Y-123210000D02*
X141765113Y-122101000D01*
X141765113Y-126399000D02*
X141765113Y-125290000D01*
X141805113Y-123210000D02*
X141805113Y-122075000D01*
X141805113Y-126425000D02*
X141805113Y-125290000D01*
X141845113Y-123210000D02*
X141845113Y-122051000D01*
X141845113Y-126449000D02*
X141845113Y-125290000D01*
X141885113Y-123210000D02*
X141885113Y-122027000D01*
X141885113Y-126473000D02*
X141885113Y-125290000D01*
X141925113Y-123210000D02*
X141925113Y-122004000D01*
X141925113Y-126496000D02*
X141925113Y-125290000D01*
X141965113Y-123210000D02*
X141965113Y-121982000D01*
X141965113Y-126518000D02*
X141965113Y-125290000D01*
X142005113Y-123210000D02*
X142005113Y-121961000D01*
X142005113Y-126539000D02*
X142005113Y-125290000D01*
X142045113Y-123210000D02*
X142045113Y-121941000D01*
X142045113Y-126559000D02*
X142045113Y-125290000D01*
X142085113Y-123210000D02*
X142085113Y-121921000D01*
X142085113Y-126579000D02*
X142085113Y-125290000D01*
X142125113Y-123210000D02*
X142125113Y-121903000D01*
X142125113Y-126597000D02*
X142125113Y-125290000D01*
X142165113Y-123210000D02*
X142165113Y-121885000D01*
X142165113Y-126615000D02*
X142165113Y-125290000D01*
X142205113Y-123210000D02*
X142205113Y-121868000D01*
X142205113Y-126632000D02*
X142205113Y-125290000D01*
X142245113Y-123210000D02*
X142245113Y-121852000D01*
X142245113Y-126648000D02*
X142245113Y-125290000D01*
X142285113Y-123210000D02*
X142285113Y-121837000D01*
X142285113Y-126663000D02*
X142285113Y-125290000D01*
X142325113Y-123210000D02*
X142325113Y-121822000D01*
X142325113Y-126678000D02*
X142325113Y-125290000D01*
X142365113Y-123210000D02*
X142365113Y-121808000D01*
X142365113Y-126692000D02*
X142365113Y-125290000D01*
X142405113Y-123210000D02*
X142405113Y-121795000D01*
X142405113Y-126705000D02*
X142405113Y-125290000D01*
X142445113Y-123210000D02*
X142445113Y-121783000D01*
X142445113Y-126717000D02*
X142445113Y-125290000D01*
X142485113Y-123210000D02*
X142485113Y-121771000D01*
X142485113Y-126729000D02*
X142485113Y-125290000D01*
X142525113Y-123210000D02*
X142525113Y-121760000D01*
X142525113Y-126740000D02*
X142525113Y-125290000D01*
X142565113Y-123210000D02*
X142565113Y-121749000D01*
X142565113Y-126751000D02*
X142565113Y-125290000D01*
X142605113Y-123210000D02*
X142605113Y-121740000D01*
X142605113Y-126760000D02*
X142605113Y-125290000D01*
X142645113Y-123210000D02*
X142645113Y-121731000D01*
X142645113Y-126769000D02*
X142645113Y-125290000D01*
X142685113Y-123210000D02*
X142685113Y-121722000D01*
X142685113Y-126778000D02*
X142685113Y-125290000D01*
X142725113Y-123210000D02*
X142725113Y-121714000D01*
X142725113Y-126786000D02*
X142725113Y-125290000D01*
X142765113Y-123210000D02*
X142765113Y-121707000D01*
X142765113Y-126793000D02*
X142765113Y-125290000D01*
X142805113Y-123210000D02*
X142805113Y-121701000D01*
X142805113Y-126799000D02*
X142805113Y-125290000D01*
X142845113Y-123210000D02*
X142845113Y-121695000D01*
X142845113Y-126805000D02*
X142845113Y-125290000D01*
X142885113Y-123210000D02*
X142885113Y-121690000D01*
X142885113Y-126810000D02*
X142885113Y-125290000D01*
X142925113Y-123210000D02*
X142925113Y-121685000D01*
X142925113Y-126815000D02*
X142925113Y-125290000D01*
X142965113Y-123210000D02*
X142965113Y-121681000D01*
X142965113Y-126819000D02*
X142965113Y-125290000D01*
X143005113Y-126822000D02*
X143005113Y-121678000D01*
X143045113Y-126825000D02*
X143045113Y-121675000D01*
X143085113Y-126827000D02*
X143085113Y-121673000D01*
X143125113Y-126829000D02*
X143125113Y-121671000D01*
X143165113Y-126830000D02*
X143165113Y-121670000D01*
X143205113Y-126830000D02*
X143205113Y-121670000D01*
X145759888Y-125975000D02*
X145759888Y-125475000D01*
X146009888Y-125725000D02*
X145509888Y-125725000D01*
X145825113Y-124250000D02*
G75*
G02*
X140585113Y-124250000I-2620000J0D01*
G01*
X140585113Y-124250000D02*
G75*
G02*
X145825113Y-124250000I2620000J0D01*
G01*
%TO.C,J1*%
X101790000Y-82790000D02*
X107210000Y-82790000D01*
X101790000Y-91510000D02*
X101790000Y-82790000D01*
X103090000Y-93210000D02*
X101790000Y-91510000D01*
X103090000Y-93210000D02*
X105910000Y-93210000D01*
X105910000Y-93210000D02*
X107210000Y-91510000D01*
X107210000Y-91510000D02*
X107210000Y-82790000D01*
%TO.C,R6*%
X143070000Y-102860000D02*
X143070000Y-103630000D01*
X143070000Y-110940000D02*
X143070000Y-110170000D01*
X144440000Y-103630000D02*
X141700000Y-103630000D01*
X141700000Y-110170000D01*
X144440000Y-110170000D01*
X144440000Y-103630000D01*
%TO.C,C9*%
X134780000Y-78330000D02*
X135474000Y-78330000D01*
X134780000Y-83670000D02*
X134780000Y-78330000D01*
X135474000Y-83670000D02*
X134780000Y-83670000D01*
X137526000Y-78330000D02*
X138220000Y-78330000D01*
X138220000Y-78330000D02*
X138220000Y-83670000D01*
X138220000Y-83670000D02*
X137526000Y-83670000D01*
%TO.C,C25*%
X166280000Y-60430000D02*
X166974000Y-60430000D01*
X166280000Y-65770000D02*
X166280000Y-60430000D01*
X166974000Y-65770000D02*
X166280000Y-65770000D01*
X169026000Y-60430000D02*
X169720000Y-60430000D01*
X169720000Y-60430000D02*
X169720000Y-65770000D01*
X169720000Y-65770000D02*
X169026000Y-65770000D01*
D11*
%TO.C,IC2*%
X167865000Y-68005000D02*
X161215000Y-68005000D01*
X168950000Y-77915000D02*
X161215000Y-77915000D01*
%TO.C,SW2*%
D10*
X106500000Y-73700000D02*
X122500000Y-73700000D01*
X122500000Y-82100000D01*
X106500000Y-82100000D01*
X106500000Y-73700000D01*
D14*
%TO.C,D1*%
X116110000Y-103320000D02*
X116110000Y-108760000D01*
X116110000Y-108760000D02*
X116440000Y-108760000D01*
X116440000Y-103320000D02*
X116110000Y-103320000D01*
X118720000Y-103320000D02*
X119050000Y-103320000D01*
X119050000Y-103320000D02*
X119050000Y-108760000D01*
X119050000Y-104100000D02*
X116110000Y-104100000D01*
X119050000Y-104220000D02*
X116110000Y-104220000D01*
X119050000Y-104340000D02*
X116110000Y-104340000D01*
X119050000Y-108760000D02*
X118720000Y-108760000D01*
%TO.C,U4*%
X112440000Y-114340000D02*
X122660000Y-114340000D01*
X112440000Y-118960000D02*
X112440000Y-114340000D01*
X115700000Y-118960000D02*
X115700000Y-117580000D01*
X119400000Y-118960000D02*
X119400000Y-117580000D01*
X122660000Y-114340000D02*
X122660000Y-118960000D01*
X122660000Y-117580000D02*
X112440000Y-117580000D01*
X122660000Y-118960000D02*
X112440000Y-118960000D01*
%TO.C,C20*%
X153880000Y-76730000D02*
X154574000Y-76730000D01*
X153880000Y-82070000D02*
X153880000Y-76730000D01*
X154574000Y-82070000D02*
X153880000Y-82070000D01*
X156626000Y-76730000D02*
X157320000Y-76730000D01*
X157320000Y-76730000D02*
X157320000Y-82070000D01*
X157320000Y-82070000D02*
X156626000Y-82070000D01*
D11*
%TO.C,IC1*%
X167675000Y-93365000D02*
X161025000Y-93365000D01*
X168760000Y-103275000D02*
X161025000Y-103275000D01*
D14*
%TO.C,C23*%
X156180000Y-86830000D02*
X156874000Y-86830000D01*
X156180000Y-92170000D02*
X156180000Y-86830000D01*
X156874000Y-92170000D02*
X156180000Y-92170000D01*
X158926000Y-86830000D02*
X159620000Y-86830000D01*
X159620000Y-86830000D02*
X159620000Y-92170000D01*
X159620000Y-92170000D02*
X158926000Y-92170000D01*
%TO.C,C22*%
X156080000Y-69280000D02*
X156774000Y-69280000D01*
X156080000Y-74620000D02*
X156080000Y-69280000D01*
X156774000Y-74620000D02*
X156080000Y-74620000D01*
X158826000Y-69280000D02*
X159520000Y-69280000D01*
X159520000Y-69280000D02*
X159520000Y-74620000D01*
X159520000Y-74620000D02*
X158826000Y-74620000D01*
%TO.C,C1*%
X109410000Y-104403000D02*
X109410000Y-103837000D01*
X109450000Y-104637000D02*
X109450000Y-103603000D01*
X109490000Y-104797000D02*
X109490000Y-103443000D01*
X109530000Y-104925000D02*
X109530000Y-103315000D01*
X109570000Y-105034000D02*
X109570000Y-103206000D01*
X109610000Y-105131000D02*
X109610000Y-103109000D01*
X109650000Y-105218000D02*
X109650000Y-103022000D01*
X109690000Y-105297000D02*
X109690000Y-102943000D01*
X109730000Y-103080000D02*
X109730000Y-102869000D01*
X109730000Y-105371000D02*
X109730000Y-105160000D01*
X109770000Y-103080000D02*
X109770000Y-102801000D01*
X109770000Y-105439000D02*
X109770000Y-105160000D01*
X109810000Y-103080000D02*
X109810000Y-102737000D01*
X109810000Y-105503000D02*
X109810000Y-105160000D01*
X109850000Y-103080000D02*
X109850000Y-102677000D01*
X109850000Y-105563000D02*
X109850000Y-105160000D01*
X109890000Y-103080000D02*
X109890000Y-102621000D01*
X109890000Y-105619000D02*
X109890000Y-105160000D01*
X109930000Y-103080000D02*
X109930000Y-102567000D01*
X109930000Y-105673000D02*
X109930000Y-105160000D01*
X109970000Y-103080000D02*
X109970000Y-102516000D01*
X109970000Y-105724000D02*
X109970000Y-105160000D01*
X110010000Y-103080000D02*
X110010000Y-102468000D01*
X110010000Y-105772000D02*
X110010000Y-105160000D01*
X110050000Y-103080000D02*
X110050000Y-102421000D01*
X110050000Y-105819000D02*
X110050000Y-105160000D01*
X110090000Y-103080000D02*
X110090000Y-102377000D01*
X110090000Y-105863000D02*
X110090000Y-105160000D01*
X110130000Y-103080000D02*
X110130000Y-102335000D01*
X110130000Y-105905000D02*
X110130000Y-105160000D01*
X110170000Y-103080000D02*
X110170000Y-102295000D01*
X110170000Y-105945000D02*
X110170000Y-105160000D01*
X110210000Y-103080000D02*
X110210000Y-102256000D01*
X110210000Y-105984000D02*
X110210000Y-105160000D01*
X110250000Y-103080000D02*
X110250000Y-102219000D01*
X110250000Y-106021000D02*
X110250000Y-105160000D01*
X110290000Y-103080000D02*
X110290000Y-102184000D01*
X110290000Y-106056000D02*
X110290000Y-105160000D01*
X110330000Y-103080000D02*
X110330000Y-102150000D01*
X110330000Y-106090000D02*
X110330000Y-105160000D01*
X110370000Y-103080000D02*
X110370000Y-102117000D01*
X110370000Y-106123000D02*
X110370000Y-105160000D01*
X110410000Y-103080000D02*
X110410000Y-102085000D01*
X110410000Y-106155000D02*
X110410000Y-105160000D01*
X110450000Y-103080000D02*
X110450000Y-102055000D01*
X110450000Y-106185000D02*
X110450000Y-105160000D01*
X110490000Y-103080000D02*
X110490000Y-102026000D01*
X110490000Y-106214000D02*
X110490000Y-105160000D01*
X110530000Y-103080000D02*
X110530000Y-101998000D01*
X110530000Y-106242000D02*
X110530000Y-105160000D01*
X110570000Y-103080000D02*
X110570000Y-101971000D01*
X110570000Y-106269000D02*
X110570000Y-105160000D01*
X110610000Y-103080000D02*
X110610000Y-101945000D01*
X110610000Y-106295000D02*
X110610000Y-105160000D01*
X110650000Y-103080000D02*
X110650000Y-101921000D01*
X110650000Y-106319000D02*
X110650000Y-105160000D01*
X110690000Y-103080000D02*
X110690000Y-101897000D01*
X110690000Y-106343000D02*
X110690000Y-105160000D01*
X110730000Y-103080000D02*
X110730000Y-101874000D01*
X110730000Y-106366000D02*
X110730000Y-105160000D01*
X110770000Y-103080000D02*
X110770000Y-101852000D01*
X110770000Y-106388000D02*
X110770000Y-105160000D01*
X110810000Y-103080000D02*
X110810000Y-101831000D01*
X110810000Y-106409000D02*
X110810000Y-105160000D01*
X110850000Y-103080000D02*
X110850000Y-101811000D01*
X110850000Y-106429000D02*
X110850000Y-105160000D01*
X110890000Y-103080000D02*
X110890000Y-101791000D01*
X110890000Y-106449000D02*
X110890000Y-105160000D01*
X110930000Y-103080000D02*
X110930000Y-101773000D01*
X110930000Y-106467000D02*
X110930000Y-105160000D01*
X110970000Y-103080000D02*
X110970000Y-101755000D01*
X110970000Y-106485000D02*
X110970000Y-105160000D01*
X111010000Y-103080000D02*
X111010000Y-101738000D01*
X111010000Y-106502000D02*
X111010000Y-105160000D01*
X111050000Y-103080000D02*
X111050000Y-101722000D01*
X111050000Y-106518000D02*
X111050000Y-105160000D01*
X111090000Y-103080000D02*
X111090000Y-101707000D01*
X111090000Y-106533000D02*
X111090000Y-105160000D01*
X111130000Y-103080000D02*
X111130000Y-101692000D01*
X111130000Y-106548000D02*
X111130000Y-105160000D01*
X111170000Y-103080000D02*
X111170000Y-101678000D01*
X111170000Y-106562000D02*
X111170000Y-105160000D01*
X111210000Y-103080000D02*
X111210000Y-101665000D01*
X111210000Y-106575000D02*
X111210000Y-105160000D01*
X111250000Y-103080000D02*
X111250000Y-101653000D01*
X111250000Y-106587000D02*
X111250000Y-105160000D01*
X111290000Y-103080000D02*
X111290000Y-101641000D01*
X111290000Y-106599000D02*
X111290000Y-105160000D01*
X111330000Y-103080000D02*
X111330000Y-101630000D01*
X111330000Y-106610000D02*
X111330000Y-105160000D01*
X111370000Y-103080000D02*
X111370000Y-101619000D01*
X111370000Y-106621000D02*
X111370000Y-105160000D01*
X111410000Y-103080000D02*
X111410000Y-101610000D01*
X111410000Y-106630000D02*
X111410000Y-105160000D01*
X111450000Y-103080000D02*
X111450000Y-101601000D01*
X111450000Y-106639000D02*
X111450000Y-105160000D01*
X111490000Y-103080000D02*
X111490000Y-101592000D01*
X111490000Y-106648000D02*
X111490000Y-105160000D01*
X111530000Y-103080000D02*
X111530000Y-101584000D01*
X111530000Y-106656000D02*
X111530000Y-105160000D01*
X111570000Y-103080000D02*
X111570000Y-101577000D01*
X111570000Y-106663000D02*
X111570000Y-105160000D01*
X111610000Y-103080000D02*
X111610000Y-101571000D01*
X111610000Y-106669000D02*
X111610000Y-105160000D01*
X111650000Y-103080000D02*
X111650000Y-101565000D01*
X111650000Y-106675000D02*
X111650000Y-105160000D01*
X111690000Y-103080000D02*
X111690000Y-101560000D01*
X111690000Y-106680000D02*
X111690000Y-105160000D01*
X111730000Y-103080000D02*
X111730000Y-101555000D01*
X111730000Y-106685000D02*
X111730000Y-105160000D01*
X111770000Y-103080000D02*
X111770000Y-101551000D01*
X111770000Y-106689000D02*
X111770000Y-105160000D01*
X111810000Y-106692000D02*
X111810000Y-101548000D01*
X111850000Y-106695000D02*
X111850000Y-101545000D01*
X111890000Y-106697000D02*
X111890000Y-101543000D01*
X111930000Y-106699000D02*
X111930000Y-101541000D01*
X111970000Y-106700000D02*
X111970000Y-101540000D01*
X112010000Y-106700000D02*
X112010000Y-101540000D01*
X114564775Y-105845000D02*
X114564775Y-105345000D01*
X114814775Y-105595000D02*
X114314775Y-105595000D01*
X114630000Y-104120000D02*
G75*
G02*
X109390000Y-104120000I-2620000J0D01*
G01*
X109390000Y-104120000D02*
G75*
G02*
X114630000Y-104120000I2620000J0D01*
G01*
%TO.C,C6*%
X120160113Y-102775000D02*
X120660113Y-102775000D01*
X120410113Y-102525000D02*
X120410113Y-103025000D01*
X122964888Y-101670000D02*
X122964888Y-106830000D01*
X123004888Y-101670000D02*
X123004888Y-106830000D01*
X123044888Y-101671000D02*
X123044888Y-106829000D01*
X123084888Y-101673000D02*
X123084888Y-106827000D01*
X123124888Y-101675000D02*
X123124888Y-106825000D01*
X123164888Y-101678000D02*
X123164888Y-106822000D01*
X123204888Y-101681000D02*
X123204888Y-103210000D01*
X123204888Y-105290000D02*
X123204888Y-106819000D01*
X123244888Y-101685000D02*
X123244888Y-103210000D01*
X123244888Y-105290000D02*
X123244888Y-106815000D01*
X123284888Y-101690000D02*
X123284888Y-103210000D01*
X123284888Y-105290000D02*
X123284888Y-106810000D01*
X123324888Y-101695000D02*
X123324888Y-103210000D01*
X123324888Y-105290000D02*
X123324888Y-106805000D01*
X123364888Y-101701000D02*
X123364888Y-103210000D01*
X123364888Y-105290000D02*
X123364888Y-106799000D01*
X123404888Y-101707000D02*
X123404888Y-103210000D01*
X123404888Y-105290000D02*
X123404888Y-106793000D01*
X123444888Y-101714000D02*
X123444888Y-103210000D01*
X123444888Y-105290000D02*
X123444888Y-106786000D01*
X123484888Y-101722000D02*
X123484888Y-103210000D01*
X123484888Y-105290000D02*
X123484888Y-106778000D01*
X123524888Y-101731000D02*
X123524888Y-103210000D01*
X123524888Y-105290000D02*
X123524888Y-106769000D01*
X123564888Y-101740000D02*
X123564888Y-103210000D01*
X123564888Y-105290000D02*
X123564888Y-106760000D01*
X123604888Y-101749000D02*
X123604888Y-103210000D01*
X123604888Y-105290000D02*
X123604888Y-106751000D01*
X123644888Y-101760000D02*
X123644888Y-103210000D01*
X123644888Y-105290000D02*
X123644888Y-106740000D01*
X123684888Y-101771000D02*
X123684888Y-103210000D01*
X123684888Y-105290000D02*
X123684888Y-106729000D01*
X123724888Y-101783000D02*
X123724888Y-103210000D01*
X123724888Y-105290000D02*
X123724888Y-106717000D01*
X123764888Y-101795000D02*
X123764888Y-103210000D01*
X123764888Y-105290000D02*
X123764888Y-106705000D01*
X123804888Y-101808000D02*
X123804888Y-103210000D01*
X123804888Y-105290000D02*
X123804888Y-106692000D01*
X123844888Y-101822000D02*
X123844888Y-103210000D01*
X123844888Y-105290000D02*
X123844888Y-106678000D01*
X123884888Y-101837000D02*
X123884888Y-103210000D01*
X123884888Y-105290000D02*
X123884888Y-106663000D01*
X123924888Y-101852000D02*
X123924888Y-103210000D01*
X123924888Y-105290000D02*
X123924888Y-106648000D01*
X123964888Y-101868000D02*
X123964888Y-103210000D01*
X123964888Y-105290000D02*
X123964888Y-106632000D01*
X124004888Y-101885000D02*
X124004888Y-103210000D01*
X124004888Y-105290000D02*
X124004888Y-106615000D01*
X124044888Y-101903000D02*
X124044888Y-103210000D01*
X124044888Y-105290000D02*
X124044888Y-106597000D01*
X124084888Y-101921000D02*
X124084888Y-103210000D01*
X124084888Y-105290000D02*
X124084888Y-106579000D01*
X124124888Y-101941000D02*
X124124888Y-103210000D01*
X124124888Y-105290000D02*
X124124888Y-106559000D01*
X124164888Y-101961000D02*
X124164888Y-103210000D01*
X124164888Y-105290000D02*
X124164888Y-106539000D01*
X124204888Y-101982000D02*
X124204888Y-103210000D01*
X124204888Y-105290000D02*
X124204888Y-106518000D01*
X124244888Y-102004000D02*
X124244888Y-103210000D01*
X124244888Y-105290000D02*
X124244888Y-106496000D01*
X124284888Y-102027000D02*
X124284888Y-103210000D01*
X124284888Y-105290000D02*
X124284888Y-106473000D01*
X124324888Y-102051000D02*
X124324888Y-103210000D01*
X124324888Y-105290000D02*
X124324888Y-106449000D01*
X124364888Y-102075000D02*
X124364888Y-103210000D01*
X124364888Y-105290000D02*
X124364888Y-106425000D01*
X124404888Y-102101000D02*
X124404888Y-103210000D01*
X124404888Y-105290000D02*
X124404888Y-106399000D01*
X124444888Y-102128000D02*
X124444888Y-103210000D01*
X124444888Y-105290000D02*
X124444888Y-106372000D01*
X124484888Y-102156000D02*
X124484888Y-103210000D01*
X124484888Y-105290000D02*
X124484888Y-106344000D01*
X124524888Y-102185000D02*
X124524888Y-103210000D01*
X124524888Y-105290000D02*
X124524888Y-106315000D01*
X124564888Y-102215000D02*
X124564888Y-103210000D01*
X124564888Y-105290000D02*
X124564888Y-106285000D01*
X124604888Y-102247000D02*
X124604888Y-103210000D01*
X124604888Y-105290000D02*
X124604888Y-106253000D01*
X124644888Y-102280000D02*
X124644888Y-103210000D01*
X124644888Y-105290000D02*
X124644888Y-106220000D01*
X124684888Y-102314000D02*
X124684888Y-103210000D01*
X124684888Y-105290000D02*
X124684888Y-106186000D01*
X124724888Y-102349000D02*
X124724888Y-103210000D01*
X124724888Y-105290000D02*
X124724888Y-106151000D01*
X124764888Y-102386000D02*
X124764888Y-103210000D01*
X124764888Y-105290000D02*
X124764888Y-106114000D01*
X124804888Y-102425000D02*
X124804888Y-103210000D01*
X124804888Y-105290000D02*
X124804888Y-106075000D01*
X124844888Y-102465000D02*
X124844888Y-103210000D01*
X124844888Y-105290000D02*
X124844888Y-106035000D01*
X124884888Y-102507000D02*
X124884888Y-103210000D01*
X124884888Y-105290000D02*
X124884888Y-105993000D01*
X124924888Y-102551000D02*
X124924888Y-103210000D01*
X124924888Y-105290000D02*
X124924888Y-105949000D01*
X124964888Y-102598000D02*
X124964888Y-103210000D01*
X124964888Y-105290000D02*
X124964888Y-105902000D01*
X125004888Y-102646000D02*
X125004888Y-103210000D01*
X125004888Y-105290000D02*
X125004888Y-105854000D01*
X125044888Y-102697000D02*
X125044888Y-103210000D01*
X125044888Y-105290000D02*
X125044888Y-105803000D01*
X125084888Y-102751000D02*
X125084888Y-103210000D01*
X125084888Y-105290000D02*
X125084888Y-105749000D01*
X125124888Y-102807000D02*
X125124888Y-103210000D01*
X125124888Y-105290000D02*
X125124888Y-105693000D01*
X125164888Y-102867000D02*
X125164888Y-103210000D01*
X125164888Y-105290000D02*
X125164888Y-105633000D01*
X125204888Y-102931000D02*
X125204888Y-103210000D01*
X125204888Y-105290000D02*
X125204888Y-105569000D01*
X125244888Y-102999000D02*
X125244888Y-103210000D01*
X125244888Y-105290000D02*
X125244888Y-105501000D01*
X125284888Y-103073000D02*
X125284888Y-105427000D01*
X125324888Y-103152000D02*
X125324888Y-105348000D01*
X125364888Y-103239000D02*
X125364888Y-105261000D01*
X125404888Y-103336000D02*
X125404888Y-105164000D01*
X125444888Y-103445000D02*
X125444888Y-105055000D01*
X125484888Y-103573000D02*
X125484888Y-104927000D01*
X125524888Y-103733000D02*
X125524888Y-104767000D01*
X125564888Y-103967000D02*
X125564888Y-104533000D01*
X125584888Y-104250000D02*
G75*
G02*
X120344888Y-104250000I-2620000J0D01*
G01*
X120344888Y-104250000D02*
G75*
G02*
X125584888Y-104250000I2620000J0D01*
G01*
%TO.C,C18*%
X152180000Y-69230000D02*
X152874000Y-69230000D01*
X152180000Y-74570000D02*
X152180000Y-69230000D01*
X152874000Y-74570000D02*
X152180000Y-74570000D01*
X154926000Y-69230000D02*
X155620000Y-69230000D01*
X155620000Y-69230000D02*
X155620000Y-74570000D01*
X155620000Y-74570000D02*
X154926000Y-74570000D01*
%TO.C,D3*%
X127630000Y-103190000D02*
X127630000Y-108630000D01*
X127630000Y-108630000D02*
X127960000Y-108630000D01*
X127960000Y-103190000D02*
X127630000Y-103190000D01*
X130240000Y-103190000D02*
X130570000Y-103190000D01*
X130570000Y-103190000D02*
X130570000Y-108630000D01*
X130570000Y-103970000D02*
X127630000Y-103970000D01*
X130570000Y-104090000D02*
X127630000Y-104090000D01*
X130570000Y-104210000D02*
X127630000Y-104210000D01*
X130570000Y-108630000D02*
X130240000Y-108630000D01*
%TO.C,C11*%
X135370000Y-110715113D02*
X140530000Y-110715113D01*
X135370000Y-110755113D02*
X140530000Y-110755113D01*
X135371000Y-110675113D02*
X140529000Y-110675113D01*
X135373000Y-110635113D02*
X140527000Y-110635113D01*
X135375000Y-110595113D02*
X140525000Y-110595113D01*
X135378000Y-110555113D02*
X140522000Y-110555113D01*
X135381000Y-110515113D02*
X136910000Y-110515113D01*
X135385000Y-110475113D02*
X136910000Y-110475113D01*
X135390000Y-110435113D02*
X136910000Y-110435113D01*
X135395000Y-110395113D02*
X136910000Y-110395113D01*
X135401000Y-110355113D02*
X136910000Y-110355113D01*
X135407000Y-110315113D02*
X136910000Y-110315113D01*
X135414000Y-110275113D02*
X136910000Y-110275113D01*
X135422000Y-110235113D02*
X136910000Y-110235113D01*
X135431000Y-110195113D02*
X136910000Y-110195113D01*
X135440000Y-110155113D02*
X136910000Y-110155113D01*
X135449000Y-110115113D02*
X136910000Y-110115113D01*
X135460000Y-110075113D02*
X136910000Y-110075113D01*
X135471000Y-110035113D02*
X136910000Y-110035113D01*
X135483000Y-109995113D02*
X136910000Y-109995113D01*
X135495000Y-109955113D02*
X136910000Y-109955113D01*
X135508000Y-109915113D02*
X136910000Y-109915113D01*
X135522000Y-109875113D02*
X136910000Y-109875113D01*
X135537000Y-109835113D02*
X136910000Y-109835113D01*
X135552000Y-109795113D02*
X136910000Y-109795113D01*
X135568000Y-109755113D02*
X136910000Y-109755113D01*
X135585000Y-109715113D02*
X136910000Y-109715113D01*
X135603000Y-109675113D02*
X136910000Y-109675113D01*
X135621000Y-109635113D02*
X136910000Y-109635113D01*
X135641000Y-109595113D02*
X136910000Y-109595113D01*
X135661000Y-109555113D02*
X136910000Y-109555113D01*
X135682000Y-109515113D02*
X136910000Y-109515113D01*
X135704000Y-109475113D02*
X136910000Y-109475113D01*
X135727000Y-109435113D02*
X136910000Y-109435113D01*
X135751000Y-109395113D02*
X136910000Y-109395113D01*
X135775000Y-109355113D02*
X136910000Y-109355113D01*
X135801000Y-109315113D02*
X136910000Y-109315113D01*
X135828000Y-109275113D02*
X136910000Y-109275113D01*
X135856000Y-109235113D02*
X136910000Y-109235113D01*
X135885000Y-109195113D02*
X136910000Y-109195113D01*
X135915000Y-109155113D02*
X136910000Y-109155113D01*
X135947000Y-109115113D02*
X136910000Y-109115113D01*
X135980000Y-109075113D02*
X136910000Y-109075113D01*
X136014000Y-109035113D02*
X136910000Y-109035113D01*
X136049000Y-108995113D02*
X136910000Y-108995113D01*
X136086000Y-108955113D02*
X136910000Y-108955113D01*
X136125000Y-108915113D02*
X136910000Y-108915113D01*
X136165000Y-108875113D02*
X136910000Y-108875113D01*
X136207000Y-108835113D02*
X136910000Y-108835113D01*
X136225000Y-113309888D02*
X136725000Y-113309888D01*
X136251000Y-108795113D02*
X136910000Y-108795113D01*
X136298000Y-108755113D02*
X136910000Y-108755113D01*
X136346000Y-108715113D02*
X136910000Y-108715113D01*
X136397000Y-108675113D02*
X136910000Y-108675113D01*
X136451000Y-108635113D02*
X136910000Y-108635113D01*
X136475000Y-113559888D02*
X136475000Y-113059888D01*
X136507000Y-108595113D02*
X136910000Y-108595113D01*
X136567000Y-108555113D02*
X136910000Y-108555113D01*
X136631000Y-108515113D02*
X136910000Y-108515113D01*
X136699000Y-108475113D02*
X136910000Y-108475113D01*
X136773000Y-108435113D02*
X139127000Y-108435113D01*
X136852000Y-108395113D02*
X139048000Y-108395113D01*
X136939000Y-108355113D02*
X138961000Y-108355113D01*
X137036000Y-108315113D02*
X138864000Y-108315113D01*
X137145000Y-108275113D02*
X138755000Y-108275113D01*
X137273000Y-108235113D02*
X138627000Y-108235113D01*
X137433000Y-108195113D02*
X138467000Y-108195113D01*
X137667000Y-108155113D02*
X138233000Y-108155113D01*
X138990000Y-108475113D02*
X139201000Y-108475113D01*
X138990000Y-108515113D02*
X139269000Y-108515113D01*
X138990000Y-108555113D02*
X139333000Y-108555113D01*
X138990000Y-108595113D02*
X139393000Y-108595113D01*
X138990000Y-108635113D02*
X139449000Y-108635113D01*
X138990000Y-108675113D02*
X139503000Y-108675113D01*
X138990000Y-108715113D02*
X139554000Y-108715113D01*
X138990000Y-108755113D02*
X139602000Y-108755113D01*
X138990000Y-108795113D02*
X139649000Y-108795113D01*
X138990000Y-108835113D02*
X139693000Y-108835113D01*
X138990000Y-108875113D02*
X139735000Y-108875113D01*
X138990000Y-108915113D02*
X139775000Y-108915113D01*
X138990000Y-108955113D02*
X139814000Y-108955113D01*
X138990000Y-108995113D02*
X139851000Y-108995113D01*
X138990000Y-109035113D02*
X139886000Y-109035113D01*
X138990000Y-109075113D02*
X139920000Y-109075113D01*
X138990000Y-109115113D02*
X139953000Y-109115113D01*
X138990000Y-109155113D02*
X139985000Y-109155113D01*
X138990000Y-109195113D02*
X140015000Y-109195113D01*
X138990000Y-109235113D02*
X140044000Y-109235113D01*
X138990000Y-109275113D02*
X140072000Y-109275113D01*
X138990000Y-109315113D02*
X140099000Y-109315113D01*
X138990000Y-109355113D02*
X140125000Y-109355113D01*
X138990000Y-109395113D02*
X140149000Y-109395113D01*
X138990000Y-109435113D02*
X140173000Y-109435113D01*
X138990000Y-109475113D02*
X140196000Y-109475113D01*
X138990000Y-109515113D02*
X140218000Y-109515113D01*
X138990000Y-109555113D02*
X140239000Y-109555113D01*
X138990000Y-109595113D02*
X140259000Y-109595113D01*
X138990000Y-109635113D02*
X140279000Y-109635113D01*
X138990000Y-109675113D02*
X140297000Y-109675113D01*
X138990000Y-109715113D02*
X140315000Y-109715113D01*
X138990000Y-109755113D02*
X140332000Y-109755113D01*
X138990000Y-109795113D02*
X140348000Y-109795113D01*
X138990000Y-109835113D02*
X140363000Y-109835113D01*
X138990000Y-109875113D02*
X140378000Y-109875113D01*
X138990000Y-109915113D02*
X140392000Y-109915113D01*
X138990000Y-109955113D02*
X140405000Y-109955113D01*
X138990000Y-109995113D02*
X140417000Y-109995113D01*
X138990000Y-110035113D02*
X140429000Y-110035113D01*
X138990000Y-110075113D02*
X140440000Y-110075113D01*
X138990000Y-110115113D02*
X140451000Y-110115113D01*
X138990000Y-110155113D02*
X140460000Y-110155113D01*
X138990000Y-110195113D02*
X140469000Y-110195113D01*
X138990000Y-110235113D02*
X140478000Y-110235113D01*
X138990000Y-110275113D02*
X140486000Y-110275113D01*
X138990000Y-110315113D02*
X140493000Y-110315113D01*
X138990000Y-110355113D02*
X140499000Y-110355113D01*
X138990000Y-110395113D02*
X140505000Y-110395113D01*
X138990000Y-110435113D02*
X140510000Y-110435113D01*
X138990000Y-110475113D02*
X140515000Y-110475113D01*
X138990000Y-110515113D02*
X140519000Y-110515113D01*
X140570000Y-110755113D02*
G75*
G02*
X135330000Y-110755113I-2620000J0D01*
G01*
X135330000Y-110755113D02*
G75*
G02*
X140570000Y-110755113I2620000J0D01*
G01*
%TO.C,SW3*%
D10*
X145250000Y-109050000D02*
X161250000Y-109050000D01*
X161250000Y-117450000D01*
X145250000Y-117450000D01*
X145250000Y-109050000D01*
D14*
%TO.C,C10*%
X135680000Y-64080000D02*
X136374000Y-64080000D01*
X135680000Y-69420000D02*
X135680000Y-64080000D01*
X136374000Y-69420000D02*
X135680000Y-69420000D01*
X138426000Y-64080000D02*
X139120000Y-64080000D01*
X139120000Y-64080000D02*
X139120000Y-69420000D01*
X139120000Y-69420000D02*
X138426000Y-69420000D01*
%TO.C,C14*%
X142080000Y-74230000D02*
X142774000Y-74230000D01*
X142080000Y-79570000D02*
X142080000Y-74230000D01*
X142774000Y-79570000D02*
X142080000Y-79570000D01*
X144826000Y-74230000D02*
X145520000Y-74230000D01*
X145520000Y-74230000D02*
X145520000Y-79570000D01*
X145520000Y-79570000D02*
X144826000Y-79570000D01*
D12*
%TO.C,MD1*%
X125650000Y-85650000D02*
X138350000Y-85650000D01*
X125650000Y-98350000D02*
X125650000Y-85650000D01*
X125650000Y-98350000D02*
X138350000Y-98350000D01*
X138350000Y-98350000D02*
X138350000Y-85650000D01*
D15*
X124880000Y-92000000D02*
G75*
G02*
X124630000Y-92000000I-125000J0D01*
G01*
X124630000Y-92000000D02*
G75*
G02*
X124880000Y-92000000I125000J0D01*
G01*
D14*
%TO.C,C2*%
X109490000Y-107440000D02*
X114830000Y-107440000D01*
X109490000Y-108134000D02*
X109490000Y-107440000D01*
X109490000Y-110880000D02*
X109490000Y-110186000D01*
X114830000Y-107440000D02*
X114830000Y-108134000D01*
X114830000Y-110186000D02*
X114830000Y-110880000D01*
X114830000Y-110880000D02*
X109490000Y-110880000D01*
%TO.C,R7*%
X141710000Y-97872000D02*
X142480000Y-97872000D01*
X149790000Y-97872000D02*
X149020000Y-97872000D01*
X149020000Y-99242000D02*
X142480000Y-99242000D01*
X142480000Y-96502000D01*
X149020000Y-96502000D01*
X149020000Y-99242000D01*
%TO.C,J4*%
X153020000Y-124460000D02*
X153020000Y-119270000D01*
X155780000Y-119270000D02*
X153020000Y-119270000D01*
X155780000Y-124460000D02*
X153020000Y-124460000D01*
X155780000Y-124460000D02*
X155780000Y-119270000D01*
X155780000Y-125730000D02*
X155780000Y-127110000D01*
X155780000Y-127110000D02*
X154400000Y-127110000D01*
%TO.C,RV2*%
X140390000Y-85735000D02*
X150610000Y-85735000D01*
X140390000Y-86849000D02*
X140390000Y-85735000D01*
X140390000Y-91849000D02*
X140390000Y-89641000D01*
X140390000Y-95755000D02*
X140390000Y-94641000D01*
X150610000Y-85735000D02*
X150610000Y-89349000D01*
X150610000Y-92141000D02*
X150610000Y-95755000D01*
X150610000Y-95755000D02*
X140390000Y-95755000D01*
%TO.C,C21*%
X155830000Y-97030000D02*
X156524000Y-97030000D01*
X155830000Y-102370000D02*
X155830000Y-97030000D01*
X156524000Y-102370000D02*
X155830000Y-102370000D01*
X158576000Y-97030000D02*
X159270000Y-97030000D01*
X159270000Y-97030000D02*
X159270000Y-102370000D01*
X159270000Y-102370000D02*
X158576000Y-102370000D01*
%TO.C,C12*%
X139880000Y-66030000D02*
X140574000Y-66030000D01*
X139880000Y-71370000D02*
X139880000Y-66030000D01*
X140574000Y-71370000D02*
X139880000Y-71370000D01*
X142626000Y-66030000D02*
X143320000Y-66030000D01*
X143320000Y-66030000D02*
X143320000Y-71370000D01*
X143320000Y-71370000D02*
X142626000Y-71370000D01*
%TO.C,U1*%
X150000000Y-76940000D02*
X148050000Y-76940000D01*
X150000000Y-76940000D02*
X151950000Y-76940000D01*
X150000000Y-82060000D02*
X148050000Y-82060000D01*
X150000000Y-82060000D02*
X151950000Y-82060000D01*
X152940000Y-82295000D02*
X152460000Y-82295000D01*
X152700000Y-81965000D01*
X152940000Y-82295000D01*
G36*
X152940000Y-82295000D02*
G01*
X152460000Y-82295000D01*
X152700000Y-81965000D01*
X152940000Y-82295000D01*
G37*
%TO.C,R3*%
X132500000Y-75040000D02*
X132500000Y-75810000D01*
X132500000Y-83120000D02*
X132500000Y-82350000D01*
X131130000Y-82350000D02*
X133870000Y-82350000D01*
X133870000Y-75810000D01*
X131130000Y-75810000D01*
X131130000Y-82350000D01*
%TO.C,C16*%
X143830000Y-66080000D02*
X144524000Y-66080000D01*
X143830000Y-71420000D02*
X143830000Y-66080000D01*
X144524000Y-71420000D02*
X143830000Y-71420000D01*
X146576000Y-66080000D02*
X147270000Y-66080000D01*
X147270000Y-66080000D02*
X147270000Y-71420000D01*
X147270000Y-71420000D02*
X146576000Y-71420000D01*
%TO.C,C3*%
X109830000Y-83280000D02*
X115170000Y-83280000D01*
X109830000Y-83974000D02*
X109830000Y-83280000D01*
X109830000Y-86720000D02*
X109830000Y-86026000D01*
X115170000Y-83280000D02*
X115170000Y-83974000D01*
X115170000Y-86026000D02*
X115170000Y-86720000D01*
X115170000Y-86720000D02*
X109830000Y-86720000D01*
%TO.C,D5*%
X136920000Y-103960000D02*
X136764000Y-103960000D01*
X139236000Y-103960000D02*
X139080000Y-103960000D01*
X136920000Y-106560961D02*
G75*
G02*
X136920000Y-104479039I1080000J1040961D01*
G01*
X136920000Y-107191437D02*
G75*
G02*
X136764484Y-103960000I1080000J1671437D01*
G01*
X139080000Y-104479039D02*
G75*
G02*
X139080000Y-106560961I-1080000J-1040961D01*
G01*
X139235516Y-103960000D02*
G75*
G02*
X139080000Y-107191437I-1235516J-1560000D01*
G01*
%TO.C,RV1*%
X129995000Y-114980000D02*
X131109000Y-114980000D01*
X129995000Y-125200000D02*
X129995000Y-114980000D01*
X133609000Y-125200000D02*
X129995000Y-125200000D01*
X133901000Y-114980000D02*
X136109000Y-114980000D01*
X138901000Y-114980000D02*
X140015000Y-114980000D01*
X140015000Y-114980000D02*
X140015000Y-125200000D01*
X140015000Y-125200000D02*
X136401000Y-125200000D01*
%TO.C,D4*%
X135264000Y-76300000D02*
X135420000Y-76300000D01*
X137580000Y-76300000D02*
X137736000Y-76300000D01*
X135264484Y-76300000D02*
G75*
G02*
X135420000Y-73068563I1235516J1560000D01*
G01*
X135420000Y-75780961D02*
G75*
G02*
X135420000Y-73699039I1080000J1040961D01*
G01*
X137580000Y-73068563D02*
G75*
G02*
X137735516Y-76300000I-1080000J-1671437D01*
G01*
X137580000Y-73699039D02*
G75*
G02*
X137580000Y-75780961I-1080000J-1040961D01*
G01*
%TO.C,R5*%
X140500000Y-74400000D02*
X140500000Y-75170000D01*
X140500000Y-82480000D02*
X140500000Y-81710000D01*
X139130000Y-81710000D02*
X141870000Y-81710000D01*
X141870000Y-75170000D01*
X139130000Y-75170000D01*
X139130000Y-81710000D01*
%TO.C,R1*%
X121500000Y-87960000D02*
X121500000Y-88730000D01*
X121500000Y-96040000D02*
X121500000Y-95270000D01*
X122870000Y-88730000D02*
X120130000Y-88730000D01*
X120130000Y-95270000D01*
X122870000Y-95270000D01*
X122870000Y-88730000D01*
%TO.C,C19*%
X152430000Y-87080000D02*
X153124000Y-87080000D01*
X152430000Y-92420000D02*
X152430000Y-87080000D01*
X153124000Y-92420000D02*
X152430000Y-92420000D01*
X155176000Y-87080000D02*
X155870000Y-87080000D01*
X155870000Y-87080000D02*
X155870000Y-92420000D01*
X155870000Y-92420000D02*
X155176000Y-92420000D01*
%TO.C,C7*%
X123280000Y-78830000D02*
X123974000Y-78830000D01*
X123280000Y-84170000D02*
X123280000Y-78830000D01*
X123974000Y-84170000D02*
X123280000Y-84170000D01*
X126026000Y-78830000D02*
X126720000Y-78830000D01*
X126720000Y-78830000D02*
X126720000Y-84170000D01*
X126720000Y-84170000D02*
X126026000Y-84170000D01*
%TO.C,R2*%
X129000000Y-75040000D02*
X129000000Y-75810000D01*
X129000000Y-83120000D02*
X129000000Y-82350000D01*
X127630000Y-82350000D02*
X130370000Y-82350000D01*
X130370000Y-75810000D01*
X127630000Y-75810000D01*
X127630000Y-82350000D01*
%TO.C,D2*%
X123920000Y-73440000D02*
X123764000Y-73440000D01*
X126236000Y-73440000D02*
X126080000Y-73440000D01*
X123920000Y-76040961D02*
G75*
G02*
X123920000Y-73959039I1080000J1040961D01*
G01*
X123920000Y-76671437D02*
G75*
G02*
X123764484Y-73440000I1080000J1671437D01*
G01*
X126080000Y-73959039D02*
G75*
G02*
X126080000Y-76040961I-1080000J-1040961D01*
G01*
X126235516Y-73440000D02*
G75*
G02*
X126080000Y-76671437I-1235516J-1560000D01*
G01*
D16*
%TO.C,U2*%
X161405600Y-82560000D02*
X161405600Y-82875551D01*
X161405600Y-84784449D02*
X161405600Y-85415551D01*
X161405600Y-87324449D02*
X161405600Y-87955551D01*
X161405600Y-89864449D02*
X161405600Y-90495551D01*
X161405600Y-92404449D02*
X161405600Y-92720000D01*
X161405600Y-92720000D02*
X168314400Y-92720000D01*
X168314400Y-82560000D02*
X161405600Y-82560000D01*
X168314400Y-82875551D02*
X168314400Y-82560000D01*
X168314400Y-85415551D02*
X168314400Y-84784449D01*
X168314400Y-87955551D02*
X168314400Y-87324449D01*
X168314400Y-90431460D02*
X168314400Y-89864449D01*
D14*
%TO.C,C27*%
X179780000Y-61330000D02*
X180474000Y-61330000D01*
X179780000Y-66670000D02*
X179780000Y-61330000D01*
X180474000Y-66670000D02*
X179780000Y-66670000D01*
X182526000Y-61330000D02*
X183220000Y-61330000D01*
X183220000Y-61330000D02*
X183220000Y-66670000D01*
X183220000Y-66670000D02*
X182526000Y-66670000D01*
D10*
%TO.C,HS1*%
X105550000Y-114300000D02*
X105550000Y-121300000D01*
X105550000Y-114300000D02*
X105550000Y-131300000D01*
X105550000Y-114300000D02*
X108400000Y-114300000D01*
X105550000Y-121300000D02*
X108400000Y-121300000D01*
X105550000Y-131300000D02*
X129050000Y-131300000D01*
X108400000Y-114300000D02*
X105550000Y-114300000D01*
X108400000Y-119800000D02*
X108400000Y-114300000D01*
X108400000Y-121300000D02*
X105550000Y-121300000D01*
X117300000Y-122800000D02*
X117300000Y-119800000D01*
X126200000Y-114300000D02*
X126200000Y-119800000D01*
X126200000Y-119800000D02*
X108400000Y-119800000D01*
X126200000Y-119800000D02*
X126200000Y-114300000D01*
X126200000Y-121300000D02*
X108400000Y-121300000D01*
X126200000Y-121300000D02*
X129050000Y-121300000D01*
X129050000Y-114300000D02*
X126200000Y-114300000D01*
X129050000Y-114300000D02*
X129050000Y-131300000D01*
X129050000Y-121300000D02*
X129050000Y-114300000D01*
X129050000Y-131300000D02*
X129050000Y-114300000D01*
X126200000Y-122800000D02*
X108400000Y-122800000D01*
X108400000Y-119800000D01*
X126200000Y-119800000D01*
X126200000Y-122800000D01*
D14*
%TO.C,R4*%
X133040000Y-102960000D02*
X133040000Y-103730000D01*
X133040000Y-111040000D02*
X133040000Y-110270000D01*
X131670000Y-110270000D02*
X134410000Y-110270000D01*
X134410000Y-103730000D01*
X131670000Y-103730000D01*
X131670000Y-110270000D01*
%TO.C,J3*%
X147775113Y-124410000D02*
X147775113Y-119220000D01*
X150535113Y-119220000D02*
X147775113Y-119220000D01*
X150535113Y-124410000D02*
X147775113Y-124410000D01*
X150535113Y-124410000D02*
X150535113Y-119220000D01*
X150535113Y-125680000D02*
X150535113Y-127060000D01*
X150535113Y-127060000D02*
X149155113Y-127060000D01*
%TO.C,SW1*%
D10*
X122500000Y-72300000D02*
X106500000Y-72300000D01*
X106500000Y-63900000D01*
X122500000Y-63900000D01*
X122500000Y-72300000D01*
%TO.C,SB1*%
X148050000Y-73900000D02*
X150950000Y-73900000D01*
X150950000Y-71100000D01*
X148050000Y-71100000D01*
X148050000Y-73900000D01*
X148641421Y-73400000D02*
G75*
G02*
X148358579Y-73400000I-141421J0D01*
G01*
X148358579Y-73400000D02*
G75*
G02*
X148641421Y-73400000I141421J0D01*
G01*
D14*
%TO.C,J2*%
X143650000Y-59050000D02*
X143650000Y-60300000D01*
X143940000Y-59340000D02*
X143940000Y-65310000D01*
X143940000Y-65310000D02*
X154060000Y-65310000D01*
X143950000Y-59350000D02*
X143950000Y-60100000D01*
X143950000Y-60100000D02*
X145750000Y-60100000D01*
X143950000Y-61600000D02*
X144700000Y-61600000D01*
X144700000Y-61600000D02*
X144700000Y-64550000D01*
X144700000Y-64550000D02*
X149000000Y-64550000D01*
X144900000Y-59050000D02*
X143650000Y-59050000D01*
X145750000Y-59350000D02*
X143950000Y-59350000D01*
X145750000Y-60100000D02*
X145750000Y-59350000D01*
X147250000Y-59350000D02*
X147250000Y-60100000D01*
X147250000Y-60100000D02*
X150750000Y-60100000D01*
X150750000Y-59350000D02*
X147250000Y-59350000D01*
X150750000Y-60100000D02*
X150750000Y-59350000D01*
X152250000Y-59350000D02*
X152250000Y-60100000D01*
X152250000Y-60100000D02*
X154050000Y-60100000D01*
X153300000Y-61600000D02*
X153300000Y-64550000D01*
X153300000Y-64550000D02*
X149000000Y-64550000D01*
X154050000Y-59350000D02*
X152250000Y-59350000D01*
X154050000Y-60100000D02*
X154050000Y-59350000D01*
X154050000Y-61600000D02*
X153300000Y-61600000D01*
X154060000Y-59340000D02*
X143940000Y-59340000D01*
X154060000Y-65310000D02*
X154060000Y-59340000D01*
%TO.C,J5*%
X157970000Y-124510000D02*
X157970000Y-119320000D01*
X160730000Y-119320000D02*
X157970000Y-119320000D01*
X160730000Y-124510000D02*
X157970000Y-124510000D01*
X160730000Y-124510000D02*
X160730000Y-119320000D01*
X160730000Y-125780000D02*
X160730000Y-127160000D01*
X160730000Y-127160000D02*
X159350000Y-127160000D01*
%TO.C,C24*%
X162480000Y-60430000D02*
X163174000Y-60430000D01*
X162480000Y-65770000D02*
X162480000Y-60430000D01*
X163174000Y-65770000D02*
X162480000Y-65770000D01*
X165226000Y-60430000D02*
X165920000Y-60430000D01*
X165920000Y-60430000D02*
X165920000Y-65770000D01*
X165920000Y-65770000D02*
X165226000Y-65770000D01*
%TO.C,C4*%
X107787677Y-94599000D02*
X107787677Y-93401000D01*
X107827677Y-94862000D02*
X107827677Y-93138000D01*
X107867677Y-95062000D02*
X107867677Y-92938000D01*
X107907677Y-95230000D02*
X107907677Y-92770000D01*
X107947677Y-95377000D02*
X107947677Y-92623000D01*
X107987677Y-95509000D02*
X107987677Y-92491000D01*
X108027677Y-95630000D02*
X108027677Y-92370000D01*
X108067677Y-95742000D02*
X108067677Y-92258000D01*
X108107677Y-95846000D02*
X108107677Y-92154000D01*
X108147677Y-95944000D02*
X108147677Y-92056000D01*
X108187677Y-96037000D02*
X108187677Y-91963000D01*
X108227677Y-96124000D02*
X108227677Y-91876000D01*
X108267677Y-96208000D02*
X108267677Y-91792000D01*
X108307677Y-96288000D02*
X108307677Y-91712000D01*
X108347677Y-96365000D02*
X108347677Y-91635000D01*
X108387677Y-96439000D02*
X108387677Y-91561000D01*
X108427677Y-96510000D02*
X108427677Y-91490000D01*
X108467677Y-96578000D02*
X108467677Y-91422000D01*
X108507677Y-96644000D02*
X108507677Y-91356000D01*
X108547677Y-96708000D02*
X108547677Y-91292000D01*
X108587677Y-96770000D02*
X108587677Y-91230000D01*
X108627677Y-96830000D02*
X108627677Y-91170000D01*
X108667677Y-96888000D02*
X108667677Y-91112000D01*
X108707677Y-96945000D02*
X108707677Y-91055000D01*
X108747677Y-97000000D02*
X108747677Y-91000000D01*
X108787677Y-97053000D02*
X108787677Y-90947000D01*
X108827677Y-97105000D02*
X108827677Y-90895000D01*
X108867677Y-97156000D02*
X108867677Y-90844000D01*
X108907677Y-97205000D02*
X108907677Y-90795000D01*
X108947677Y-97254000D02*
X108947677Y-90746000D01*
X108987677Y-97301000D02*
X108987677Y-90699000D01*
X109027677Y-97347000D02*
X109027677Y-90653000D01*
X109067677Y-97391000D02*
X109067677Y-90609000D01*
X109107677Y-97435000D02*
X109107677Y-90565000D01*
X109147677Y-92760000D02*
X109147677Y-90522000D01*
X109147677Y-97478000D02*
X109147677Y-95240000D01*
X109187677Y-92760000D02*
X109187677Y-90480000D01*
X109187677Y-97520000D02*
X109187677Y-95240000D01*
X109227677Y-92760000D02*
X109227677Y-90439000D01*
X109227677Y-97561000D02*
X109227677Y-95240000D01*
X109267677Y-92760000D02*
X109267677Y-90399000D01*
X109267677Y-97601000D02*
X109267677Y-95240000D01*
X109307677Y-92760000D02*
X109307677Y-90360000D01*
X109307677Y-97640000D02*
X109307677Y-95240000D01*
X109347677Y-92760000D02*
X109347677Y-90322000D01*
X109347677Y-97678000D02*
X109347677Y-95240000D01*
X109387677Y-92760000D02*
X109387677Y-90284000D01*
X109387677Y-97716000D02*
X109387677Y-95240000D01*
X109427677Y-92760000D02*
X109427677Y-90248000D01*
X109427677Y-97752000D02*
X109427677Y-95240000D01*
X109467677Y-92760000D02*
X109467677Y-90212000D01*
X109467677Y-97788000D02*
X109467677Y-95240000D01*
X109507677Y-92760000D02*
X109507677Y-90177000D01*
X109507677Y-97823000D02*
X109507677Y-95240000D01*
X109547677Y-92760000D02*
X109547677Y-90142000D01*
X109547677Y-97858000D02*
X109547677Y-95240000D01*
X109587677Y-92760000D02*
X109587677Y-90109000D01*
X109587677Y-97891000D02*
X109587677Y-95240000D01*
X109627677Y-92760000D02*
X109627677Y-90076000D01*
X109627677Y-97924000D02*
X109627677Y-95240000D01*
X109667677Y-92760000D02*
X109667677Y-90043000D01*
X109667677Y-97957000D02*
X109667677Y-95240000D01*
X109707677Y-92760000D02*
X109707677Y-90012000D01*
X109707677Y-97988000D02*
X109707677Y-95240000D01*
X109747677Y-92760000D02*
X109747677Y-89980000D01*
X109747677Y-98020000D02*
X109747677Y-95240000D01*
X109787677Y-92760000D02*
X109787677Y-89950000D01*
X109787677Y-98050000D02*
X109787677Y-95240000D01*
X109827677Y-92760000D02*
X109827677Y-89920000D01*
X109827677Y-98080000D02*
X109827677Y-95240000D01*
X109867677Y-92760000D02*
X109867677Y-89891000D01*
X109867677Y-98109000D02*
X109867677Y-95240000D01*
X109907677Y-92760000D02*
X109907677Y-89862000D01*
X109907677Y-98138000D02*
X109907677Y-95240000D01*
X109947677Y-92760000D02*
X109947677Y-89834000D01*
X109947677Y-98166000D02*
X109947677Y-95240000D01*
X109987677Y-92760000D02*
X109987677Y-89807000D01*
X109987677Y-98193000D02*
X109987677Y-95240000D01*
X110027677Y-92760000D02*
X110027677Y-89780000D01*
X110027677Y-98220000D02*
X110027677Y-95240000D01*
X110067677Y-92760000D02*
X110067677Y-89753000D01*
X110067677Y-98247000D02*
X110067677Y-95240000D01*
X110107677Y-92760000D02*
X110107677Y-89728000D01*
X110107677Y-98272000D02*
X110107677Y-95240000D01*
X110147677Y-92760000D02*
X110147677Y-89702000D01*
X110147677Y-98298000D02*
X110147677Y-95240000D01*
X110187677Y-92760000D02*
X110187677Y-89677000D01*
X110187677Y-98323000D02*
X110187677Y-95240000D01*
X110227677Y-92760000D02*
X110227677Y-89653000D01*
X110227677Y-98347000D02*
X110227677Y-95240000D01*
X110267677Y-92760000D02*
X110267677Y-89629000D01*
X110267677Y-98371000D02*
X110267677Y-95240000D01*
X110307677Y-92760000D02*
X110307677Y-89606000D01*
X110307677Y-98394000D02*
X110307677Y-95240000D01*
X110347677Y-92760000D02*
X110347677Y-89583000D01*
X110347677Y-98417000D02*
X110347677Y-95240000D01*
X110387677Y-92760000D02*
X110387677Y-89561000D01*
X110387677Y-98439000D02*
X110387677Y-95240000D01*
X110427677Y-92760000D02*
X110427677Y-89539000D01*
X110427677Y-98461000D02*
X110427677Y-95240000D01*
X110467677Y-92760000D02*
X110467677Y-89517000D01*
X110467677Y-98483000D02*
X110467677Y-95240000D01*
X110507677Y-92760000D02*
X110507677Y-89496000D01*
X110507677Y-98504000D02*
X110507677Y-95240000D01*
X110547677Y-92760000D02*
X110547677Y-89476000D01*
X110547677Y-98524000D02*
X110547677Y-95240000D01*
X110587677Y-92760000D02*
X110587677Y-89456000D01*
X110587677Y-98544000D02*
X110587677Y-95240000D01*
X110627677Y-92760000D02*
X110627677Y-89436000D01*
X110627677Y-98564000D02*
X110627677Y-95240000D01*
X110667677Y-92760000D02*
X110667677Y-89417000D01*
X110667677Y-98583000D02*
X110667677Y-95240000D01*
X110707677Y-92760000D02*
X110707677Y-89398000D01*
X110707677Y-98602000D02*
X110707677Y-95240000D01*
X110747677Y-92760000D02*
X110747677Y-89380000D01*
X110747677Y-98620000D02*
X110747677Y-95240000D01*
X110787677Y-92760000D02*
X110787677Y-89362000D01*
X110787677Y-98638000D02*
X110787677Y-95240000D01*
X110827677Y-92760000D02*
X110827677Y-89344000D01*
X110827677Y-98656000D02*
X110827677Y-95240000D01*
X110867677Y-92760000D02*
X110867677Y-89327000D01*
X110867677Y-98673000D02*
X110867677Y-95240000D01*
X110907677Y-92760000D02*
X110907677Y-89310000D01*
X110907677Y-98690000D02*
X110907677Y-95240000D01*
X110947677Y-92760000D02*
X110947677Y-89294000D01*
X110947677Y-98706000D02*
X110947677Y-95240000D01*
X110987677Y-92760000D02*
X110987677Y-89278000D01*
X110987677Y-98722000D02*
X110987677Y-95240000D01*
X111027677Y-92760000D02*
X111027677Y-89262000D01*
X111027677Y-98738000D02*
X111027677Y-95240000D01*
X111067677Y-92760000D02*
X111067677Y-89247000D01*
X111067677Y-98753000D02*
X111067677Y-95240000D01*
X111107677Y-92760000D02*
X111107677Y-89232000D01*
X111107677Y-98768000D02*
X111107677Y-95240000D01*
X111147677Y-92760000D02*
X111147677Y-89218000D01*
X111147677Y-98782000D02*
X111147677Y-95240000D01*
X111187677Y-92760000D02*
X111187677Y-89203000D01*
X111187677Y-98797000D02*
X111187677Y-95240000D01*
X111227677Y-92760000D02*
X111227677Y-89190000D01*
X111227677Y-98810000D02*
X111227677Y-95240000D01*
X111267677Y-92760000D02*
X111267677Y-89176000D01*
X111267677Y-98824000D02*
X111267677Y-95240000D01*
X111307677Y-92760000D02*
X111307677Y-89163000D01*
X111307677Y-98837000D02*
X111307677Y-95240000D01*
X111347677Y-92760000D02*
X111347677Y-89151000D01*
X111347677Y-98849000D02*
X111347677Y-95240000D01*
X111387677Y-92760000D02*
X111387677Y-89139000D01*
X111387677Y-98861000D02*
X111387677Y-95240000D01*
X111427677Y-92760000D02*
X111427677Y-89127000D01*
X111427677Y-98873000D02*
X111427677Y-95240000D01*
X111467677Y-92760000D02*
X111467677Y-89115000D01*
X111467677Y-98885000D02*
X111467677Y-95240000D01*
X111507677Y-92760000D02*
X111507677Y-89104000D01*
X111507677Y-98896000D02*
X111507677Y-95240000D01*
X111547677Y-92760000D02*
X111547677Y-89093000D01*
X111547677Y-98907000D02*
X111547677Y-95240000D01*
X111587677Y-92760000D02*
X111587677Y-89083000D01*
X111587677Y-98917000D02*
X111587677Y-95240000D01*
X111627677Y-98928000D02*
X111627677Y-89072000D01*
X111667677Y-98937000D02*
X111667677Y-89063000D01*
X111707677Y-98947000D02*
X111707677Y-89053000D01*
X111747677Y-98956000D02*
X111747677Y-89044000D01*
X111787677Y-98965000D02*
X111787677Y-89035000D01*
X111827677Y-98973000D02*
X111827677Y-89027000D01*
X111867677Y-98981000D02*
X111867677Y-89019000D01*
X111907677Y-98989000D02*
X111907677Y-89011000D01*
X111947677Y-98997000D02*
X111947677Y-89003000D01*
X111987677Y-99004000D02*
X111987677Y-88996000D01*
X112027677Y-99011000D02*
X112027677Y-88989000D01*
X112067677Y-99017000D02*
X112067677Y-88983000D01*
X112107677Y-99023000D02*
X112107677Y-88977000D01*
X112147677Y-99029000D02*
X112147677Y-88971000D01*
X112187677Y-99035000D02*
X112187677Y-88965000D01*
X112227677Y-99040000D02*
X112227677Y-88960000D01*
X112267677Y-99045000D02*
X112267677Y-88955000D01*
X112307677Y-99049000D02*
X112307677Y-88951000D01*
X112347677Y-99054000D02*
X112347677Y-88946000D01*
X112387677Y-99057000D02*
X112387677Y-88943000D01*
X112427677Y-99061000D02*
X112427677Y-88939000D01*
X112467677Y-99064000D02*
X112467677Y-88936000D01*
X112507677Y-99067000D02*
X112507677Y-88933000D01*
X112547677Y-99070000D02*
X112547677Y-88930000D01*
X112587677Y-99072000D02*
X112587677Y-88928000D01*
X112627677Y-99074000D02*
X112627677Y-88926000D01*
X112667677Y-99076000D02*
X112667677Y-88924000D01*
X112707677Y-99077000D02*
X112707677Y-88923000D01*
X112747677Y-99079000D02*
X112747677Y-88921000D01*
X112787677Y-99079000D02*
X112787677Y-88921000D01*
X112827677Y-99080000D02*
X112827677Y-88920000D01*
X112867677Y-99080000D02*
X112867677Y-88920000D01*
X117847323Y-97375000D02*
X117847323Y-96375000D01*
X118347323Y-96875000D02*
X117347323Y-96875000D01*
X117987677Y-94000000D02*
G75*
G02*
X107747677Y-94000000I-5120000J0D01*
G01*
X107747677Y-94000000D02*
G75*
G02*
X117987677Y-94000000I5120000J0D01*
G01*
%TO.C,C17*%
X152080000Y-97030000D02*
X152774000Y-97030000D01*
X152080000Y-102370000D02*
X152080000Y-97030000D01*
X152774000Y-102370000D02*
X152080000Y-102370000D01*
X154826000Y-97030000D02*
X155520000Y-97030000D01*
X155520000Y-97030000D02*
X155520000Y-102370000D01*
X155520000Y-102370000D02*
X154826000Y-102370000D01*
%TO.C,C5*%
X120460000Y-107400000D02*
X125800000Y-107400000D01*
X120460000Y-108094000D02*
X120460000Y-107400000D01*
X120460000Y-110840000D02*
X120460000Y-110146000D01*
X125800000Y-107400000D02*
X125800000Y-108094000D01*
X125800000Y-110146000D02*
X125800000Y-110840000D01*
X125800000Y-110840000D02*
X120460000Y-110840000D01*
%TO.C,C8*%
X124420000Y-65327677D02*
X134580000Y-65327677D01*
X124420000Y-65367677D02*
X134580000Y-65367677D01*
X124421000Y-65247677D02*
X134579000Y-65247677D01*
X124421000Y-65287677D02*
X134579000Y-65287677D01*
X124423000Y-65207677D02*
X134577000Y-65207677D01*
X124424000Y-65167677D02*
X134576000Y-65167677D01*
X124426000Y-65127677D02*
X134574000Y-65127677D01*
X124428000Y-65087677D02*
X134572000Y-65087677D01*
X124430000Y-65047677D02*
X134570000Y-65047677D01*
X124433000Y-65007677D02*
X134567000Y-65007677D01*
X124436000Y-64967677D02*
X134564000Y-64967677D01*
X124439000Y-64927677D02*
X134561000Y-64927677D01*
X124443000Y-64887677D02*
X134557000Y-64887677D01*
X124446000Y-64847677D02*
X134554000Y-64847677D01*
X124451000Y-64807677D02*
X134549000Y-64807677D01*
X124455000Y-64767677D02*
X134545000Y-64767677D01*
X124460000Y-64727677D02*
X134540000Y-64727677D01*
X124465000Y-64687677D02*
X134535000Y-64687677D01*
X124471000Y-64647677D02*
X134529000Y-64647677D01*
X124477000Y-64607677D02*
X134523000Y-64607677D01*
X124483000Y-64567677D02*
X134517000Y-64567677D01*
X124489000Y-64527677D02*
X134511000Y-64527677D01*
X124496000Y-64487677D02*
X134504000Y-64487677D01*
X124503000Y-64447677D02*
X134497000Y-64447677D01*
X124511000Y-64407677D02*
X134489000Y-64407677D01*
X124519000Y-64367677D02*
X134481000Y-64367677D01*
X124527000Y-64327677D02*
X134473000Y-64327677D01*
X124535000Y-64287677D02*
X134465000Y-64287677D01*
X124544000Y-64247677D02*
X134456000Y-64247677D01*
X124553000Y-64207677D02*
X134447000Y-64207677D01*
X124563000Y-64167677D02*
X134437000Y-64167677D01*
X124572000Y-64127677D02*
X134428000Y-64127677D01*
X124583000Y-64087677D02*
X128260000Y-64087677D01*
X124593000Y-64047677D02*
X128260000Y-64047677D01*
X124604000Y-64007677D02*
X128260000Y-64007677D01*
X124615000Y-63967677D02*
X128260000Y-63967677D01*
X124627000Y-63927677D02*
X128260000Y-63927677D01*
X124639000Y-63887677D02*
X128260000Y-63887677D01*
X124651000Y-63847677D02*
X128260000Y-63847677D01*
X124663000Y-63807677D02*
X128260000Y-63807677D01*
X124676000Y-63767677D02*
X128260000Y-63767677D01*
X124690000Y-63727677D02*
X128260000Y-63727677D01*
X124703000Y-63687677D02*
X128260000Y-63687677D01*
X124718000Y-63647677D02*
X128260000Y-63647677D01*
X124732000Y-63607677D02*
X128260000Y-63607677D01*
X124747000Y-63567677D02*
X128260000Y-63567677D01*
X124762000Y-63527677D02*
X128260000Y-63527677D01*
X124778000Y-63487677D02*
X128260000Y-63487677D01*
X124794000Y-63447677D02*
X128260000Y-63447677D01*
X124810000Y-63407677D02*
X128260000Y-63407677D01*
X124827000Y-63367677D02*
X128260000Y-63367677D01*
X124844000Y-63327677D02*
X128260000Y-63327677D01*
X124862000Y-63287677D02*
X128260000Y-63287677D01*
X124880000Y-63247677D02*
X128260000Y-63247677D01*
X124898000Y-63207677D02*
X128260000Y-63207677D01*
X124917000Y-63167677D02*
X128260000Y-63167677D01*
X124936000Y-63127677D02*
X128260000Y-63127677D01*
X124956000Y-63087677D02*
X128260000Y-63087677D01*
X124976000Y-63047677D02*
X128260000Y-63047677D01*
X124996000Y-63007677D02*
X128260000Y-63007677D01*
X125017000Y-62967677D02*
X128260000Y-62967677D01*
X125039000Y-62927677D02*
X128260000Y-62927677D01*
X125061000Y-62887677D02*
X128260000Y-62887677D01*
X125083000Y-62847677D02*
X128260000Y-62847677D01*
X125106000Y-62807677D02*
X128260000Y-62807677D01*
X125129000Y-62767677D02*
X128260000Y-62767677D01*
X125153000Y-62727677D02*
X128260000Y-62727677D01*
X125177000Y-62687677D02*
X128260000Y-62687677D01*
X125202000Y-62647677D02*
X128260000Y-62647677D01*
X125228000Y-62607677D02*
X128260000Y-62607677D01*
X125253000Y-62567677D02*
X128260000Y-62567677D01*
X125280000Y-62527677D02*
X128260000Y-62527677D01*
X125307000Y-62487677D02*
X128260000Y-62487677D01*
X125334000Y-62447677D02*
X128260000Y-62447677D01*
X125362000Y-62407677D02*
X128260000Y-62407677D01*
X125391000Y-62367677D02*
X128260000Y-62367677D01*
X125420000Y-62327677D02*
X128260000Y-62327677D01*
X125450000Y-62287677D02*
X128260000Y-62287677D01*
X125480000Y-62247677D02*
X128260000Y-62247677D01*
X125512000Y-62207677D02*
X128260000Y-62207677D01*
X125543000Y-62167677D02*
X128260000Y-62167677D01*
X125576000Y-62127677D02*
X128260000Y-62127677D01*
X125609000Y-62087677D02*
X128260000Y-62087677D01*
X125642000Y-62047677D02*
X128260000Y-62047677D01*
X125677000Y-62007677D02*
X128260000Y-62007677D01*
X125712000Y-61967677D02*
X128260000Y-61967677D01*
X125748000Y-61927677D02*
X128260000Y-61927677D01*
X125784000Y-61887677D02*
X128260000Y-61887677D01*
X125822000Y-61847677D02*
X128260000Y-61847677D01*
X125860000Y-61807677D02*
X128260000Y-61807677D01*
X125899000Y-61767677D02*
X128260000Y-61767677D01*
X125939000Y-61727677D02*
X128260000Y-61727677D01*
X125980000Y-61687677D02*
X128260000Y-61687677D01*
X126022000Y-61647677D02*
X128260000Y-61647677D01*
X126065000Y-61607677D02*
X132935000Y-61607677D01*
X126109000Y-61567677D02*
X132891000Y-61567677D01*
X126125000Y-70347323D02*
X127125000Y-70347323D01*
X126153000Y-61527677D02*
X132847000Y-61527677D01*
X126199000Y-61487677D02*
X132801000Y-61487677D01*
X126246000Y-61447677D02*
X132754000Y-61447677D01*
X126295000Y-61407677D02*
X132705000Y-61407677D01*
X126344000Y-61367677D02*
X132656000Y-61367677D01*
X126395000Y-61327677D02*
X132605000Y-61327677D01*
X126447000Y-61287677D02*
X132553000Y-61287677D01*
X126500000Y-61247677D02*
X132500000Y-61247677D01*
X126555000Y-61207677D02*
X132445000Y-61207677D01*
X126612000Y-61167677D02*
X132388000Y-61167677D01*
X126625000Y-70847323D02*
X126625000Y-69847323D01*
X126670000Y-61127677D02*
X132330000Y-61127677D01*
X126730000Y-61087677D02*
X132270000Y-61087677D01*
X126792000Y-61047677D02*
X132208000Y-61047677D01*
X126856000Y-61007677D02*
X132144000Y-61007677D01*
X126922000Y-60967677D02*
X132078000Y-60967677D01*
X126990000Y-60927677D02*
X132010000Y-60927677D01*
X127061000Y-60887677D02*
X131939000Y-60887677D01*
X127135000Y-60847677D02*
X131865000Y-60847677D01*
X127212000Y-60807677D02*
X131788000Y-60807677D01*
X127292000Y-60767677D02*
X131708000Y-60767677D01*
X127376000Y-60727677D02*
X131624000Y-60727677D01*
X127463000Y-60687677D02*
X131537000Y-60687677D01*
X127556000Y-60647677D02*
X131444000Y-60647677D01*
X127654000Y-60607677D02*
X131346000Y-60607677D01*
X127758000Y-60567677D02*
X131242000Y-60567677D01*
X127870000Y-60527677D02*
X131130000Y-60527677D01*
X127991000Y-60487677D02*
X131009000Y-60487677D01*
X128123000Y-60447677D02*
X130877000Y-60447677D01*
X128270000Y-60407677D02*
X130730000Y-60407677D01*
X128438000Y-60367677D02*
X130562000Y-60367677D01*
X128638000Y-60327677D02*
X130362000Y-60327677D01*
X128901000Y-60287677D02*
X130099000Y-60287677D01*
X130740000Y-61647677D02*
X132978000Y-61647677D01*
X130740000Y-61687677D02*
X133020000Y-61687677D01*
X130740000Y-61727677D02*
X133061000Y-61727677D01*
X130740000Y-61767677D02*
X133101000Y-61767677D01*
X130740000Y-61807677D02*
X133140000Y-61807677D01*
X130740000Y-61847677D02*
X133178000Y-61847677D01*
X130740000Y-61887677D02*
X133216000Y-61887677D01*
X130740000Y-61927677D02*
X133252000Y-61927677D01*
X130740000Y-61967677D02*
X133288000Y-61967677D01*
X130740000Y-62007677D02*
X133323000Y-62007677D01*
X130740000Y-62047677D02*
X133358000Y-62047677D01*
X130740000Y-62087677D02*
X133391000Y-62087677D01*
X130740000Y-62127677D02*
X133424000Y-62127677D01*
X130740000Y-62167677D02*
X133457000Y-62167677D01*
X130740000Y-62207677D02*
X133488000Y-62207677D01*
X130740000Y-62247677D02*
X133520000Y-62247677D01*
X130740000Y-62287677D02*
X133550000Y-62287677D01*
X130740000Y-62327677D02*
X133580000Y-62327677D01*
X130740000Y-62367677D02*
X133609000Y-62367677D01*
X130740000Y-62407677D02*
X133638000Y-62407677D01*
X130740000Y-62447677D02*
X133666000Y-62447677D01*
X130740000Y-62487677D02*
X133693000Y-62487677D01*
X130740000Y-62527677D02*
X133720000Y-62527677D01*
X130740000Y-62567677D02*
X133747000Y-62567677D01*
X130740000Y-62607677D02*
X133772000Y-62607677D01*
X130740000Y-62647677D02*
X133798000Y-62647677D01*
X130740000Y-62687677D02*
X133823000Y-62687677D01*
X130740000Y-62727677D02*
X133847000Y-62727677D01*
X130740000Y-62767677D02*
X133871000Y-62767677D01*
X130740000Y-62807677D02*
X133894000Y-62807677D01*
X130740000Y-62847677D02*
X133917000Y-62847677D01*
X130740000Y-62887677D02*
X133939000Y-62887677D01*
X130740000Y-62927677D02*
X133961000Y-62927677D01*
X130740000Y-62967677D02*
X133983000Y-62967677D01*
X130740000Y-63007677D02*
X134004000Y-63007677D01*
X130740000Y-63047677D02*
X134024000Y-63047677D01*
X130740000Y-63087677D02*
X134044000Y-63087677D01*
X130740000Y-63127677D02*
X134064000Y-63127677D01*
X130740000Y-63167677D02*
X134083000Y-63167677D01*
X130740000Y-63207677D02*
X134102000Y-63207677D01*
X130740000Y-63247677D02*
X134120000Y-63247677D01*
X130740000Y-63287677D02*
X134138000Y-63287677D01*
X130740000Y-63327677D02*
X134156000Y-63327677D01*
X130740000Y-63367677D02*
X134173000Y-63367677D01*
X130740000Y-63407677D02*
X134190000Y-63407677D01*
X130740000Y-63447677D02*
X134206000Y-63447677D01*
X130740000Y-63487677D02*
X134222000Y-63487677D01*
X130740000Y-63527677D02*
X134238000Y-63527677D01*
X130740000Y-63567677D02*
X134253000Y-63567677D01*
X130740000Y-63607677D02*
X134268000Y-63607677D01*
X130740000Y-63647677D02*
X134282000Y-63647677D01*
X130740000Y-63687677D02*
X134297000Y-63687677D01*
X130740000Y-63727677D02*
X134310000Y-63727677D01*
X130740000Y-63767677D02*
X134324000Y-63767677D01*
X130740000Y-63807677D02*
X134337000Y-63807677D01*
X130740000Y-63847677D02*
X134349000Y-63847677D01*
X130740000Y-63887677D02*
X134361000Y-63887677D01*
X130740000Y-63927677D02*
X134373000Y-63927677D01*
X130740000Y-63967677D02*
X134385000Y-63967677D01*
X130740000Y-64007677D02*
X134396000Y-64007677D01*
X130740000Y-64047677D02*
X134407000Y-64047677D01*
X130740000Y-64087677D02*
X134417000Y-64087677D01*
X134620000Y-65367677D02*
G75*
G02*
X124380000Y-65367677I-5120000J0D01*
G01*
X124380000Y-65367677D02*
G75*
G02*
X134620000Y-65367677I5120000J0D01*
G01*
%TD*%
M02*
