M48
; DRILL file {KiCad 9.0.4} date 2025-09-09T23:04:10+0900
; FORMAT={-:-/ absolute / metric / decimal}
; #@! TF.CreationDate,2025-09-09T23:04:10+09:00
; #@! TF.GenerationSoftware,Kicad,Pcbnew,9.0.4
; #@! TF.FileFunction,Plated,1,2,PTH
FMAT,2
METRIC
; #@! TA.AperFunction,Plated,PTH,ViaDrill
T1C0.300
; #@! TA.AperFunction,Plated,PTH,ComponentDrill
T2C0.800
; #@! TA.AperFunction,Plated,PTH,ComponentDrill
T3C0.864
; #@! TA.AperFunction,Plated,PTH,ComponentDrill
T4C0.900
; #@! TA.AperFunction,Plated,PTH,ComponentDrill
T5C0.950
; #@! TA.AperFunction,Plated,PTH,ComponentDrill
T6C1.000
; #@! TA.AperFunction,Plated,PTH,ComponentDrill
T7C1.240
; #@! TA.AperFunction,Plated,PTH,ComponentDrill
T8C1.300
; #@! TA.AperFunction,Plated,PTH,ComponentDrill
T9C1.550
; #@! TA.AperFunction,Plated,PTH,ComponentDrill
T10C2.700
%
G90
G05
T1
X111.0Y-62.0
X111.0Y-92.0
X111.0Y-105.0
X111.0Y-115.0
X111.0Y-125.0
X111.0Y-137.0
X112.0Y-74.0
X112.0Y-85.0
X115.0Y-70.0
X115.0Y-80.0
X115.0Y-90.0
X115.0Y-100.0
X115.0Y-110.0
X115.0Y-120.0
X115.0Y-129.0
X119.2Y-86.2
X119.4Y-78.8
X120.0Y-65.0
X120.0Y-95.0
X120.0Y-105.0
X120.0Y-115.0
X120.0Y-125.0
X120.0Y-135.0
X121.0Y-71.0
X122.35Y-74.55
X123.0Y-93.0
X124.8Y-86.2
X125.0Y-62.0
X125.0Y-68.0
X125.0Y-111.205
X125.0Y-120.0
X125.0Y-130.0
X125.0Y-137.0
X125.1Y-78.85
X126.4Y-100.2
X126.4Y-107.0
X127.0Y-69.0
X127.4Y-74.8
X127.6Y-82.8
X128.8Y-94.0
X129.43Y-115.92
X129.6Y-70.3
X130.0Y-65.0
X130.0Y-135.0
X130.74Y-119.31
X130.77Y-114.18
X131.1Y-83.6
X131.14Y-103.98
X131.45Y-111.72
X131.61Y-101.58
X131.8Y-91.8
X131.85Y-82.75
X132.2Y-74.2
X132.82Y-112.97
X132.91Y-107.03
X134.59Y-111.38
X134.6Y-69.4
X134.81Y-104.32
X135.0Y-116.0
X135.0Y-130.0
X135.0Y-137.0
X136.0Y-67.0
X136.0Y-73.6
X136.64Y-101.74
X136.67Y-100.19
X136.74Y-96.77
X136.86Y-91.2
X137.4Y-61.24
X138.0Y-115.0
X138.0Y-122.0
X138.633Y-110.367
X139.0Y-108.0
X139.8Y-69.4
X140.0Y-65.0
X140.0Y-135.0
X140.06Y-103.79
X140.8Y-73.0
X141.93Y-101.61
X142.0Y-120.0
X142.749Y-93.211
X143.0Y-108.0
X143.92Y-100.31
X144.23Y-96.86
X144.98Y-91.39
X145.0Y-105.0
X145.0Y-124.0
X145.0Y-130.0
X145.0Y-137.0
X145.4Y-73.2
X146.0Y-112.0
X146.0Y-120.0
X146.05Y-77.15
X146.2Y-69.6
X147.0Y-114.0
X148.0Y-109.0
X148.161Y-95.359
X148.6Y-73.2
X150.0Y-65.0
X151.0Y-73.0
X151.0Y-110.0
X151.0Y-117.0
X151.0Y-120.961
X151.0Y-127.0
X151.6Y-77.0
X152.31Y-100.53
X153.0Y-107.0
X153.0Y-113.0
X154.1Y-93.8
X154.2Y-78.8
X155.0Y-62.0
X155.0Y-70.0
X155.0Y-132.0
X155.0Y-137.0
X155.221Y-123.0
X155.221Y-127.0
X155.6Y-84.2
X156.2Y-89.4
X156.4Y-93.6
X157.4Y-77.2
X157.6Y-80.8
X158.0Y-108.0
X158.02Y-85.27
X158.82Y-111.18
X159.0Y-106.0
X159.6Y-99.2
X160.0Y-65.0
X160.0Y-73.0
X160.0Y-78.8
X160.0Y-83.2
X160.0Y-135.0
X160.2Y-85.6
X160.2Y-96.0
X160.35Y-88.35
X160.45Y-120.46
X162.3Y-91.4
X162.6Y-97.0
X162.8Y-77.0
X162.8Y-102.2
X162.8Y-118.6
X163.976Y-91.776
X163.98Y-89.15
X165.0Y-62.0
X165.0Y-70.0
X165.0Y-107.0
X165.0Y-137.0
X165.4Y-82.4
X166.2Y-88.5
X166.8Y-92.4
X166.8Y-104.2
X167.0Y-110.0
X167.6Y-78.8
X167.8Y-118.6
X168.295Y-85.4
X168.4Y-122.0
X168.621Y-113.979
X168.918Y-98.518
X170.0Y-65.0
X170.0Y-126.0
X170.0Y-135.0
X171.6Y-78.4
X171.6Y-80.6
X171.6Y-83.4
X171.6Y-86.0
X171.6Y-88.4
X171.6Y-96.0
X171.6Y-98.4
X171.6Y-103.8
X171.6Y-114.0
X171.6Y-121.6
X171.6Y-124.0
X171.8Y-106.2
X171.8Y-108.8
X171.8Y-111.4
X171.8Y-116.6
X175.0Y-62.0
X175.0Y-70.0
X175.0Y-100.0
X175.0Y-110.0
X175.0Y-120.0
X175.0Y-130.0
X175.0Y-137.0
X180.0Y-65.0
X180.0Y-75.0
X180.0Y-85.0
X180.0Y-95.0
X180.0Y-105.0
X180.0Y-115.0
X180.0Y-123.4
X180.0Y-126.0
X180.0Y-135.0
X185.0Y-62.0
X185.0Y-70.0
X185.0Y-80.0
X185.0Y-90.0
X185.0Y-100.0
X185.0Y-110.0
X185.0Y-120.0
X185.0Y-130.0
X185.0Y-137.0
X190.0Y-65.0
X190.0Y-75.0
X190.0Y-85.0
X190.0Y-95.0
X190.0Y-105.0
X190.0Y-115.0
X190.0Y-123.6
X190.0Y-126.0
X190.0Y-135.0
X195.0Y-62.0
X195.0Y-80.0
X195.0Y-90.0
X195.0Y-100.0
X195.0Y-110.0
X195.0Y-120.0
X195.0Y-130.0
X195.0Y-137.0
X197.0Y-70.0
X200.0Y-65.0
X200.0Y-75.0
X200.0Y-85.0
X200.0Y-95.0
X200.0Y-105.0
X200.0Y-115.0
X200.0Y-126.0
X200.0Y-135.0
X200.4Y-123.4
X205.0Y-70.0
X205.0Y-80.0
X205.0Y-90.0
X205.0Y-100.0
X205.0Y-110.0
X205.0Y-120.0
X206.4Y-75.0
X206.8Y-85.0
X207.0Y-61.0
X207.0Y-95.0
X207.0Y-126.0
X207.0Y-130.0
X207.0Y-137.0
X207.2Y-105.2
X207.4Y-115.2
X207.4Y-123.8
T2
X119.9Y-77.0
X119.92Y-80.6
X121.8Y-111.205
X121.8Y-113.705
X125.1Y-73.1
X127.0Y-109.8
X127.0Y-114.8
X130.06Y-77.0
X130.08Y-80.6
X130.1Y-73.1
X132.405Y-109.9
X132.405Y-114.9
X133.6Y-62.6
X133.6Y-72.76
X134.472Y-91.414
X134.492Y-95.114
X134.492Y-98.714
X136.4Y-112.0
X138.9Y-112.0
X139.472Y-91.414
X142.4Y-114.7
X144.652Y-95.114
X144.652Y-98.714
X144.9Y-114.7
X148.5Y-105.42
X148.5Y-115.58
X153.6Y-105.42
X153.6Y-115.58
X157.58Y-110.3
X157.58Y-112.84
X157.58Y-115.38
X157.58Y-117.92
X165.2Y-110.3
X165.2Y-112.84
X165.2Y-115.38
X165.2Y-117.92
T3
X157.28Y-96.6
X157.28Y-99.14
X157.28Y-101.68
X157.28Y-104.22
X164.9Y-96.6
X164.9Y-99.14
X164.9Y-101.68
X164.9Y-104.22
T4
X119.96Y-84.4
X122.5Y-84.4
X128.88Y-105.7
X136.5Y-105.7
X143.9Y-102.69
X143.9Y-110.31
X148.53Y-98.7
X151.07Y-98.7
X153.6Y-118.36
X153.6Y-120.9
T5
X151.5Y-82.4
X154.0Y-82.4
X156.5Y-82.4
T6
X158.4Y-124.3
X158.4Y-126.84
X158.4Y-129.38
X162.1Y-124.3
X162.1Y-126.84
X162.1Y-129.38
X165.8Y-124.3
X165.8Y-126.84
X165.8Y-129.38
X170.33Y-74.47
X170.33Y-77.01
X170.33Y-79.55
X170.33Y-82.09
X170.33Y-84.63
X170.33Y-87.17
X170.33Y-89.71
X170.33Y-92.25
X170.33Y-94.79
X170.33Y-97.33
X170.33Y-99.87
X170.33Y-102.41
X170.33Y-104.95
X170.33Y-107.49
X170.33Y-110.03
X170.33Y-112.57
X170.33Y-115.11
X170.33Y-117.65
X170.33Y-120.19
X170.33Y-122.73
X172.87Y-74.47
X172.87Y-77.01
X172.87Y-79.55
X172.87Y-82.09
X172.87Y-84.63
X172.87Y-87.17
X172.87Y-89.71
X172.87Y-92.25
X172.87Y-94.79
X172.87Y-97.33
X172.87Y-99.87
X172.87Y-102.41
X172.87Y-104.95
X172.87Y-107.49
X172.87Y-110.03
X172.87Y-112.57
X172.87Y-115.11
X172.87Y-117.65
X172.87Y-120.19
X172.87Y-122.73
T7
X129.865Y-121.79
X132.405Y-121.79
X134.945Y-121.79
T8
X138.395Y-72.88
X140.895Y-62.88
X143.395Y-72.88
X147.6Y-124.1
X150.1Y-134.1
X152.6Y-124.1
T9
X123.605Y-127.0
X141.205Y-127.0
T10
X120.3Y-89.8
X125.3Y-89.8
T6
G00X119.4Y-98.95
M15
G01X119.4Y-97.85
M16
G05
G00X124.1Y-98.95
M15
G01X124.1Y-97.85
M16
G05
G00X128.8Y-98.95
M15
G01X128.8Y-97.85
M16
G05
M30
