%TF.GenerationSoftware,KiCad,Pcbnew,9.0.4*%
%TF.CreationDate,2025-09-08T14:57:01+09:00*%
%TF.ProjectId,Arm_Main,41726d5f-4d61-4696-9e2e-6b696361645f,rev?*%
%TF.SameCoordinates,Original*%
%TF.FileFunction,Soldermask,Bot*%
%TF.FilePolarity,Negative*%
%FSLAX46Y46*%
G04 Gerber Fmt 4.6, Leading zero omitted, Abs format (unit mm)*
G04 Created by KiCad (PCBNEW 9.0.4) date 2025-09-08 14:57:01*
%MOMM*%
%LPD*%
G01*
G04 APERTURE LIST*
G04 Aperture macros list*
%AMRoundRect*
0 Rectangle with rounded corners*
0 $1 Rounding radius*
0 $2 $3 $4 $5 $6 $7 $8 $9 X,Y pos of 4 corners*
0 Add a 4 corners polygon primitive as box body*
4,1,4,$2,$3,$4,$5,$6,$7,$8,$9,$2,$3,0*
0 Add four circle primitives for the rounded corners*
1,1,$1+$1,$2,$3*
1,1,$1+$1,$4,$5*
1,1,$1+$1,$6,$7*
1,1,$1+$1,$8,$9*
0 Add four rect primitives between the rounded corners*
20,1,$1+$1,$2,$3,$4,$5,0*
20,1,$1+$1,$4,$5,$6,$7,0*
20,1,$1+$1,$6,$7,$8,$9,0*
20,1,$1+$1,$8,$9,$2,$3,0*%
G04 Aperture macros list end*
%ADD10C,1.600000*%
%ADD11C,2.340000*%
%ADD12R,1.700000X1.700000*%
%ADD13C,1.700000*%
%ADD14RoundRect,0.250000X0.550000X-0.550000X0.550000X0.550000X-0.550000X0.550000X-0.550000X-0.550000X0*%
%ADD15R,1.800000X1.800000*%
%ADD16C,1.800000*%
%ADD17RoundRect,0.250000X-0.650000X-0.650000X0.650000X-0.650000X0.650000X0.650000X-0.650000X0.650000X0*%
%ADD18RoundRect,0.250000X0.550000X0.550000X-0.550000X0.550000X-0.550000X-0.550000X0.550000X-0.550000X0*%
%ADD19R,1.371600X1.371600*%
%ADD20C,1.371600*%
%ADD21RoundRect,0.760000X1.140000X-1.140000X1.140000X1.140000X-1.140000X1.140000X-1.140000X-1.140000X0*%
%ADD22C,4.000000*%
%ADD23RoundRect,0.250000X-0.650000X0.650000X-0.650000X-0.650000X0.650000X-0.650000X0.650000X0.650000X0*%
%ADD24RoundRect,0.102000X0.930000X0.930000X-0.930000X0.930000X-0.930000X-0.930000X0.930000X-0.930000X0*%
%ADD25C,2.064000*%
%ADD26C,2.500000*%
%ADD27R,1.200000X1.200000*%
%ADD28C,1.200000*%
%ADD29RoundRect,0.250000X0.725000X-0.600000X0.725000X0.600000X-0.725000X0.600000X-0.725000X-0.600000X0*%
%ADD30O,1.950000X1.700000*%
%ADD31C,3.000000*%
%ADD32C,2.750000*%
%ADD33RoundRect,0.102000X-0.754000X0.754000X-0.754000X-0.754000X0.754000X-0.754000X0.754000X0.754000X0*%
%ADD34C,1.712000*%
G04 APERTURE END LIST*
D10*
%TO.C,C2*%
X124000000Y-62580000D03*
X124000000Y-57580000D03*
%TD*%
D11*
%TO.C,RV1*%
X110855000Y-89770000D03*
X113355000Y-99770000D03*
X115855000Y-89770000D03*
%TD*%
D10*
%TO.C,R5*%
X115000000Y-65160000D03*
X115000000Y-55000000D03*
%TD*%
D12*
%TO.C,J6*%
X149000000Y-129180000D03*
D13*
X146460000Y-129180000D03*
X143920000Y-129180000D03*
%TD*%
D14*
%TO.C,C5*%
X131350000Y-113770000D03*
D10*
X131350000Y-111270000D03*
%TD*%
%TO.C,R2*%
X119000000Y-65160000D03*
X119000000Y-55000000D03*
%TD*%
%TO.C,R3*%
X123350000Y-99850000D03*
X123350000Y-89690000D03*
%TD*%
D15*
%TO.C,D1*%
X90350000Y-75770000D03*
D16*
X92890000Y-75770000D03*
%TD*%
D17*
%TO.C,D3*%
X105540000Y-104770000D03*
D16*
X113160000Y-104770000D03*
%TD*%
D10*
%TO.C,C6*%
X116350000Y-104770000D03*
X121350000Y-104770000D03*
%TD*%
D11*
%TO.C,RV2*%
X128855000Y-117770000D03*
X131355000Y-127770000D03*
X133855000Y-117770000D03*
%TD*%
D18*
%TO.C,C4*%
X102350000Y-110770000D03*
D10*
X99850000Y-110770000D03*
%TD*%
%TO.C,C3*%
X102350000Y-101770000D03*
X97350000Y-101770000D03*
%TD*%
D19*
%TO.C,U2*%
X111350000Y-61770000D03*
D20*
X111350000Y-59230000D03*
X111350000Y-56690000D03*
X111350000Y-54150000D03*
X103730000Y-54150000D03*
X103730000Y-56690000D03*
X103730000Y-59230000D03*
X103730000Y-61770000D03*
%TD*%
D21*
%TO.C,J2*%
X84050000Y-95270000D03*
D22*
X84050000Y-90270000D03*
%TD*%
D12*
%TO.C,J4*%
X149000000Y-120000000D03*
D13*
X146460000Y-120000000D03*
X143920000Y-120000000D03*
%TD*%
D23*
%TO.C,D4*%
X123350000Y-109770000D03*
D16*
X123350000Y-117390000D03*
%TD*%
D15*
%TO.C,D2*%
X117500000Y-50000000D03*
D16*
X114960000Y-50000000D03*
%TD*%
D10*
%TO.C,R4*%
X105430000Y-75770000D03*
X95270000Y-75770000D03*
%TD*%
%TO.C,C1*%
X102850000Y-71770000D03*
X97850000Y-71770000D03*
%TD*%
D24*
%TO.C,VR1*%
X108890000Y-134260000D03*
D25*
X106350000Y-134260000D03*
X103810000Y-134260000D03*
%TD*%
D26*
%TO.C,HS1*%
X115200000Y-138600000D03*
X97600000Y-138600000D03*
%TD*%
D12*
%TO.C,J5*%
X149000000Y-124590000D03*
D13*
X146460000Y-124590000D03*
X143920000Y-124590000D03*
%TD*%
D19*
%TO.C,U3*%
X137810000Y-92810000D03*
D20*
X137810000Y-90270000D03*
X137810000Y-87730000D03*
X137810000Y-85190000D03*
X130190000Y-85190000D03*
X130190000Y-87730000D03*
X130190000Y-90270000D03*
X130190000Y-92810000D03*
%TD*%
D27*
%TO.C,IC1*%
X137810000Y-105620000D03*
D28*
X137810000Y-103080000D03*
X137810000Y-100540000D03*
X137810000Y-98000000D03*
X130190000Y-98000000D03*
X130190000Y-100540000D03*
X130190000Y-103080000D03*
X130190000Y-105620000D03*
%TD*%
D18*
%TO.C,C7*%
X108350000Y-110770000D03*
D10*
X105850000Y-110770000D03*
%TD*%
%TO.C,R1*%
X105510000Y-80770000D03*
X95350000Y-80770000D03*
%TD*%
D29*
%TO.C,J1*%
X90825000Y-62270000D03*
D30*
X90825000Y-59770000D03*
X90825000Y-57270000D03*
%TD*%
D10*
%TO.C,R6*%
X116350000Y-118930000D03*
X116350000Y-108770000D03*
%TD*%
D31*
%TO.C,SW2*%
X102350000Y-90770000D03*
X97650000Y-90770000D03*
X92950000Y-90770000D03*
%TD*%
D32*
%TO.C,U1*%
X168730000Y-53590000D03*
X145730000Y-53590000D03*
X168730000Y-111590000D03*
X145730000Y-111590000D03*
D33*
X147000000Y-58460000D03*
D34*
X144460000Y-58460000D03*
X147000000Y-61000000D03*
X144460000Y-61000000D03*
X147000000Y-63540000D03*
X144460000Y-63540000D03*
X147000000Y-66080000D03*
X144460000Y-66080000D03*
X147000000Y-68620000D03*
X144460000Y-68620000D03*
X147000000Y-71160000D03*
X144460000Y-71160000D03*
X147000000Y-73700000D03*
X144460000Y-73700000D03*
X147000000Y-76240000D03*
X144460000Y-76240000D03*
X147000000Y-78780000D03*
X144460000Y-78780000D03*
X147000000Y-81320000D03*
X144460000Y-81320000D03*
X147000000Y-83860000D03*
X144460000Y-83860000D03*
X147000000Y-86400000D03*
X144460000Y-86400000D03*
X147000000Y-88940000D03*
X144460000Y-88940000D03*
X147000000Y-91480000D03*
X144460000Y-91480000D03*
X147000000Y-94020000D03*
X144460000Y-94020000D03*
X147000000Y-96560000D03*
X144460000Y-96560000D03*
X147000000Y-99100000D03*
X144460000Y-99100000D03*
X147000000Y-101640000D03*
X144460000Y-101640000D03*
X147000000Y-104180000D03*
X144460000Y-104180000D03*
X147000000Y-106720000D03*
X144460000Y-106720000D03*
%TD*%
M02*
