%TF.GenerationSoftware,KiCad,Pcbnew,9.0.4*%
%TF.CreationDate,2025-09-08T14:54:06+09:00*%
%TF.ProjectId,Arm_Main,41726d5f-4d61-4696-9e2e-6b696361645f,rev?*%
%TF.SameCoordinates,Original*%
%TF.FileFunction,Legend,Top*%
%TF.FilePolarity,Positive*%
%FSLAX46Y46*%
G04 Gerber Fmt 4.6, Leading zero omitted, Abs format (unit mm)*
G04 Created by KiCad (PCBNEW 9.0.4) date 2025-09-08 14:54:06*
%MOMM*%
%LPD*%
G01*
G04 APERTURE LIST*
%ADD10C,0.100000*%
%ADD11C,0.150000*%
%ADD12C,0.254000*%
%ADD13C,0.120000*%
%ADD14C,0.152400*%
%ADD15C,0.127000*%
%ADD16C,0.200000*%
%ADD17C,0.250000*%
G04 APERTURE END LIST*
D10*
X157156265Y-42086704D02*
X157632455Y-42086704D01*
X157061027Y-42372419D02*
X157394360Y-41372419D01*
X157394360Y-41372419D02*
X157727693Y-42372419D01*
X158632455Y-42372419D02*
X158299122Y-41896228D01*
X158061027Y-42372419D02*
X158061027Y-41372419D01*
X158061027Y-41372419D02*
X158441979Y-41372419D01*
X158441979Y-41372419D02*
X158537217Y-41420038D01*
X158537217Y-41420038D02*
X158584836Y-41467657D01*
X158584836Y-41467657D02*
X158632455Y-41562895D01*
X158632455Y-41562895D02*
X158632455Y-41705752D01*
X158632455Y-41705752D02*
X158584836Y-41800990D01*
X158584836Y-41800990D02*
X158537217Y-41848609D01*
X158537217Y-41848609D02*
X158441979Y-41896228D01*
X158441979Y-41896228D02*
X158061027Y-41896228D01*
X159061027Y-42372419D02*
X159061027Y-41372419D01*
X159061027Y-41372419D02*
X159394360Y-42086704D01*
X159394360Y-42086704D02*
X159727693Y-41372419D01*
X159727693Y-41372419D02*
X159727693Y-42372419D01*
X159965789Y-42467657D02*
X160727693Y-42467657D01*
X160965789Y-42372419D02*
X160965789Y-41372419D01*
X160965789Y-41372419D02*
X161299122Y-42086704D01*
X161299122Y-42086704D02*
X161632455Y-41372419D01*
X161632455Y-41372419D02*
X161632455Y-42372419D01*
X162537217Y-42372419D02*
X162537217Y-41848609D01*
X162537217Y-41848609D02*
X162489598Y-41753371D01*
X162489598Y-41753371D02*
X162394360Y-41705752D01*
X162394360Y-41705752D02*
X162203884Y-41705752D01*
X162203884Y-41705752D02*
X162108646Y-41753371D01*
X162537217Y-42324800D02*
X162441979Y-42372419D01*
X162441979Y-42372419D02*
X162203884Y-42372419D01*
X162203884Y-42372419D02*
X162108646Y-42324800D01*
X162108646Y-42324800D02*
X162061027Y-42229561D01*
X162061027Y-42229561D02*
X162061027Y-42134323D01*
X162061027Y-42134323D02*
X162108646Y-42039085D01*
X162108646Y-42039085D02*
X162203884Y-41991466D01*
X162203884Y-41991466D02*
X162441979Y-41991466D01*
X162441979Y-41991466D02*
X162537217Y-41943847D01*
X163013408Y-42372419D02*
X163013408Y-41705752D01*
X163013408Y-41372419D02*
X162965789Y-41420038D01*
X162965789Y-41420038D02*
X163013408Y-41467657D01*
X163013408Y-41467657D02*
X163061027Y-41420038D01*
X163061027Y-41420038D02*
X163013408Y-41372419D01*
X163013408Y-41372419D02*
X163013408Y-41467657D01*
X163489598Y-41705752D02*
X163489598Y-42372419D01*
X163489598Y-41800990D02*
X163537217Y-41753371D01*
X163537217Y-41753371D02*
X163632455Y-41705752D01*
X163632455Y-41705752D02*
X163775312Y-41705752D01*
X163775312Y-41705752D02*
X163870550Y-41753371D01*
X163870550Y-41753371D02*
X163918169Y-41848609D01*
X163918169Y-41848609D02*
X163918169Y-42372419D01*
X164156265Y-42467657D02*
X164918169Y-42467657D01*
X165061027Y-41705752D02*
X165299122Y-42372419D01*
X165299122Y-42372419D02*
X165537217Y-41705752D01*
X166299122Y-42324800D02*
X166203884Y-42372419D01*
X166203884Y-42372419D02*
X166013408Y-42372419D01*
X166013408Y-42372419D02*
X165918170Y-42324800D01*
X165918170Y-42324800D02*
X165870551Y-42229561D01*
X165870551Y-42229561D02*
X165870551Y-41848609D01*
X165870551Y-41848609D02*
X165918170Y-41753371D01*
X165918170Y-41753371D02*
X166013408Y-41705752D01*
X166013408Y-41705752D02*
X166203884Y-41705752D01*
X166203884Y-41705752D02*
X166299122Y-41753371D01*
X166299122Y-41753371D02*
X166346741Y-41848609D01*
X166346741Y-41848609D02*
X166346741Y-41943847D01*
X166346741Y-41943847D02*
X165870551Y-42039085D01*
X166775313Y-42372419D02*
X166775313Y-41705752D01*
X166775313Y-41896228D02*
X166822932Y-41800990D01*
X166822932Y-41800990D02*
X166870551Y-41753371D01*
X166870551Y-41753371D02*
X166965789Y-41705752D01*
X166965789Y-41705752D02*
X167061027Y-41705752D01*
X167822932Y-41372419D02*
X167632456Y-41372419D01*
X167632456Y-41372419D02*
X167537218Y-41420038D01*
X167537218Y-41420038D02*
X167489599Y-41467657D01*
X167489599Y-41467657D02*
X167394361Y-41610514D01*
X167394361Y-41610514D02*
X167346742Y-41800990D01*
X167346742Y-41800990D02*
X167346742Y-42181942D01*
X167346742Y-42181942D02*
X167394361Y-42277180D01*
X167394361Y-42277180D02*
X167441980Y-42324800D01*
X167441980Y-42324800D02*
X167537218Y-42372419D01*
X167537218Y-42372419D02*
X167727694Y-42372419D01*
X167727694Y-42372419D02*
X167822932Y-42324800D01*
X167822932Y-42324800D02*
X167870551Y-42277180D01*
X167870551Y-42277180D02*
X167918170Y-42181942D01*
X167918170Y-42181942D02*
X167918170Y-41943847D01*
X167918170Y-41943847D02*
X167870551Y-41848609D01*
X167870551Y-41848609D02*
X167822932Y-41800990D01*
X167822932Y-41800990D02*
X167727694Y-41753371D01*
X167727694Y-41753371D02*
X167537218Y-41753371D01*
X167537218Y-41753371D02*
X167441980Y-41800990D01*
X167441980Y-41800990D02*
X167394361Y-41848609D01*
X167394361Y-41848609D02*
X167346742Y-41943847D01*
D11*
X121509580Y-60246666D02*
X121557200Y-60294285D01*
X121557200Y-60294285D02*
X121604819Y-60437142D01*
X121604819Y-60437142D02*
X121604819Y-60532380D01*
X121604819Y-60532380D02*
X121557200Y-60675237D01*
X121557200Y-60675237D02*
X121461961Y-60770475D01*
X121461961Y-60770475D02*
X121366723Y-60818094D01*
X121366723Y-60818094D02*
X121176247Y-60865713D01*
X121176247Y-60865713D02*
X121033390Y-60865713D01*
X121033390Y-60865713D02*
X120842914Y-60818094D01*
X120842914Y-60818094D02*
X120747676Y-60770475D01*
X120747676Y-60770475D02*
X120652438Y-60675237D01*
X120652438Y-60675237D02*
X120604819Y-60532380D01*
X120604819Y-60532380D02*
X120604819Y-60437142D01*
X120604819Y-60437142D02*
X120652438Y-60294285D01*
X120652438Y-60294285D02*
X120700057Y-60246666D01*
X120700057Y-59865713D02*
X120652438Y-59818094D01*
X120652438Y-59818094D02*
X120604819Y-59722856D01*
X120604819Y-59722856D02*
X120604819Y-59484761D01*
X120604819Y-59484761D02*
X120652438Y-59389523D01*
X120652438Y-59389523D02*
X120700057Y-59341904D01*
X120700057Y-59341904D02*
X120795295Y-59294285D01*
X120795295Y-59294285D02*
X120890533Y-59294285D01*
X120890533Y-59294285D02*
X121033390Y-59341904D01*
X121033390Y-59341904D02*
X121604819Y-59913332D01*
X121604819Y-59913332D02*
X121604819Y-59294285D01*
X119959819Y-95365238D02*
X119483628Y-95698571D01*
X119959819Y-95936666D02*
X118959819Y-95936666D01*
X118959819Y-95936666D02*
X118959819Y-95555714D01*
X118959819Y-95555714D02*
X119007438Y-95460476D01*
X119007438Y-95460476D02*
X119055057Y-95412857D01*
X119055057Y-95412857D02*
X119150295Y-95365238D01*
X119150295Y-95365238D02*
X119293152Y-95365238D01*
X119293152Y-95365238D02*
X119388390Y-95412857D01*
X119388390Y-95412857D02*
X119436009Y-95460476D01*
X119436009Y-95460476D02*
X119483628Y-95555714D01*
X119483628Y-95555714D02*
X119483628Y-95936666D01*
X118959819Y-95079523D02*
X119959819Y-94746190D01*
X119959819Y-94746190D02*
X118959819Y-94412857D01*
X119959819Y-93555714D02*
X119959819Y-94127142D01*
X119959819Y-93841428D02*
X118959819Y-93841428D01*
X118959819Y-93841428D02*
X119102676Y-93936666D01*
X119102676Y-93936666D02*
X119197914Y-94031904D01*
X119197914Y-94031904D02*
X119245533Y-94127142D01*
X113084819Y-60246666D02*
X112608628Y-60579999D01*
X113084819Y-60818094D02*
X112084819Y-60818094D01*
X112084819Y-60818094D02*
X112084819Y-60437142D01*
X112084819Y-60437142D02*
X112132438Y-60341904D01*
X112132438Y-60341904D02*
X112180057Y-60294285D01*
X112180057Y-60294285D02*
X112275295Y-60246666D01*
X112275295Y-60246666D02*
X112418152Y-60246666D01*
X112418152Y-60246666D02*
X112513390Y-60294285D01*
X112513390Y-60294285D02*
X112561009Y-60341904D01*
X112561009Y-60341904D02*
X112608628Y-60437142D01*
X112608628Y-60437142D02*
X112608628Y-60818094D01*
X112084819Y-59341904D02*
X112084819Y-59818094D01*
X112084819Y-59818094D02*
X112561009Y-59865713D01*
X112561009Y-59865713D02*
X112513390Y-59818094D01*
X112513390Y-59818094D02*
X112465771Y-59722856D01*
X112465771Y-59722856D02*
X112465771Y-59484761D01*
X112465771Y-59484761D02*
X112513390Y-59389523D01*
X112513390Y-59389523D02*
X112561009Y-59341904D01*
X112561009Y-59341904D02*
X112656247Y-59294285D01*
X112656247Y-59294285D02*
X112894342Y-59294285D01*
X112894342Y-59294285D02*
X112989580Y-59341904D01*
X112989580Y-59341904D02*
X113037200Y-59389523D01*
X113037200Y-59389523D02*
X113084819Y-59484761D01*
X113084819Y-59484761D02*
X113084819Y-59722856D01*
X113084819Y-59722856D02*
X113037200Y-59818094D01*
X113037200Y-59818094D02*
X112989580Y-59865713D01*
X150834819Y-129513333D02*
X151549104Y-129513333D01*
X151549104Y-129513333D02*
X151691961Y-129560952D01*
X151691961Y-129560952D02*
X151787200Y-129656190D01*
X151787200Y-129656190D02*
X151834819Y-129799047D01*
X151834819Y-129799047D02*
X151834819Y-129894285D01*
X150834819Y-128608571D02*
X150834819Y-128799047D01*
X150834819Y-128799047D02*
X150882438Y-128894285D01*
X150882438Y-128894285D02*
X150930057Y-128941904D01*
X150930057Y-128941904D02*
X151072914Y-129037142D01*
X151072914Y-129037142D02*
X151263390Y-129084761D01*
X151263390Y-129084761D02*
X151644342Y-129084761D01*
X151644342Y-129084761D02*
X151739580Y-129037142D01*
X151739580Y-129037142D02*
X151787200Y-128989523D01*
X151787200Y-128989523D02*
X151834819Y-128894285D01*
X151834819Y-128894285D02*
X151834819Y-128703809D01*
X151834819Y-128703809D02*
X151787200Y-128608571D01*
X151787200Y-128608571D02*
X151739580Y-128560952D01*
X151739580Y-128560952D02*
X151644342Y-128513333D01*
X151644342Y-128513333D02*
X151406247Y-128513333D01*
X151406247Y-128513333D02*
X151311009Y-128560952D01*
X151311009Y-128560952D02*
X151263390Y-128608571D01*
X151263390Y-128608571D02*
X151215771Y-128703809D01*
X151215771Y-128703809D02*
X151215771Y-128894285D01*
X151215771Y-128894285D02*
X151263390Y-128989523D01*
X151263390Y-128989523D02*
X151311009Y-129037142D01*
X151311009Y-129037142D02*
X151406247Y-129084761D01*
X127959580Y-112686666D02*
X128007200Y-112734285D01*
X128007200Y-112734285D02*
X128054819Y-112877142D01*
X128054819Y-112877142D02*
X128054819Y-112972380D01*
X128054819Y-112972380D02*
X128007200Y-113115237D01*
X128007200Y-113115237D02*
X127911961Y-113210475D01*
X127911961Y-113210475D02*
X127816723Y-113258094D01*
X127816723Y-113258094D02*
X127626247Y-113305713D01*
X127626247Y-113305713D02*
X127483390Y-113305713D01*
X127483390Y-113305713D02*
X127292914Y-113258094D01*
X127292914Y-113258094D02*
X127197676Y-113210475D01*
X127197676Y-113210475D02*
X127102438Y-113115237D01*
X127102438Y-113115237D02*
X127054819Y-112972380D01*
X127054819Y-112972380D02*
X127054819Y-112877142D01*
X127054819Y-112877142D02*
X127102438Y-112734285D01*
X127102438Y-112734285D02*
X127150057Y-112686666D01*
X127054819Y-111781904D02*
X127054819Y-112258094D01*
X127054819Y-112258094D02*
X127531009Y-112305713D01*
X127531009Y-112305713D02*
X127483390Y-112258094D01*
X127483390Y-112258094D02*
X127435771Y-112162856D01*
X127435771Y-112162856D02*
X127435771Y-111924761D01*
X127435771Y-111924761D02*
X127483390Y-111829523D01*
X127483390Y-111829523D02*
X127531009Y-111781904D01*
X127531009Y-111781904D02*
X127626247Y-111734285D01*
X127626247Y-111734285D02*
X127864342Y-111734285D01*
X127864342Y-111734285D02*
X127959580Y-111781904D01*
X127959580Y-111781904D02*
X128007200Y-111829523D01*
X128007200Y-111829523D02*
X128054819Y-111924761D01*
X128054819Y-111924761D02*
X128054819Y-112162856D01*
X128054819Y-112162856D02*
X128007200Y-112258094D01*
X128007200Y-112258094D02*
X127959580Y-112305713D01*
X117084819Y-60246666D02*
X116608628Y-60579999D01*
X117084819Y-60818094D02*
X116084819Y-60818094D01*
X116084819Y-60818094D02*
X116084819Y-60437142D01*
X116084819Y-60437142D02*
X116132438Y-60341904D01*
X116132438Y-60341904D02*
X116180057Y-60294285D01*
X116180057Y-60294285D02*
X116275295Y-60246666D01*
X116275295Y-60246666D02*
X116418152Y-60246666D01*
X116418152Y-60246666D02*
X116513390Y-60294285D01*
X116513390Y-60294285D02*
X116561009Y-60341904D01*
X116561009Y-60341904D02*
X116608628Y-60437142D01*
X116608628Y-60437142D02*
X116608628Y-60818094D01*
X116180057Y-59865713D02*
X116132438Y-59818094D01*
X116132438Y-59818094D02*
X116084819Y-59722856D01*
X116084819Y-59722856D02*
X116084819Y-59484761D01*
X116084819Y-59484761D02*
X116132438Y-59389523D01*
X116132438Y-59389523D02*
X116180057Y-59341904D01*
X116180057Y-59341904D02*
X116275295Y-59294285D01*
X116275295Y-59294285D02*
X116370533Y-59294285D01*
X116370533Y-59294285D02*
X116513390Y-59341904D01*
X116513390Y-59341904D02*
X117084819Y-59913332D01*
X117084819Y-59913332D02*
X117084819Y-59294285D01*
X121434819Y-94936666D02*
X120958628Y-95269999D01*
X121434819Y-95508094D02*
X120434819Y-95508094D01*
X120434819Y-95508094D02*
X120434819Y-95127142D01*
X120434819Y-95127142D02*
X120482438Y-95031904D01*
X120482438Y-95031904D02*
X120530057Y-94984285D01*
X120530057Y-94984285D02*
X120625295Y-94936666D01*
X120625295Y-94936666D02*
X120768152Y-94936666D01*
X120768152Y-94936666D02*
X120863390Y-94984285D01*
X120863390Y-94984285D02*
X120911009Y-95031904D01*
X120911009Y-95031904D02*
X120958628Y-95127142D01*
X120958628Y-95127142D02*
X120958628Y-95508094D01*
X120434819Y-94603332D02*
X120434819Y-93984285D01*
X120434819Y-93984285D02*
X120815771Y-94317618D01*
X120815771Y-94317618D02*
X120815771Y-94174761D01*
X120815771Y-94174761D02*
X120863390Y-94079523D01*
X120863390Y-94079523D02*
X120911009Y-94031904D01*
X120911009Y-94031904D02*
X121006247Y-93984285D01*
X121006247Y-93984285D02*
X121244342Y-93984285D01*
X121244342Y-93984285D02*
X121339580Y-94031904D01*
X121339580Y-94031904D02*
X121387200Y-94079523D01*
X121387200Y-94079523D02*
X121434819Y-94174761D01*
X121434819Y-94174761D02*
X121434819Y-94460475D01*
X121434819Y-94460475D02*
X121387200Y-94555713D01*
X121387200Y-94555713D02*
X121339580Y-94603332D01*
X90881905Y-73264819D02*
X90881905Y-72264819D01*
X90881905Y-72264819D02*
X91120000Y-72264819D01*
X91120000Y-72264819D02*
X91262857Y-72312438D01*
X91262857Y-72312438D02*
X91358095Y-72407676D01*
X91358095Y-72407676D02*
X91405714Y-72502914D01*
X91405714Y-72502914D02*
X91453333Y-72693390D01*
X91453333Y-72693390D02*
X91453333Y-72836247D01*
X91453333Y-72836247D02*
X91405714Y-73026723D01*
X91405714Y-73026723D02*
X91358095Y-73121961D01*
X91358095Y-73121961D02*
X91262857Y-73217200D01*
X91262857Y-73217200D02*
X91120000Y-73264819D01*
X91120000Y-73264819D02*
X90881905Y-73264819D01*
X92405714Y-73264819D02*
X91834286Y-73264819D01*
X92120000Y-73264819D02*
X92120000Y-72264819D01*
X92120000Y-72264819D02*
X92024762Y-72407676D01*
X92024762Y-72407676D02*
X91929524Y-72502914D01*
X91929524Y-72502914D02*
X91834286Y-72550533D01*
X108611905Y-102754819D02*
X108611905Y-101754819D01*
X108611905Y-101754819D02*
X108850000Y-101754819D01*
X108850000Y-101754819D02*
X108992857Y-101802438D01*
X108992857Y-101802438D02*
X109088095Y-101897676D01*
X109088095Y-101897676D02*
X109135714Y-101992914D01*
X109135714Y-101992914D02*
X109183333Y-102183390D01*
X109183333Y-102183390D02*
X109183333Y-102326247D01*
X109183333Y-102326247D02*
X109135714Y-102516723D01*
X109135714Y-102516723D02*
X109088095Y-102611961D01*
X109088095Y-102611961D02*
X108992857Y-102707200D01*
X108992857Y-102707200D02*
X108850000Y-102754819D01*
X108850000Y-102754819D02*
X108611905Y-102754819D01*
X109516667Y-101754819D02*
X110135714Y-101754819D01*
X110135714Y-101754819D02*
X109802381Y-102135771D01*
X109802381Y-102135771D02*
X109945238Y-102135771D01*
X109945238Y-102135771D02*
X110040476Y-102183390D01*
X110040476Y-102183390D02*
X110088095Y-102231009D01*
X110088095Y-102231009D02*
X110135714Y-102326247D01*
X110135714Y-102326247D02*
X110135714Y-102564342D01*
X110135714Y-102564342D02*
X110088095Y-102659580D01*
X110088095Y-102659580D02*
X110040476Y-102707200D01*
X110040476Y-102707200D02*
X109945238Y-102754819D01*
X109945238Y-102754819D02*
X109659524Y-102754819D01*
X109659524Y-102754819D02*
X109564286Y-102707200D01*
X109564286Y-102707200D02*
X109516667Y-102659580D01*
X105278095Y-103324819D02*
X105278095Y-102324819D01*
X105849523Y-103324819D02*
X105420952Y-102753390D01*
X105849523Y-102324819D02*
X105278095Y-102896247D01*
X116183333Y-102129580D02*
X116135714Y-102177200D01*
X116135714Y-102177200D02*
X115992857Y-102224819D01*
X115992857Y-102224819D02*
X115897619Y-102224819D01*
X115897619Y-102224819D02*
X115754762Y-102177200D01*
X115754762Y-102177200D02*
X115659524Y-102081961D01*
X115659524Y-102081961D02*
X115611905Y-101986723D01*
X115611905Y-101986723D02*
X115564286Y-101796247D01*
X115564286Y-101796247D02*
X115564286Y-101653390D01*
X115564286Y-101653390D02*
X115611905Y-101462914D01*
X115611905Y-101462914D02*
X115659524Y-101367676D01*
X115659524Y-101367676D02*
X115754762Y-101272438D01*
X115754762Y-101272438D02*
X115897619Y-101224819D01*
X115897619Y-101224819D02*
X115992857Y-101224819D01*
X115992857Y-101224819D02*
X116135714Y-101272438D01*
X116135714Y-101272438D02*
X116183333Y-101320057D01*
X117040476Y-101224819D02*
X116850000Y-101224819D01*
X116850000Y-101224819D02*
X116754762Y-101272438D01*
X116754762Y-101272438D02*
X116707143Y-101320057D01*
X116707143Y-101320057D02*
X116611905Y-101462914D01*
X116611905Y-101462914D02*
X116564286Y-101653390D01*
X116564286Y-101653390D02*
X116564286Y-102034342D01*
X116564286Y-102034342D02*
X116611905Y-102129580D01*
X116611905Y-102129580D02*
X116659524Y-102177200D01*
X116659524Y-102177200D02*
X116754762Y-102224819D01*
X116754762Y-102224819D02*
X116945238Y-102224819D01*
X116945238Y-102224819D02*
X117040476Y-102177200D01*
X117040476Y-102177200D02*
X117088095Y-102129580D01*
X117088095Y-102129580D02*
X117135714Y-102034342D01*
X117135714Y-102034342D02*
X117135714Y-101796247D01*
X117135714Y-101796247D02*
X117088095Y-101701009D01*
X117088095Y-101701009D02*
X117040476Y-101653390D01*
X117040476Y-101653390D02*
X116945238Y-101605771D01*
X116945238Y-101605771D02*
X116754762Y-101605771D01*
X116754762Y-101605771D02*
X116659524Y-101653390D01*
X116659524Y-101653390D02*
X116611905Y-101701009D01*
X116611905Y-101701009D02*
X116564286Y-101796247D01*
X137959819Y-123365238D02*
X137483628Y-123698571D01*
X137959819Y-123936666D02*
X136959819Y-123936666D01*
X136959819Y-123936666D02*
X136959819Y-123555714D01*
X136959819Y-123555714D02*
X137007438Y-123460476D01*
X137007438Y-123460476D02*
X137055057Y-123412857D01*
X137055057Y-123412857D02*
X137150295Y-123365238D01*
X137150295Y-123365238D02*
X137293152Y-123365238D01*
X137293152Y-123365238D02*
X137388390Y-123412857D01*
X137388390Y-123412857D02*
X137436009Y-123460476D01*
X137436009Y-123460476D02*
X137483628Y-123555714D01*
X137483628Y-123555714D02*
X137483628Y-123936666D01*
X136959819Y-123079523D02*
X137959819Y-122746190D01*
X137959819Y-122746190D02*
X136959819Y-122412857D01*
X137055057Y-122127142D02*
X137007438Y-122079523D01*
X137007438Y-122079523D02*
X136959819Y-121984285D01*
X136959819Y-121984285D02*
X136959819Y-121746190D01*
X136959819Y-121746190D02*
X137007438Y-121650952D01*
X137007438Y-121650952D02*
X137055057Y-121603333D01*
X137055057Y-121603333D02*
X137150295Y-121555714D01*
X137150295Y-121555714D02*
X137245533Y-121555714D01*
X137245533Y-121555714D02*
X137388390Y-121603333D01*
X137388390Y-121603333D02*
X137959819Y-122174761D01*
X137959819Y-122174761D02*
X137959819Y-121555714D01*
X100933333Y-114879580D02*
X100885714Y-114927200D01*
X100885714Y-114927200D02*
X100742857Y-114974819D01*
X100742857Y-114974819D02*
X100647619Y-114974819D01*
X100647619Y-114974819D02*
X100504762Y-114927200D01*
X100504762Y-114927200D02*
X100409524Y-114831961D01*
X100409524Y-114831961D02*
X100361905Y-114736723D01*
X100361905Y-114736723D02*
X100314286Y-114546247D01*
X100314286Y-114546247D02*
X100314286Y-114403390D01*
X100314286Y-114403390D02*
X100361905Y-114212914D01*
X100361905Y-114212914D02*
X100409524Y-114117676D01*
X100409524Y-114117676D02*
X100504762Y-114022438D01*
X100504762Y-114022438D02*
X100647619Y-113974819D01*
X100647619Y-113974819D02*
X100742857Y-113974819D01*
X100742857Y-113974819D02*
X100885714Y-114022438D01*
X100885714Y-114022438D02*
X100933333Y-114070057D01*
X101790476Y-114308152D02*
X101790476Y-114974819D01*
X101552381Y-113927200D02*
X101314286Y-114641485D01*
X101314286Y-114641485D02*
X101933333Y-114641485D01*
X99683333Y-104979580D02*
X99635714Y-105027200D01*
X99635714Y-105027200D02*
X99492857Y-105074819D01*
X99492857Y-105074819D02*
X99397619Y-105074819D01*
X99397619Y-105074819D02*
X99254762Y-105027200D01*
X99254762Y-105027200D02*
X99159524Y-104931961D01*
X99159524Y-104931961D02*
X99111905Y-104836723D01*
X99111905Y-104836723D02*
X99064286Y-104646247D01*
X99064286Y-104646247D02*
X99064286Y-104503390D01*
X99064286Y-104503390D02*
X99111905Y-104312914D01*
X99111905Y-104312914D02*
X99159524Y-104217676D01*
X99159524Y-104217676D02*
X99254762Y-104122438D01*
X99254762Y-104122438D02*
X99397619Y-104074819D01*
X99397619Y-104074819D02*
X99492857Y-104074819D01*
X99492857Y-104074819D02*
X99635714Y-104122438D01*
X99635714Y-104122438D02*
X99683333Y-104170057D01*
X100016667Y-104074819D02*
X100635714Y-104074819D01*
X100635714Y-104074819D02*
X100302381Y-104455771D01*
X100302381Y-104455771D02*
X100445238Y-104455771D01*
X100445238Y-104455771D02*
X100540476Y-104503390D01*
X100540476Y-104503390D02*
X100588095Y-104551009D01*
X100588095Y-104551009D02*
X100635714Y-104646247D01*
X100635714Y-104646247D02*
X100635714Y-104884342D01*
X100635714Y-104884342D02*
X100588095Y-104979580D01*
X100588095Y-104979580D02*
X100540476Y-105027200D01*
X100540476Y-105027200D02*
X100445238Y-105074819D01*
X100445238Y-105074819D02*
X100159524Y-105074819D01*
X100159524Y-105074819D02*
X100064286Y-105027200D01*
X100064286Y-105027200D02*
X100016667Y-104979580D01*
X108301904Y-58505180D02*
X108301904Y-57695657D01*
X108301904Y-57695657D02*
X108254285Y-57600419D01*
X108254285Y-57600419D02*
X108206666Y-57552800D01*
X108206666Y-57552800D02*
X108111428Y-57505180D01*
X108111428Y-57505180D02*
X107920952Y-57505180D01*
X107920952Y-57505180D02*
X107825714Y-57552800D01*
X107825714Y-57552800D02*
X107778095Y-57600419D01*
X107778095Y-57600419D02*
X107730476Y-57695657D01*
X107730476Y-57695657D02*
X107730476Y-58505180D01*
X107301904Y-58409942D02*
X107254285Y-58457561D01*
X107254285Y-58457561D02*
X107159047Y-58505180D01*
X107159047Y-58505180D02*
X106920952Y-58505180D01*
X106920952Y-58505180D02*
X106825714Y-58457561D01*
X106825714Y-58457561D02*
X106778095Y-58409942D01*
X106778095Y-58409942D02*
X106730476Y-58314704D01*
X106730476Y-58314704D02*
X106730476Y-58219466D01*
X106730476Y-58219466D02*
X106778095Y-58076609D01*
X106778095Y-58076609D02*
X107349523Y-57505180D01*
X107349523Y-57505180D02*
X106730476Y-57505180D01*
X111350000Y-62672619D02*
X111350000Y-62910714D01*
X111111905Y-62815476D02*
X111350000Y-62910714D01*
X111350000Y-62910714D02*
X111588095Y-62815476D01*
X111207143Y-63101190D02*
X111350000Y-62910714D01*
X111350000Y-62910714D02*
X111492857Y-63101190D01*
X111349999Y-63762980D02*
X111349999Y-63524885D01*
X111588094Y-63620123D02*
X111349999Y-63524885D01*
X111349999Y-63524885D02*
X111111904Y-63620123D01*
X111492856Y-63334409D02*
X111349999Y-63524885D01*
X111349999Y-63524885D02*
X111207142Y-63334409D01*
X79804819Y-93103333D02*
X80519104Y-93103333D01*
X80519104Y-93103333D02*
X80661961Y-93150952D01*
X80661961Y-93150952D02*
X80757200Y-93246190D01*
X80757200Y-93246190D02*
X80804819Y-93389047D01*
X80804819Y-93389047D02*
X80804819Y-93484285D01*
X79900057Y-92674761D02*
X79852438Y-92627142D01*
X79852438Y-92627142D02*
X79804819Y-92531904D01*
X79804819Y-92531904D02*
X79804819Y-92293809D01*
X79804819Y-92293809D02*
X79852438Y-92198571D01*
X79852438Y-92198571D02*
X79900057Y-92150952D01*
X79900057Y-92150952D02*
X79995295Y-92103333D01*
X79995295Y-92103333D02*
X80090533Y-92103333D01*
X80090533Y-92103333D02*
X80233390Y-92150952D01*
X80233390Y-92150952D02*
X80804819Y-92722380D01*
X80804819Y-92722380D02*
X80804819Y-92103333D01*
X84164700Y-99841428D02*
X84164700Y-98698571D01*
X84464700Y-86841428D02*
X84464700Y-85698571D01*
X85036128Y-86269999D02*
X83893271Y-86269999D01*
X150834819Y-120333333D02*
X151549104Y-120333333D01*
X151549104Y-120333333D02*
X151691961Y-120380952D01*
X151691961Y-120380952D02*
X151787200Y-120476190D01*
X151787200Y-120476190D02*
X151834819Y-120619047D01*
X151834819Y-120619047D02*
X151834819Y-120714285D01*
X151168152Y-119428571D02*
X151834819Y-119428571D01*
X150787200Y-119666666D02*
X151501485Y-119904761D01*
X151501485Y-119904761D02*
X151501485Y-119285714D01*
X126274819Y-114318094D02*
X125274819Y-114318094D01*
X125274819Y-114318094D02*
X125274819Y-114079999D01*
X125274819Y-114079999D02*
X125322438Y-113937142D01*
X125322438Y-113937142D02*
X125417676Y-113841904D01*
X125417676Y-113841904D02*
X125512914Y-113794285D01*
X125512914Y-113794285D02*
X125703390Y-113746666D01*
X125703390Y-113746666D02*
X125846247Y-113746666D01*
X125846247Y-113746666D02*
X126036723Y-113794285D01*
X126036723Y-113794285D02*
X126131961Y-113841904D01*
X126131961Y-113841904D02*
X126227200Y-113937142D01*
X126227200Y-113937142D02*
X126274819Y-114079999D01*
X126274819Y-114079999D02*
X126274819Y-114318094D01*
X125608152Y-112889523D02*
X126274819Y-112889523D01*
X125227200Y-113127618D02*
X125941485Y-113365713D01*
X125941485Y-113365713D02*
X125941485Y-112746666D01*
X125704819Y-110031904D02*
X124704819Y-110031904D01*
X125704819Y-109460476D02*
X125133390Y-109889047D01*
X124704819Y-109460476D02*
X125276247Y-110031904D01*
X115491905Y-53414819D02*
X115491905Y-52414819D01*
X115491905Y-52414819D02*
X115730000Y-52414819D01*
X115730000Y-52414819D02*
X115872857Y-52462438D01*
X115872857Y-52462438D02*
X115968095Y-52557676D01*
X115968095Y-52557676D02*
X116015714Y-52652914D01*
X116015714Y-52652914D02*
X116063333Y-52843390D01*
X116063333Y-52843390D02*
X116063333Y-52986247D01*
X116063333Y-52986247D02*
X116015714Y-53176723D01*
X116015714Y-53176723D02*
X115968095Y-53271961D01*
X115968095Y-53271961D02*
X115872857Y-53367200D01*
X115872857Y-53367200D02*
X115730000Y-53414819D01*
X115730000Y-53414819D02*
X115491905Y-53414819D01*
X116444286Y-52510057D02*
X116491905Y-52462438D01*
X116491905Y-52462438D02*
X116587143Y-52414819D01*
X116587143Y-52414819D02*
X116825238Y-52414819D01*
X116825238Y-52414819D02*
X116920476Y-52462438D01*
X116920476Y-52462438D02*
X116968095Y-52510057D01*
X116968095Y-52510057D02*
X117015714Y-52605295D01*
X117015714Y-52605295D02*
X117015714Y-52700533D01*
X117015714Y-52700533D02*
X116968095Y-52843390D01*
X116968095Y-52843390D02*
X116396667Y-53414819D01*
X116396667Y-53414819D02*
X117015714Y-53414819D01*
X101183333Y-78224819D02*
X100850000Y-77748628D01*
X100611905Y-78224819D02*
X100611905Y-77224819D01*
X100611905Y-77224819D02*
X100992857Y-77224819D01*
X100992857Y-77224819D02*
X101088095Y-77272438D01*
X101088095Y-77272438D02*
X101135714Y-77320057D01*
X101135714Y-77320057D02*
X101183333Y-77415295D01*
X101183333Y-77415295D02*
X101183333Y-77558152D01*
X101183333Y-77558152D02*
X101135714Y-77653390D01*
X101135714Y-77653390D02*
X101088095Y-77701009D01*
X101088095Y-77701009D02*
X100992857Y-77748628D01*
X100992857Y-77748628D02*
X100611905Y-77748628D01*
X102040476Y-77558152D02*
X102040476Y-78224819D01*
X101802381Y-77177200D02*
X101564286Y-77891485D01*
X101564286Y-77891485D02*
X102183333Y-77891485D01*
X102183333Y-69129580D02*
X102135714Y-69177200D01*
X102135714Y-69177200D02*
X101992857Y-69224819D01*
X101992857Y-69224819D02*
X101897619Y-69224819D01*
X101897619Y-69224819D02*
X101754762Y-69177200D01*
X101754762Y-69177200D02*
X101659524Y-69081961D01*
X101659524Y-69081961D02*
X101611905Y-68986723D01*
X101611905Y-68986723D02*
X101564286Y-68796247D01*
X101564286Y-68796247D02*
X101564286Y-68653390D01*
X101564286Y-68653390D02*
X101611905Y-68462914D01*
X101611905Y-68462914D02*
X101659524Y-68367676D01*
X101659524Y-68367676D02*
X101754762Y-68272438D01*
X101754762Y-68272438D02*
X101897619Y-68224819D01*
X101897619Y-68224819D02*
X101992857Y-68224819D01*
X101992857Y-68224819D02*
X102135714Y-68272438D01*
X102135714Y-68272438D02*
X102183333Y-68320057D01*
X103135714Y-69224819D02*
X102564286Y-69224819D01*
X102850000Y-69224819D02*
X102850000Y-68224819D01*
X102850000Y-68224819D02*
X102754762Y-68367676D01*
X102754762Y-68367676D02*
X102659524Y-68462914D01*
X102659524Y-68462914D02*
X102564286Y-68510533D01*
X104166667Y-136239866D02*
X104633334Y-137639866D01*
X104633334Y-137639866D02*
X105100000Y-136239866D01*
X106366667Y-137639866D02*
X105900000Y-136973200D01*
X105566667Y-137639866D02*
X105566667Y-136239866D01*
X105566667Y-136239866D02*
X106100000Y-136239866D01*
X106100000Y-136239866D02*
X106233334Y-136306533D01*
X106233334Y-136306533D02*
X106300000Y-136373200D01*
X106300000Y-136373200D02*
X106366667Y-136506533D01*
X106366667Y-136506533D02*
X106366667Y-136706533D01*
X106366667Y-136706533D02*
X106300000Y-136839866D01*
X106300000Y-136839866D02*
X106233334Y-136906533D01*
X106233334Y-136906533D02*
X106100000Y-136973200D01*
X106100000Y-136973200D02*
X105566667Y-136973200D01*
X107700000Y-137639866D02*
X106900000Y-137639866D01*
X107300000Y-137639866D02*
X107300000Y-136239866D01*
X107300000Y-136239866D02*
X107166667Y-136439866D01*
X107166667Y-136439866D02*
X107033334Y-136573200D01*
X107033334Y-136573200D02*
X106900000Y-136639866D01*
D10*
X107538094Y-146542580D02*
X107538094Y-147542580D01*
X107538094Y-147066390D02*
X106966666Y-147066390D01*
X106966666Y-146542580D02*
X106966666Y-147542580D01*
X106538094Y-146590200D02*
X106395237Y-146542580D01*
X106395237Y-146542580D02*
X106157142Y-146542580D01*
X106157142Y-146542580D02*
X106061904Y-146590200D01*
X106061904Y-146590200D02*
X106014285Y-146637819D01*
X106014285Y-146637819D02*
X105966666Y-146733057D01*
X105966666Y-146733057D02*
X105966666Y-146828295D01*
X105966666Y-146828295D02*
X106014285Y-146923533D01*
X106014285Y-146923533D02*
X106061904Y-146971152D01*
X106061904Y-146971152D02*
X106157142Y-147018771D01*
X106157142Y-147018771D02*
X106347618Y-147066390D01*
X106347618Y-147066390D02*
X106442856Y-147114009D01*
X106442856Y-147114009D02*
X106490475Y-147161628D01*
X106490475Y-147161628D02*
X106538094Y-147256866D01*
X106538094Y-147256866D02*
X106538094Y-147352104D01*
X106538094Y-147352104D02*
X106490475Y-147447342D01*
X106490475Y-147447342D02*
X106442856Y-147494961D01*
X106442856Y-147494961D02*
X106347618Y-147542580D01*
X106347618Y-147542580D02*
X106109523Y-147542580D01*
X106109523Y-147542580D02*
X105966666Y-147494961D01*
X105014285Y-146542580D02*
X105585713Y-146542580D01*
X105299999Y-146542580D02*
X105299999Y-147542580D01*
X105299999Y-147542580D02*
X105395237Y-147399723D01*
X105395237Y-147399723D02*
X105490475Y-147304485D01*
X105490475Y-147304485D02*
X105585713Y-147256866D01*
D11*
X150834819Y-124923333D02*
X151549104Y-124923333D01*
X151549104Y-124923333D02*
X151691961Y-124970952D01*
X151691961Y-124970952D02*
X151787200Y-125066190D01*
X151787200Y-125066190D02*
X151834819Y-125209047D01*
X151834819Y-125209047D02*
X151834819Y-125304285D01*
X150834819Y-123970952D02*
X150834819Y-124447142D01*
X150834819Y-124447142D02*
X151311009Y-124494761D01*
X151311009Y-124494761D02*
X151263390Y-124447142D01*
X151263390Y-124447142D02*
X151215771Y-124351904D01*
X151215771Y-124351904D02*
X151215771Y-124113809D01*
X151215771Y-124113809D02*
X151263390Y-124018571D01*
X151263390Y-124018571D02*
X151311009Y-123970952D01*
X151311009Y-123970952D02*
X151406247Y-123923333D01*
X151406247Y-123923333D02*
X151644342Y-123923333D01*
X151644342Y-123923333D02*
X151739580Y-123970952D01*
X151739580Y-123970952D02*
X151787200Y-124018571D01*
X151787200Y-124018571D02*
X151834819Y-124113809D01*
X151834819Y-124113809D02*
X151834819Y-124351904D01*
X151834819Y-124351904D02*
X151787200Y-124447142D01*
X151787200Y-124447142D02*
X151739580Y-124494761D01*
X134761904Y-89545180D02*
X134761904Y-88735657D01*
X134761904Y-88735657D02*
X134714285Y-88640419D01*
X134714285Y-88640419D02*
X134666666Y-88592800D01*
X134666666Y-88592800D02*
X134571428Y-88545180D01*
X134571428Y-88545180D02*
X134380952Y-88545180D01*
X134380952Y-88545180D02*
X134285714Y-88592800D01*
X134285714Y-88592800D02*
X134238095Y-88640419D01*
X134238095Y-88640419D02*
X134190476Y-88735657D01*
X134190476Y-88735657D02*
X134190476Y-89545180D01*
X133809523Y-89545180D02*
X133190476Y-89545180D01*
X133190476Y-89545180D02*
X133523809Y-89164228D01*
X133523809Y-89164228D02*
X133380952Y-89164228D01*
X133380952Y-89164228D02*
X133285714Y-89116609D01*
X133285714Y-89116609D02*
X133238095Y-89068990D01*
X133238095Y-89068990D02*
X133190476Y-88973752D01*
X133190476Y-88973752D02*
X133190476Y-88735657D01*
X133190476Y-88735657D02*
X133238095Y-88640419D01*
X133238095Y-88640419D02*
X133285714Y-88592800D01*
X133285714Y-88592800D02*
X133380952Y-88545180D01*
X133380952Y-88545180D02*
X133666666Y-88545180D01*
X133666666Y-88545180D02*
X133761904Y-88592800D01*
X133761904Y-88592800D02*
X133809523Y-88640419D01*
X137810000Y-93712619D02*
X137810000Y-93950714D01*
X137571905Y-93855476D02*
X137810000Y-93950714D01*
X137810000Y-93950714D02*
X138048095Y-93855476D01*
X137667143Y-94141190D02*
X137810000Y-93950714D01*
X137810000Y-93950714D02*
X137952857Y-94141190D01*
X137809999Y-94802980D02*
X137809999Y-94564885D01*
X138048094Y-94660123D02*
X137809999Y-94564885D01*
X137809999Y-94564885D02*
X137571904Y-94660123D01*
X137952856Y-94374409D02*
X137809999Y-94564885D01*
X137809999Y-94564885D02*
X137667142Y-94374409D01*
D12*
X132760237Y-102384318D02*
X132760237Y-101114318D01*
X134090714Y-102263365D02*
X134030238Y-102323842D01*
X134030238Y-102323842D02*
X133848809Y-102384318D01*
X133848809Y-102384318D02*
X133727857Y-102384318D01*
X133727857Y-102384318D02*
X133546428Y-102323842D01*
X133546428Y-102323842D02*
X133425476Y-102202889D01*
X133425476Y-102202889D02*
X133364999Y-102081937D01*
X133364999Y-102081937D02*
X133304523Y-101840032D01*
X133304523Y-101840032D02*
X133304523Y-101658603D01*
X133304523Y-101658603D02*
X133364999Y-101416699D01*
X133364999Y-101416699D02*
X133425476Y-101295746D01*
X133425476Y-101295746D02*
X133546428Y-101174794D01*
X133546428Y-101174794D02*
X133727857Y-101114318D01*
X133727857Y-101114318D02*
X133848809Y-101114318D01*
X133848809Y-101114318D02*
X134030238Y-101174794D01*
X134030238Y-101174794D02*
X134090714Y-101235270D01*
X135300238Y-102384318D02*
X134574523Y-102384318D01*
X134937380Y-102384318D02*
X134937380Y-101114318D01*
X134937380Y-101114318D02*
X134816428Y-101295746D01*
X134816428Y-101295746D02*
X134695476Y-101416699D01*
X134695476Y-101416699D02*
X134574523Y-101477175D01*
D11*
X106933333Y-114879580D02*
X106885714Y-114927200D01*
X106885714Y-114927200D02*
X106742857Y-114974819D01*
X106742857Y-114974819D02*
X106647619Y-114974819D01*
X106647619Y-114974819D02*
X106504762Y-114927200D01*
X106504762Y-114927200D02*
X106409524Y-114831961D01*
X106409524Y-114831961D02*
X106361905Y-114736723D01*
X106361905Y-114736723D02*
X106314286Y-114546247D01*
X106314286Y-114546247D02*
X106314286Y-114403390D01*
X106314286Y-114403390D02*
X106361905Y-114212914D01*
X106361905Y-114212914D02*
X106409524Y-114117676D01*
X106409524Y-114117676D02*
X106504762Y-114022438D01*
X106504762Y-114022438D02*
X106647619Y-113974819D01*
X106647619Y-113974819D02*
X106742857Y-113974819D01*
X106742857Y-113974819D02*
X106885714Y-114022438D01*
X106885714Y-114022438D02*
X106933333Y-114070057D01*
X107266667Y-113974819D02*
X107933333Y-113974819D01*
X107933333Y-113974819D02*
X107504762Y-114974819D01*
X101183333Y-83594819D02*
X100850000Y-83118628D01*
X100611905Y-83594819D02*
X100611905Y-82594819D01*
X100611905Y-82594819D02*
X100992857Y-82594819D01*
X100992857Y-82594819D02*
X101088095Y-82642438D01*
X101088095Y-82642438D02*
X101135714Y-82690057D01*
X101135714Y-82690057D02*
X101183333Y-82785295D01*
X101183333Y-82785295D02*
X101183333Y-82928152D01*
X101183333Y-82928152D02*
X101135714Y-83023390D01*
X101135714Y-83023390D02*
X101088095Y-83071009D01*
X101088095Y-83071009D02*
X100992857Y-83118628D01*
X100992857Y-83118628D02*
X100611905Y-83118628D01*
X102135714Y-83594819D02*
X101564286Y-83594819D01*
X101850000Y-83594819D02*
X101850000Y-82594819D01*
X101850000Y-82594819D02*
X101754762Y-82737676D01*
X101754762Y-82737676D02*
X101659524Y-82832914D01*
X101659524Y-82832914D02*
X101564286Y-82880533D01*
X86729819Y-60103333D02*
X87444104Y-60103333D01*
X87444104Y-60103333D02*
X87586961Y-60150952D01*
X87586961Y-60150952D02*
X87682200Y-60246190D01*
X87682200Y-60246190D02*
X87729819Y-60389047D01*
X87729819Y-60389047D02*
X87729819Y-60484285D01*
X87729819Y-59103333D02*
X87729819Y-59674761D01*
X87729819Y-59389047D02*
X86729819Y-59389047D01*
X86729819Y-59389047D02*
X86872676Y-59484285D01*
X86872676Y-59484285D02*
X86967914Y-59579523D01*
X86967914Y-59579523D02*
X87015533Y-59674761D01*
X114434819Y-114016666D02*
X113958628Y-114349999D01*
X114434819Y-114588094D02*
X113434819Y-114588094D01*
X113434819Y-114588094D02*
X113434819Y-114207142D01*
X113434819Y-114207142D02*
X113482438Y-114111904D01*
X113482438Y-114111904D02*
X113530057Y-114064285D01*
X113530057Y-114064285D02*
X113625295Y-114016666D01*
X113625295Y-114016666D02*
X113768152Y-114016666D01*
X113768152Y-114016666D02*
X113863390Y-114064285D01*
X113863390Y-114064285D02*
X113911009Y-114111904D01*
X113911009Y-114111904D02*
X113958628Y-114207142D01*
X113958628Y-114207142D02*
X113958628Y-114588094D01*
X113434819Y-113159523D02*
X113434819Y-113349999D01*
X113434819Y-113349999D02*
X113482438Y-113445237D01*
X113482438Y-113445237D02*
X113530057Y-113492856D01*
X113530057Y-113492856D02*
X113672914Y-113588094D01*
X113672914Y-113588094D02*
X113863390Y-113635713D01*
X113863390Y-113635713D02*
X114244342Y-113635713D01*
X114244342Y-113635713D02*
X114339580Y-113588094D01*
X114339580Y-113588094D02*
X114387200Y-113540475D01*
X114387200Y-113540475D02*
X114434819Y-113445237D01*
X114434819Y-113445237D02*
X114434819Y-113254761D01*
X114434819Y-113254761D02*
X114387200Y-113159523D01*
X114387200Y-113159523D02*
X114339580Y-113111904D01*
X114339580Y-113111904D02*
X114244342Y-113064285D01*
X114244342Y-113064285D02*
X114006247Y-113064285D01*
X114006247Y-113064285D02*
X113911009Y-113111904D01*
X113911009Y-113111904D02*
X113863390Y-113159523D01*
X113863390Y-113159523D02*
X113815771Y-113254761D01*
X113815771Y-113254761D02*
X113815771Y-113445237D01*
X113815771Y-113445237D02*
X113863390Y-113540475D01*
X113863390Y-113540475D02*
X113911009Y-113588094D01*
X113911009Y-113588094D02*
X114006247Y-113635713D01*
D10*
X106159800Y-71031904D02*
X106207419Y-70889047D01*
X106207419Y-70889047D02*
X106207419Y-70650952D01*
X106207419Y-70650952D02*
X106159800Y-70555714D01*
X106159800Y-70555714D02*
X106112180Y-70508095D01*
X106112180Y-70508095D02*
X106016942Y-70460476D01*
X106016942Y-70460476D02*
X105921704Y-70460476D01*
X105921704Y-70460476D02*
X105826466Y-70508095D01*
X105826466Y-70508095D02*
X105778847Y-70555714D01*
X105778847Y-70555714D02*
X105731228Y-70650952D01*
X105731228Y-70650952D02*
X105683609Y-70841428D01*
X105683609Y-70841428D02*
X105635990Y-70936666D01*
X105635990Y-70936666D02*
X105588371Y-70984285D01*
X105588371Y-70984285D02*
X105493133Y-71031904D01*
X105493133Y-71031904D02*
X105397895Y-71031904D01*
X105397895Y-71031904D02*
X105302657Y-70984285D01*
X105302657Y-70984285D02*
X105255038Y-70936666D01*
X105255038Y-70936666D02*
X105207419Y-70841428D01*
X105207419Y-70841428D02*
X105207419Y-70603333D01*
X105207419Y-70603333D02*
X105255038Y-70460476D01*
X105683609Y-69698571D02*
X105731228Y-69555714D01*
X105731228Y-69555714D02*
X105778847Y-69508095D01*
X105778847Y-69508095D02*
X105874085Y-69460476D01*
X105874085Y-69460476D02*
X106016942Y-69460476D01*
X106016942Y-69460476D02*
X106112180Y-69508095D01*
X106112180Y-69508095D02*
X106159800Y-69555714D01*
X106159800Y-69555714D02*
X106207419Y-69650952D01*
X106207419Y-69650952D02*
X106207419Y-70031904D01*
X106207419Y-70031904D02*
X105207419Y-70031904D01*
X105207419Y-70031904D02*
X105207419Y-69698571D01*
X105207419Y-69698571D02*
X105255038Y-69603333D01*
X105255038Y-69603333D02*
X105302657Y-69555714D01*
X105302657Y-69555714D02*
X105397895Y-69508095D01*
X105397895Y-69508095D02*
X105493133Y-69508095D01*
X105493133Y-69508095D02*
X105588371Y-69555714D01*
X105588371Y-69555714D02*
X105635990Y-69603333D01*
X105635990Y-69603333D02*
X105683609Y-69698571D01*
X105683609Y-69698571D02*
X105683609Y-70031904D01*
X106207419Y-68508095D02*
X106207419Y-69079523D01*
X106207419Y-68793809D02*
X105207419Y-68793809D01*
X105207419Y-68793809D02*
X105350276Y-68889047D01*
X105350276Y-68889047D02*
X105445514Y-68984285D01*
X105445514Y-68984285D02*
X105493133Y-69079523D01*
X96316667Y-95679800D02*
X96459524Y-95727419D01*
X96459524Y-95727419D02*
X96697619Y-95727419D01*
X96697619Y-95727419D02*
X96792857Y-95679800D01*
X96792857Y-95679800D02*
X96840476Y-95632180D01*
X96840476Y-95632180D02*
X96888095Y-95536942D01*
X96888095Y-95536942D02*
X96888095Y-95441704D01*
X96888095Y-95441704D02*
X96840476Y-95346466D01*
X96840476Y-95346466D02*
X96792857Y-95298847D01*
X96792857Y-95298847D02*
X96697619Y-95251228D01*
X96697619Y-95251228D02*
X96507143Y-95203609D01*
X96507143Y-95203609D02*
X96411905Y-95155990D01*
X96411905Y-95155990D02*
X96364286Y-95108371D01*
X96364286Y-95108371D02*
X96316667Y-95013133D01*
X96316667Y-95013133D02*
X96316667Y-94917895D01*
X96316667Y-94917895D02*
X96364286Y-94822657D01*
X96364286Y-94822657D02*
X96411905Y-94775038D01*
X96411905Y-94775038D02*
X96507143Y-94727419D01*
X96507143Y-94727419D02*
X96745238Y-94727419D01*
X96745238Y-94727419D02*
X96888095Y-94775038D01*
X97221429Y-94727419D02*
X97459524Y-95727419D01*
X97459524Y-95727419D02*
X97650000Y-95013133D01*
X97650000Y-95013133D02*
X97840476Y-95727419D01*
X97840476Y-95727419D02*
X98078572Y-94727419D01*
X98411905Y-94822657D02*
X98459524Y-94775038D01*
X98459524Y-94775038D02*
X98554762Y-94727419D01*
X98554762Y-94727419D02*
X98792857Y-94727419D01*
X98792857Y-94727419D02*
X98888095Y-94775038D01*
X98888095Y-94775038D02*
X98935714Y-94822657D01*
X98935714Y-94822657D02*
X98983333Y-94917895D01*
X98983333Y-94917895D02*
X98983333Y-95013133D01*
X98983333Y-95013133D02*
X98935714Y-95155990D01*
X98935714Y-95155990D02*
X98364286Y-95727419D01*
X98364286Y-95727419D02*
X98983333Y-95727419D01*
D11*
X116318878Y-87126467D02*
X116318878Y-86339065D01*
X116318878Y-86339065D02*
X116581346Y-86901495D01*
X116581346Y-86901495D02*
X116843813Y-86339065D01*
X116843813Y-86339065D02*
X116843813Y-87126467D01*
X117218766Y-87126467D02*
X117218766Y-86339065D01*
X117218766Y-86339065D02*
X117406243Y-86339065D01*
X117406243Y-86339065D02*
X117518729Y-86376560D01*
X117518729Y-86376560D02*
X117593720Y-86451551D01*
X117593720Y-86451551D02*
X117631215Y-86526542D01*
X117631215Y-86526542D02*
X117668710Y-86676523D01*
X117668710Y-86676523D02*
X117668710Y-86789009D01*
X117668710Y-86789009D02*
X117631215Y-86938990D01*
X117631215Y-86938990D02*
X117593720Y-87013981D01*
X117593720Y-87013981D02*
X117518729Y-87088972D01*
X117518729Y-87088972D02*
X117406243Y-87126467D01*
X117406243Y-87126467D02*
X117218766Y-87126467D01*
X118418617Y-87126467D02*
X117968673Y-87126467D01*
X118193645Y-87126467D02*
X118193645Y-86339065D01*
X118193645Y-86339065D02*
X118118654Y-86451551D01*
X118118654Y-86451551D02*
X118043664Y-86526542D01*
X118043664Y-86526542D02*
X117968673Y-86564037D01*
X139467604Y-76944484D02*
X140278657Y-76944484D01*
X140278657Y-76944484D02*
X140374075Y-76896775D01*
X140374075Y-76896775D02*
X140421785Y-76849066D01*
X140421785Y-76849066D02*
X140469494Y-76753648D01*
X140469494Y-76753648D02*
X140469494Y-76562812D01*
X140469494Y-76562812D02*
X140421785Y-76467394D01*
X140421785Y-76467394D02*
X140374075Y-76419685D01*
X140374075Y-76419685D02*
X140278657Y-76371976D01*
X140278657Y-76371976D02*
X139467604Y-76371976D01*
X140469494Y-75370086D02*
X140469494Y-75942594D01*
X140469494Y-75656340D02*
X139467604Y-75656340D01*
X139467604Y-75656340D02*
X139610731Y-75751758D01*
X139610731Y-75751758D02*
X139706149Y-75847176D01*
X139706149Y-75847176D02*
X139753858Y-75942594D01*
D13*
%TO.C,C2*%
X122280000Y-57410000D02*
X122974000Y-57410000D01*
X122280000Y-62750000D02*
X122280000Y-57410000D01*
X122974000Y-62750000D02*
X122280000Y-62750000D01*
X125026000Y-57410000D02*
X125720000Y-57410000D01*
X125720000Y-57410000D02*
X125720000Y-62750000D01*
X125720000Y-62750000D02*
X125026000Y-62750000D01*
%TO.C,RV1*%
X108345000Y-89660000D02*
X109459000Y-89660000D01*
X108345000Y-99880000D02*
X108345000Y-89660000D01*
X111959000Y-99880000D02*
X108345000Y-99880000D01*
X112251000Y-89660000D02*
X114459000Y-89660000D01*
X117251000Y-89660000D02*
X118365000Y-89660000D01*
X118365000Y-89660000D02*
X118365000Y-99880000D01*
X118365000Y-99880000D02*
X114751000Y-99880000D01*
%TO.C,R5*%
X115000000Y-56040000D02*
X115000000Y-56810000D01*
X115000000Y-64120000D02*
X115000000Y-63350000D01*
X113630000Y-63350000D02*
X116370000Y-63350000D01*
X116370000Y-56810000D01*
X113630000Y-56810000D01*
X113630000Y-63350000D01*
%TO.C,J6*%
X142540000Y-127800000D02*
X142540000Y-130560000D01*
X147730000Y-127800000D02*
X142540000Y-127800000D01*
X147730000Y-127800000D02*
X147730000Y-130560000D01*
X147730000Y-130560000D02*
X142540000Y-130560000D01*
X149000000Y-127800000D02*
X150380000Y-127800000D01*
X150380000Y-127800000D02*
X150380000Y-129180000D01*
%TO.C,C5*%
X128770000Y-112480000D02*
X133930000Y-112480000D01*
X128770000Y-112520000D02*
X133930000Y-112520000D01*
X128771000Y-112440000D02*
X133929000Y-112440000D01*
X128773000Y-112400000D02*
X133927000Y-112400000D01*
X128775000Y-112360000D02*
X133925000Y-112360000D01*
X128778000Y-112320000D02*
X133922000Y-112320000D01*
X128781000Y-112280000D02*
X130310000Y-112280000D01*
X128785000Y-112240000D02*
X130310000Y-112240000D01*
X128790000Y-112200000D02*
X130310000Y-112200000D01*
X128795000Y-112160000D02*
X130310000Y-112160000D01*
X128801000Y-112120000D02*
X130310000Y-112120000D01*
X128807000Y-112080000D02*
X130310000Y-112080000D01*
X128814000Y-112040000D02*
X130310000Y-112040000D01*
X128822000Y-112000000D02*
X130310000Y-112000000D01*
X128831000Y-111960000D02*
X130310000Y-111960000D01*
X128840000Y-111920000D02*
X130310000Y-111920000D01*
X128849000Y-111880000D02*
X130310000Y-111880000D01*
X128860000Y-111840000D02*
X130310000Y-111840000D01*
X128871000Y-111800000D02*
X130310000Y-111800000D01*
X128883000Y-111760000D02*
X130310000Y-111760000D01*
X128895000Y-111720000D02*
X130310000Y-111720000D01*
X128908000Y-111680000D02*
X130310000Y-111680000D01*
X128922000Y-111640000D02*
X130310000Y-111640000D01*
X128937000Y-111600000D02*
X130310000Y-111600000D01*
X128952000Y-111560000D02*
X130310000Y-111560000D01*
X128968000Y-111520000D02*
X130310000Y-111520000D01*
X128985000Y-111480000D02*
X130310000Y-111480000D01*
X129003000Y-111440000D02*
X130310000Y-111440000D01*
X129021000Y-111400000D02*
X130310000Y-111400000D01*
X129041000Y-111360000D02*
X130310000Y-111360000D01*
X129061000Y-111320000D02*
X130310000Y-111320000D01*
X129082000Y-111280000D02*
X130310000Y-111280000D01*
X129104000Y-111240000D02*
X130310000Y-111240000D01*
X129127000Y-111200000D02*
X130310000Y-111200000D01*
X129151000Y-111160000D02*
X130310000Y-111160000D01*
X129175000Y-111120000D02*
X130310000Y-111120000D01*
X129201000Y-111080000D02*
X130310000Y-111080000D01*
X129228000Y-111040000D02*
X130310000Y-111040000D01*
X129256000Y-111000000D02*
X130310000Y-111000000D01*
X129285000Y-110960000D02*
X130310000Y-110960000D01*
X129315000Y-110920000D02*
X130310000Y-110920000D01*
X129347000Y-110880000D02*
X130310000Y-110880000D01*
X129380000Y-110840000D02*
X130310000Y-110840000D01*
X129414000Y-110800000D02*
X130310000Y-110800000D01*
X129449000Y-110760000D02*
X130310000Y-110760000D01*
X129486000Y-110720000D02*
X130310000Y-110720000D01*
X129525000Y-110680000D02*
X130310000Y-110680000D01*
X129565000Y-110640000D02*
X130310000Y-110640000D01*
X129607000Y-110600000D02*
X130310000Y-110600000D01*
X129625000Y-115074775D02*
X130125000Y-115074775D01*
X129651000Y-110560000D02*
X130310000Y-110560000D01*
X129698000Y-110520000D02*
X130310000Y-110520000D01*
X129746000Y-110480000D02*
X130310000Y-110480000D01*
X129797000Y-110440000D02*
X130310000Y-110440000D01*
X129851000Y-110400000D02*
X130310000Y-110400000D01*
X129875000Y-115324775D02*
X129875000Y-114824775D01*
X129907000Y-110360000D02*
X130310000Y-110360000D01*
X129967000Y-110320000D02*
X130310000Y-110320000D01*
X130031000Y-110280000D02*
X130310000Y-110280000D01*
X130099000Y-110240000D02*
X130310000Y-110240000D01*
X130173000Y-110200000D02*
X132527000Y-110200000D01*
X130252000Y-110160000D02*
X132448000Y-110160000D01*
X130339000Y-110120000D02*
X132361000Y-110120000D01*
X130436000Y-110080000D02*
X132264000Y-110080000D01*
X130545000Y-110040000D02*
X132155000Y-110040000D01*
X130673000Y-110000000D02*
X132027000Y-110000000D01*
X130833000Y-109960000D02*
X131867000Y-109960000D01*
X131067000Y-109920000D02*
X131633000Y-109920000D01*
X132390000Y-110240000D02*
X132601000Y-110240000D01*
X132390000Y-110280000D02*
X132669000Y-110280000D01*
X132390000Y-110320000D02*
X132733000Y-110320000D01*
X132390000Y-110360000D02*
X132793000Y-110360000D01*
X132390000Y-110400000D02*
X132849000Y-110400000D01*
X132390000Y-110440000D02*
X132903000Y-110440000D01*
X132390000Y-110480000D02*
X132954000Y-110480000D01*
X132390000Y-110520000D02*
X133002000Y-110520000D01*
X132390000Y-110560000D02*
X133049000Y-110560000D01*
X132390000Y-110600000D02*
X133093000Y-110600000D01*
X132390000Y-110640000D02*
X133135000Y-110640000D01*
X132390000Y-110680000D02*
X133175000Y-110680000D01*
X132390000Y-110720000D02*
X133214000Y-110720000D01*
X132390000Y-110760000D02*
X133251000Y-110760000D01*
X132390000Y-110800000D02*
X133286000Y-110800000D01*
X132390000Y-110840000D02*
X133320000Y-110840000D01*
X132390000Y-110880000D02*
X133353000Y-110880000D01*
X132390000Y-110920000D02*
X133385000Y-110920000D01*
X132390000Y-110960000D02*
X133415000Y-110960000D01*
X132390000Y-111000000D02*
X133444000Y-111000000D01*
X132390000Y-111040000D02*
X133472000Y-111040000D01*
X132390000Y-111080000D02*
X133499000Y-111080000D01*
X132390000Y-111120000D02*
X133525000Y-111120000D01*
X132390000Y-111160000D02*
X133549000Y-111160000D01*
X132390000Y-111200000D02*
X133573000Y-111200000D01*
X132390000Y-111240000D02*
X133596000Y-111240000D01*
X132390000Y-111280000D02*
X133618000Y-111280000D01*
X132390000Y-111320000D02*
X133639000Y-111320000D01*
X132390000Y-111360000D02*
X133659000Y-111360000D01*
X132390000Y-111400000D02*
X133679000Y-111400000D01*
X132390000Y-111440000D02*
X133697000Y-111440000D01*
X132390000Y-111480000D02*
X133715000Y-111480000D01*
X132390000Y-111520000D02*
X133732000Y-111520000D01*
X132390000Y-111560000D02*
X133748000Y-111560000D01*
X132390000Y-111600000D02*
X133763000Y-111600000D01*
X132390000Y-111640000D02*
X133778000Y-111640000D01*
X132390000Y-111680000D02*
X133792000Y-111680000D01*
X132390000Y-111720000D02*
X133805000Y-111720000D01*
X132390000Y-111760000D02*
X133817000Y-111760000D01*
X132390000Y-111800000D02*
X133829000Y-111800000D01*
X132390000Y-111840000D02*
X133840000Y-111840000D01*
X132390000Y-111880000D02*
X133851000Y-111880000D01*
X132390000Y-111920000D02*
X133860000Y-111920000D01*
X132390000Y-111960000D02*
X133869000Y-111960000D01*
X132390000Y-112000000D02*
X133878000Y-112000000D01*
X132390000Y-112040000D02*
X133886000Y-112040000D01*
X132390000Y-112080000D02*
X133893000Y-112080000D01*
X132390000Y-112120000D02*
X133899000Y-112120000D01*
X132390000Y-112160000D02*
X133905000Y-112160000D01*
X132390000Y-112200000D02*
X133910000Y-112200000D01*
X132390000Y-112240000D02*
X133915000Y-112240000D01*
X132390000Y-112280000D02*
X133919000Y-112280000D01*
X133970000Y-112520000D02*
G75*
G02*
X128730000Y-112520000I-2620000J0D01*
G01*
X128730000Y-112520000D02*
G75*
G02*
X133970000Y-112520000I2620000J0D01*
G01*
%TO.C,R2*%
X119000000Y-56040000D02*
X119000000Y-56810000D01*
X119000000Y-64120000D02*
X119000000Y-63350000D01*
X117630000Y-63350000D02*
X120370000Y-63350000D01*
X120370000Y-56810000D01*
X117630000Y-56810000D01*
X117630000Y-63350000D01*
%TO.C,R3*%
X123350000Y-90730000D02*
X123350000Y-91500000D01*
X123350000Y-98810000D02*
X123350000Y-98040000D01*
X121980000Y-98040000D02*
X124720000Y-98040000D01*
X124720000Y-91500000D01*
X121980000Y-91500000D01*
X121980000Y-98040000D01*
%TO.C,D1*%
X90060000Y-74534000D02*
X90060000Y-74690000D01*
X90060000Y-76850000D02*
X90060000Y-77006000D01*
X90060000Y-74534484D02*
G75*
G02*
X93291437Y-74690000I1560000J-1235516D01*
G01*
X90579039Y-74690000D02*
G75*
G02*
X92660961Y-74690000I1040961J-1080000D01*
G01*
X92660961Y-76850000D02*
G75*
G02*
X90579039Y-76850000I-1040961J1080000D01*
G01*
X93291437Y-76850000D02*
G75*
G02*
X90060000Y-77005516I-1671437J1080000D01*
G01*
%TO.C,D3*%
X106630000Y-103300000D02*
X112070000Y-103300000D01*
X106630000Y-103630000D02*
X106630000Y-103300000D01*
X106630000Y-105910000D02*
X106630000Y-106240000D01*
X106630000Y-106240000D02*
X112070000Y-106240000D01*
X107410000Y-103300000D02*
X107410000Y-106240000D01*
X107530000Y-103300000D02*
X107530000Y-106240000D01*
X107650000Y-103300000D02*
X107650000Y-106240000D01*
X112070000Y-103300000D02*
X112070000Y-103630000D01*
X112070000Y-106240000D02*
X112070000Y-105910000D01*
%TO.C,C6*%
X116180000Y-103050000D02*
X121520000Y-103050000D01*
X116180000Y-103744000D02*
X116180000Y-103050000D01*
X116180000Y-106490000D02*
X116180000Y-105796000D01*
X121520000Y-103050000D02*
X121520000Y-103744000D01*
X121520000Y-105796000D02*
X121520000Y-106490000D01*
X121520000Y-106490000D02*
X116180000Y-106490000D01*
%TO.C,RV2*%
X126345000Y-117660000D02*
X127459000Y-117660000D01*
X126345000Y-127880000D02*
X126345000Y-117660000D01*
X129959000Y-127880000D02*
X126345000Y-127880000D01*
X130251000Y-117660000D02*
X132459000Y-117660000D01*
X135251000Y-117660000D02*
X136365000Y-117660000D01*
X136365000Y-117660000D02*
X136365000Y-127880000D01*
X136365000Y-127880000D02*
X132751000Y-127880000D01*
%TO.C,C4*%
X98500000Y-111053000D02*
X98500000Y-110487000D01*
X98540000Y-111287000D02*
X98540000Y-110253000D01*
X98580000Y-111447000D02*
X98580000Y-110093000D01*
X98620000Y-111575000D02*
X98620000Y-109965000D01*
X98660000Y-111684000D02*
X98660000Y-109856000D01*
X98700000Y-111781000D02*
X98700000Y-109759000D01*
X98740000Y-111868000D02*
X98740000Y-109672000D01*
X98780000Y-111947000D02*
X98780000Y-109593000D01*
X98820000Y-109730000D02*
X98820000Y-109519000D01*
X98820000Y-112021000D02*
X98820000Y-111810000D01*
X98860000Y-109730000D02*
X98860000Y-109451000D01*
X98860000Y-112089000D02*
X98860000Y-111810000D01*
X98900000Y-109730000D02*
X98900000Y-109387000D01*
X98900000Y-112153000D02*
X98900000Y-111810000D01*
X98940000Y-109730000D02*
X98940000Y-109327000D01*
X98940000Y-112213000D02*
X98940000Y-111810000D01*
X98980000Y-109730000D02*
X98980000Y-109271000D01*
X98980000Y-112269000D02*
X98980000Y-111810000D01*
X99020000Y-109730000D02*
X99020000Y-109217000D01*
X99020000Y-112323000D02*
X99020000Y-111810000D01*
X99060000Y-109730000D02*
X99060000Y-109166000D01*
X99060000Y-112374000D02*
X99060000Y-111810000D01*
X99100000Y-109730000D02*
X99100000Y-109118000D01*
X99100000Y-112422000D02*
X99100000Y-111810000D01*
X99140000Y-109730000D02*
X99140000Y-109071000D01*
X99140000Y-112469000D02*
X99140000Y-111810000D01*
X99180000Y-109730000D02*
X99180000Y-109027000D01*
X99180000Y-112513000D02*
X99180000Y-111810000D01*
X99220000Y-109730000D02*
X99220000Y-108985000D01*
X99220000Y-112555000D02*
X99220000Y-111810000D01*
X99260000Y-109730000D02*
X99260000Y-108945000D01*
X99260000Y-112595000D02*
X99260000Y-111810000D01*
X99300000Y-109730000D02*
X99300000Y-108906000D01*
X99300000Y-112634000D02*
X99300000Y-111810000D01*
X99340000Y-109730000D02*
X99340000Y-108869000D01*
X99340000Y-112671000D02*
X99340000Y-111810000D01*
X99380000Y-109730000D02*
X99380000Y-108834000D01*
X99380000Y-112706000D02*
X99380000Y-111810000D01*
X99420000Y-109730000D02*
X99420000Y-108800000D01*
X99420000Y-112740000D02*
X99420000Y-111810000D01*
X99460000Y-109730000D02*
X99460000Y-108767000D01*
X99460000Y-112773000D02*
X99460000Y-111810000D01*
X99500000Y-109730000D02*
X99500000Y-108735000D01*
X99500000Y-112805000D02*
X99500000Y-111810000D01*
X99540000Y-109730000D02*
X99540000Y-108705000D01*
X99540000Y-112835000D02*
X99540000Y-111810000D01*
X99580000Y-109730000D02*
X99580000Y-108676000D01*
X99580000Y-112864000D02*
X99580000Y-111810000D01*
X99620000Y-109730000D02*
X99620000Y-108648000D01*
X99620000Y-112892000D02*
X99620000Y-111810000D01*
X99660000Y-109730000D02*
X99660000Y-108621000D01*
X99660000Y-112919000D02*
X99660000Y-111810000D01*
X99700000Y-109730000D02*
X99700000Y-108595000D01*
X99700000Y-112945000D02*
X99700000Y-111810000D01*
X99740000Y-109730000D02*
X99740000Y-108571000D01*
X99740000Y-112969000D02*
X99740000Y-111810000D01*
X99780000Y-109730000D02*
X99780000Y-108547000D01*
X99780000Y-112993000D02*
X99780000Y-111810000D01*
X99820000Y-109730000D02*
X99820000Y-108524000D01*
X99820000Y-113016000D02*
X99820000Y-111810000D01*
X99860000Y-109730000D02*
X99860000Y-108502000D01*
X99860000Y-113038000D02*
X99860000Y-111810000D01*
X99900000Y-109730000D02*
X99900000Y-108481000D01*
X99900000Y-113059000D02*
X99900000Y-111810000D01*
X99940000Y-109730000D02*
X99940000Y-108461000D01*
X99940000Y-113079000D02*
X99940000Y-111810000D01*
X99980000Y-109730000D02*
X99980000Y-108441000D01*
X99980000Y-113099000D02*
X99980000Y-111810000D01*
X100020000Y-109730000D02*
X100020000Y-108423000D01*
X100020000Y-113117000D02*
X100020000Y-111810000D01*
X100060000Y-109730000D02*
X100060000Y-108405000D01*
X100060000Y-113135000D02*
X100060000Y-111810000D01*
X100100000Y-109730000D02*
X100100000Y-108388000D01*
X100100000Y-113152000D02*
X100100000Y-111810000D01*
X100140000Y-109730000D02*
X100140000Y-108372000D01*
X100140000Y-113168000D02*
X100140000Y-111810000D01*
X100180000Y-109730000D02*
X100180000Y-108357000D01*
X100180000Y-113183000D02*
X100180000Y-111810000D01*
X100220000Y-109730000D02*
X100220000Y-108342000D01*
X100220000Y-113198000D02*
X100220000Y-111810000D01*
X100260000Y-109730000D02*
X100260000Y-108328000D01*
X100260000Y-113212000D02*
X100260000Y-111810000D01*
X100300000Y-109730000D02*
X100300000Y-108315000D01*
X100300000Y-113225000D02*
X100300000Y-111810000D01*
X100340000Y-109730000D02*
X100340000Y-108303000D01*
X100340000Y-113237000D02*
X100340000Y-111810000D01*
X100380000Y-109730000D02*
X100380000Y-108291000D01*
X100380000Y-113249000D02*
X100380000Y-111810000D01*
X100420000Y-109730000D02*
X100420000Y-108280000D01*
X100420000Y-113260000D02*
X100420000Y-111810000D01*
X100460000Y-109730000D02*
X100460000Y-108269000D01*
X100460000Y-113271000D02*
X100460000Y-111810000D01*
X100500000Y-109730000D02*
X100500000Y-108260000D01*
X100500000Y-113280000D02*
X100500000Y-111810000D01*
X100540000Y-109730000D02*
X100540000Y-108251000D01*
X100540000Y-113289000D02*
X100540000Y-111810000D01*
X100580000Y-109730000D02*
X100580000Y-108242000D01*
X100580000Y-113298000D02*
X100580000Y-111810000D01*
X100620000Y-109730000D02*
X100620000Y-108234000D01*
X100620000Y-113306000D02*
X100620000Y-111810000D01*
X100660000Y-109730000D02*
X100660000Y-108227000D01*
X100660000Y-113313000D02*
X100660000Y-111810000D01*
X100700000Y-109730000D02*
X100700000Y-108221000D01*
X100700000Y-113319000D02*
X100700000Y-111810000D01*
X100740000Y-109730000D02*
X100740000Y-108215000D01*
X100740000Y-113325000D02*
X100740000Y-111810000D01*
X100780000Y-109730000D02*
X100780000Y-108210000D01*
X100780000Y-113330000D02*
X100780000Y-111810000D01*
X100820000Y-109730000D02*
X100820000Y-108205000D01*
X100820000Y-113335000D02*
X100820000Y-111810000D01*
X100860000Y-109730000D02*
X100860000Y-108201000D01*
X100860000Y-113339000D02*
X100860000Y-111810000D01*
X100900000Y-113342000D02*
X100900000Y-108198000D01*
X100940000Y-113345000D02*
X100940000Y-108195000D01*
X100980000Y-113347000D02*
X100980000Y-108193000D01*
X101020000Y-113349000D02*
X101020000Y-108191000D01*
X101060000Y-113350000D02*
X101060000Y-108190000D01*
X101100000Y-113350000D02*
X101100000Y-108190000D01*
X103654775Y-112495000D02*
X103654775Y-111995000D01*
X103904775Y-112245000D02*
X103404775Y-112245000D01*
X103720000Y-110770000D02*
G75*
G02*
X98480000Y-110770000I-2620000J0D01*
G01*
X98480000Y-110770000D02*
G75*
G02*
X103720000Y-110770000I2620000J0D01*
G01*
%TO.C,C3*%
X97180000Y-100050000D02*
X102520000Y-100050000D01*
X97180000Y-100744000D02*
X97180000Y-100050000D01*
X97180000Y-103490000D02*
X97180000Y-102796000D01*
X102520000Y-100050000D02*
X102520000Y-100744000D01*
X102520000Y-102796000D02*
X102520000Y-103490000D01*
X102520000Y-103490000D02*
X97180000Y-103490000D01*
D14*
%TO.C,U2*%
X104085600Y-52880000D02*
X104085600Y-53195551D01*
X104085600Y-55104449D02*
X104085600Y-55735551D01*
X104085600Y-57644449D02*
X104085600Y-58275551D01*
X104085600Y-60184449D02*
X104085600Y-60815551D01*
X104085600Y-62724449D02*
X104085600Y-63040000D01*
X104085600Y-63040000D02*
X110994400Y-63040000D01*
X110994400Y-52880000D02*
X104085600Y-52880000D01*
X110994400Y-53195551D02*
X110994400Y-52880000D01*
X110994400Y-55735551D02*
X110994400Y-55104449D01*
X110994400Y-58275551D02*
X110994400Y-57644449D01*
X110994400Y-60751460D02*
X110994400Y-60184449D01*
D13*
%TO.C,J2*%
X81340000Y-87560000D02*
X86760000Y-87560000D01*
X81340000Y-96280000D02*
X81340000Y-87560000D01*
X82640000Y-97980000D02*
X81340000Y-96280000D01*
X82640000Y-97980000D02*
X85460000Y-97980000D01*
X85460000Y-97980000D02*
X86760000Y-96280000D01*
X86760000Y-96280000D02*
X86760000Y-87560000D01*
%TO.C,J4*%
X142540000Y-118620000D02*
X142540000Y-121380000D01*
X147730000Y-118620000D02*
X142540000Y-118620000D01*
X147730000Y-118620000D02*
X147730000Y-121380000D01*
X147730000Y-121380000D02*
X142540000Y-121380000D01*
X149000000Y-118620000D02*
X150380000Y-118620000D01*
X150380000Y-118620000D02*
X150380000Y-120000000D01*
%TO.C,D4*%
X121880000Y-110860000D02*
X121880000Y-116300000D01*
X121880000Y-116300000D02*
X122210000Y-116300000D01*
X122210000Y-110860000D02*
X121880000Y-110860000D01*
X124490000Y-110860000D02*
X124820000Y-110860000D01*
X124820000Y-110860000D02*
X124820000Y-116300000D01*
X124820000Y-111640000D02*
X121880000Y-111640000D01*
X124820000Y-111760000D02*
X121880000Y-111760000D01*
X124820000Y-111880000D02*
X121880000Y-111880000D01*
X124820000Y-116300000D02*
X124490000Y-116300000D01*
%TO.C,D2*%
X117790000Y-48920000D02*
X117790000Y-48764000D01*
X117790000Y-51236000D02*
X117790000Y-51080000D01*
X114558563Y-48920000D02*
G75*
G02*
X117790000Y-48764484I1671437J-1080000D01*
G01*
X115189039Y-48920000D02*
G75*
G02*
X117270961Y-48920000I1040961J-1080000D01*
G01*
X117270961Y-51080000D02*
G75*
G02*
X115189039Y-51080000I-1040961J1080000D01*
G01*
X117790000Y-51235516D02*
G75*
G02*
X114558563Y-51080000I-1560000J1235516D01*
G01*
%TO.C,R4*%
X96310000Y-75770000D02*
X97080000Y-75770000D01*
X104390000Y-75770000D02*
X103620000Y-75770000D01*
X103620000Y-77140000D02*
X97080000Y-77140000D01*
X97080000Y-74400000D01*
X103620000Y-74400000D01*
X103620000Y-77140000D01*
%TO.C,C1*%
X97680000Y-70050000D02*
X103020000Y-70050000D01*
X97680000Y-70744000D02*
X97680000Y-70050000D01*
X97680000Y-73490000D02*
X97680000Y-72796000D01*
X103020000Y-70050000D02*
X103020000Y-70744000D01*
X103020000Y-72796000D02*
X103020000Y-73490000D01*
X103020000Y-73490000D02*
X97680000Y-73490000D01*
D15*
%TO.C,VR1*%
X101080000Y-132420000D02*
X111620000Y-132420000D01*
X101080000Y-137120000D02*
X101080000Y-132420000D01*
X111620000Y-132420000D02*
X111620000Y-137120000D01*
X111620000Y-137120000D02*
X101080000Y-137120000D01*
D16*
X109450000Y-131970000D02*
G75*
G02*
X109250000Y-131970000I-100000J0D01*
G01*
X109250000Y-131970000D02*
G75*
G02*
X109450000Y-131970000I100000J0D01*
G01*
D10*
%TO.C,HS1*%
X94650000Y-131600000D02*
X94650000Y-138600000D01*
X94650000Y-131600000D02*
X94650000Y-148600000D01*
X94650000Y-131600000D02*
X97500000Y-131600000D01*
X94650000Y-138600000D02*
X97500000Y-138600000D01*
X94650000Y-148600000D02*
X118150000Y-148600000D01*
X97500000Y-131600000D02*
X94650000Y-131600000D01*
X97500000Y-137100000D02*
X97500000Y-131600000D01*
X97500000Y-138600000D02*
X94650000Y-138600000D01*
X106400000Y-140100000D02*
X106400000Y-137100000D01*
X115300000Y-131600000D02*
X115300000Y-137100000D01*
X115300000Y-137100000D02*
X97500000Y-137100000D01*
X115300000Y-137100000D02*
X115300000Y-131600000D01*
X115300000Y-138600000D02*
X97500000Y-138600000D01*
X115300000Y-138600000D02*
X118150000Y-138600000D01*
X118150000Y-131600000D02*
X115300000Y-131600000D01*
X118150000Y-131600000D02*
X118150000Y-148600000D01*
X118150000Y-138600000D02*
X118150000Y-131600000D01*
X118150000Y-148600000D02*
X118150000Y-131600000D01*
X115300000Y-140100000D02*
X97500000Y-140100000D01*
X97500000Y-137100000D01*
X115300000Y-137100000D01*
X115300000Y-140100000D01*
D13*
%TO.C,J5*%
X142540000Y-123210000D02*
X142540000Y-125970000D01*
X147730000Y-123210000D02*
X142540000Y-123210000D01*
X147730000Y-123210000D02*
X147730000Y-125970000D01*
X147730000Y-125970000D02*
X142540000Y-125970000D01*
X149000000Y-123210000D02*
X150380000Y-123210000D01*
X150380000Y-123210000D02*
X150380000Y-124590000D01*
D14*
%TO.C,U3*%
X130545600Y-83920000D02*
X130545600Y-84235551D01*
X130545600Y-86144449D02*
X130545600Y-86775551D01*
X130545600Y-88684449D02*
X130545600Y-89315551D01*
X130545600Y-91224449D02*
X130545600Y-91855551D01*
X130545600Y-93764449D02*
X130545600Y-94080000D01*
X130545600Y-94080000D02*
X137454400Y-94080000D01*
X137454400Y-83920000D02*
X130545600Y-83920000D01*
X137454400Y-84235551D02*
X137454400Y-83920000D01*
X137454400Y-86775551D02*
X137454400Y-86144449D01*
X137454400Y-89315551D02*
X137454400Y-88684449D01*
X137454400Y-91791460D02*
X137454400Y-91224449D01*
D16*
%TO.C,IC1*%
X137325000Y-96855000D02*
X130675000Y-96855000D01*
X138410000Y-106765000D02*
X130675000Y-106765000D01*
D13*
%TO.C,C7*%
X104500000Y-111053000D02*
X104500000Y-110487000D01*
X104540000Y-111287000D02*
X104540000Y-110253000D01*
X104580000Y-111447000D02*
X104580000Y-110093000D01*
X104620000Y-111575000D02*
X104620000Y-109965000D01*
X104660000Y-111684000D02*
X104660000Y-109856000D01*
X104700000Y-111781000D02*
X104700000Y-109759000D01*
X104740000Y-111868000D02*
X104740000Y-109672000D01*
X104780000Y-111947000D02*
X104780000Y-109593000D01*
X104820000Y-109730000D02*
X104820000Y-109519000D01*
X104820000Y-112021000D02*
X104820000Y-111810000D01*
X104860000Y-109730000D02*
X104860000Y-109451000D01*
X104860000Y-112089000D02*
X104860000Y-111810000D01*
X104900000Y-109730000D02*
X104900000Y-109387000D01*
X104900000Y-112153000D02*
X104900000Y-111810000D01*
X104940000Y-109730000D02*
X104940000Y-109327000D01*
X104940000Y-112213000D02*
X104940000Y-111810000D01*
X104980000Y-109730000D02*
X104980000Y-109271000D01*
X104980000Y-112269000D02*
X104980000Y-111810000D01*
X105020000Y-109730000D02*
X105020000Y-109217000D01*
X105020000Y-112323000D02*
X105020000Y-111810000D01*
X105060000Y-109730000D02*
X105060000Y-109166000D01*
X105060000Y-112374000D02*
X105060000Y-111810000D01*
X105100000Y-109730000D02*
X105100000Y-109118000D01*
X105100000Y-112422000D02*
X105100000Y-111810000D01*
X105140000Y-109730000D02*
X105140000Y-109071000D01*
X105140000Y-112469000D02*
X105140000Y-111810000D01*
X105180000Y-109730000D02*
X105180000Y-109027000D01*
X105180000Y-112513000D02*
X105180000Y-111810000D01*
X105220000Y-109730000D02*
X105220000Y-108985000D01*
X105220000Y-112555000D02*
X105220000Y-111810000D01*
X105260000Y-109730000D02*
X105260000Y-108945000D01*
X105260000Y-112595000D02*
X105260000Y-111810000D01*
X105300000Y-109730000D02*
X105300000Y-108906000D01*
X105300000Y-112634000D02*
X105300000Y-111810000D01*
X105340000Y-109730000D02*
X105340000Y-108869000D01*
X105340000Y-112671000D02*
X105340000Y-111810000D01*
X105380000Y-109730000D02*
X105380000Y-108834000D01*
X105380000Y-112706000D02*
X105380000Y-111810000D01*
X105420000Y-109730000D02*
X105420000Y-108800000D01*
X105420000Y-112740000D02*
X105420000Y-111810000D01*
X105460000Y-109730000D02*
X105460000Y-108767000D01*
X105460000Y-112773000D02*
X105460000Y-111810000D01*
X105500000Y-109730000D02*
X105500000Y-108735000D01*
X105500000Y-112805000D02*
X105500000Y-111810000D01*
X105540000Y-109730000D02*
X105540000Y-108705000D01*
X105540000Y-112835000D02*
X105540000Y-111810000D01*
X105580000Y-109730000D02*
X105580000Y-108676000D01*
X105580000Y-112864000D02*
X105580000Y-111810000D01*
X105620000Y-109730000D02*
X105620000Y-108648000D01*
X105620000Y-112892000D02*
X105620000Y-111810000D01*
X105660000Y-109730000D02*
X105660000Y-108621000D01*
X105660000Y-112919000D02*
X105660000Y-111810000D01*
X105700000Y-109730000D02*
X105700000Y-108595000D01*
X105700000Y-112945000D02*
X105700000Y-111810000D01*
X105740000Y-109730000D02*
X105740000Y-108571000D01*
X105740000Y-112969000D02*
X105740000Y-111810000D01*
X105780000Y-109730000D02*
X105780000Y-108547000D01*
X105780000Y-112993000D02*
X105780000Y-111810000D01*
X105820000Y-109730000D02*
X105820000Y-108524000D01*
X105820000Y-113016000D02*
X105820000Y-111810000D01*
X105860000Y-109730000D02*
X105860000Y-108502000D01*
X105860000Y-113038000D02*
X105860000Y-111810000D01*
X105900000Y-109730000D02*
X105900000Y-108481000D01*
X105900000Y-113059000D02*
X105900000Y-111810000D01*
X105940000Y-109730000D02*
X105940000Y-108461000D01*
X105940000Y-113079000D02*
X105940000Y-111810000D01*
X105980000Y-109730000D02*
X105980000Y-108441000D01*
X105980000Y-113099000D02*
X105980000Y-111810000D01*
X106020000Y-109730000D02*
X106020000Y-108423000D01*
X106020000Y-113117000D02*
X106020000Y-111810000D01*
X106060000Y-109730000D02*
X106060000Y-108405000D01*
X106060000Y-113135000D02*
X106060000Y-111810000D01*
X106100000Y-109730000D02*
X106100000Y-108388000D01*
X106100000Y-113152000D02*
X106100000Y-111810000D01*
X106140000Y-109730000D02*
X106140000Y-108372000D01*
X106140000Y-113168000D02*
X106140000Y-111810000D01*
X106180000Y-109730000D02*
X106180000Y-108357000D01*
X106180000Y-113183000D02*
X106180000Y-111810000D01*
X106220000Y-109730000D02*
X106220000Y-108342000D01*
X106220000Y-113198000D02*
X106220000Y-111810000D01*
X106260000Y-109730000D02*
X106260000Y-108328000D01*
X106260000Y-113212000D02*
X106260000Y-111810000D01*
X106300000Y-109730000D02*
X106300000Y-108315000D01*
X106300000Y-113225000D02*
X106300000Y-111810000D01*
X106340000Y-109730000D02*
X106340000Y-108303000D01*
X106340000Y-113237000D02*
X106340000Y-111810000D01*
X106380000Y-109730000D02*
X106380000Y-108291000D01*
X106380000Y-113249000D02*
X106380000Y-111810000D01*
X106420000Y-109730000D02*
X106420000Y-108280000D01*
X106420000Y-113260000D02*
X106420000Y-111810000D01*
X106460000Y-109730000D02*
X106460000Y-108269000D01*
X106460000Y-113271000D02*
X106460000Y-111810000D01*
X106500000Y-109730000D02*
X106500000Y-108260000D01*
X106500000Y-113280000D02*
X106500000Y-111810000D01*
X106540000Y-109730000D02*
X106540000Y-108251000D01*
X106540000Y-113289000D02*
X106540000Y-111810000D01*
X106580000Y-109730000D02*
X106580000Y-108242000D01*
X106580000Y-113298000D02*
X106580000Y-111810000D01*
X106620000Y-109730000D02*
X106620000Y-108234000D01*
X106620000Y-113306000D02*
X106620000Y-111810000D01*
X106660000Y-109730000D02*
X106660000Y-108227000D01*
X106660000Y-113313000D02*
X106660000Y-111810000D01*
X106700000Y-109730000D02*
X106700000Y-108221000D01*
X106700000Y-113319000D02*
X106700000Y-111810000D01*
X106740000Y-109730000D02*
X106740000Y-108215000D01*
X106740000Y-113325000D02*
X106740000Y-111810000D01*
X106780000Y-109730000D02*
X106780000Y-108210000D01*
X106780000Y-113330000D02*
X106780000Y-111810000D01*
X106820000Y-109730000D02*
X106820000Y-108205000D01*
X106820000Y-113335000D02*
X106820000Y-111810000D01*
X106860000Y-109730000D02*
X106860000Y-108201000D01*
X106860000Y-113339000D02*
X106860000Y-111810000D01*
X106900000Y-113342000D02*
X106900000Y-108198000D01*
X106940000Y-113345000D02*
X106940000Y-108195000D01*
X106980000Y-113347000D02*
X106980000Y-108193000D01*
X107020000Y-113349000D02*
X107020000Y-108191000D01*
X107060000Y-113350000D02*
X107060000Y-108190000D01*
X107100000Y-113350000D02*
X107100000Y-108190000D01*
X109654775Y-112495000D02*
X109654775Y-111995000D01*
X109904775Y-112245000D02*
X109404775Y-112245000D01*
X109720000Y-110770000D02*
G75*
G02*
X104480000Y-110770000I-2620000J0D01*
G01*
X104480000Y-110770000D02*
G75*
G02*
X109720000Y-110770000I2620000J0D01*
G01*
%TO.C,R1*%
X96390000Y-80770000D02*
X97160000Y-80770000D01*
X104470000Y-80770000D02*
X103700000Y-80770000D01*
X103700000Y-82140000D02*
X97160000Y-82140000D01*
X97160000Y-79400000D01*
X103700000Y-79400000D01*
X103700000Y-82140000D01*
%TO.C,J1*%
X88075000Y-63870000D02*
X88075000Y-65120000D01*
X88075000Y-65120000D02*
X89325000Y-65120000D01*
X88365000Y-54710000D02*
X88365000Y-64830000D01*
X88365000Y-64830000D02*
X94335000Y-64830000D01*
X88375000Y-54720000D02*
X88375000Y-56520000D01*
X88375000Y-56520000D02*
X89125000Y-56520000D01*
X88375000Y-58020000D02*
X88375000Y-61520000D01*
X88375000Y-61520000D02*
X89125000Y-61520000D01*
X88375000Y-63020000D02*
X88375000Y-64820000D01*
X88375000Y-64820000D02*
X89125000Y-64820000D01*
X89125000Y-54720000D02*
X88375000Y-54720000D01*
X89125000Y-56520000D02*
X89125000Y-54720000D01*
X89125000Y-58020000D02*
X88375000Y-58020000D01*
X89125000Y-61520000D02*
X89125000Y-58020000D01*
X89125000Y-63020000D02*
X88375000Y-63020000D01*
X89125000Y-64820000D02*
X89125000Y-63020000D01*
X90625000Y-54720000D02*
X90625000Y-55470000D01*
X90625000Y-55470000D02*
X93575000Y-55470000D01*
X90625000Y-64070000D02*
X93575000Y-64070000D01*
X90625000Y-64820000D02*
X90625000Y-64070000D01*
X93575000Y-55470000D02*
X93575000Y-59770000D01*
X93575000Y-64070000D02*
X93575000Y-59770000D01*
X94335000Y-54710000D02*
X88365000Y-54710000D01*
X94335000Y-64830000D02*
X94335000Y-54710000D01*
%TO.C,R6*%
X116350000Y-109810000D02*
X116350000Y-110580000D01*
X116350000Y-117890000D02*
X116350000Y-117120000D01*
X114980000Y-117120000D02*
X117720000Y-117120000D01*
X117720000Y-110580000D01*
X114980000Y-110580000D01*
X114980000Y-117120000D01*
%TO.C,SB1*%
D10*
X106900000Y-71170000D02*
X109800000Y-71170000D01*
X109800000Y-68370000D01*
X106900000Y-68370000D01*
X106900000Y-71170000D01*
X107491421Y-70670000D02*
G75*
G02*
X107208579Y-70670000I-141421J0D01*
G01*
X107208579Y-70670000D02*
G75*
G02*
X107491421Y-70670000I141421J0D01*
G01*
%TO.C,SW2*%
X103950000Y-94170000D02*
X91450000Y-94170000D01*
X91450000Y-87370000D01*
X103950000Y-87370000D01*
X103950000Y-94170000D01*
D11*
%TO.C,MD1*%
X111000000Y-73420000D02*
X111000000Y-86120000D01*
X123700000Y-73420000D02*
X111000000Y-73420000D01*
X123700000Y-73420000D02*
X123700000Y-86120000D01*
X123700000Y-86120000D02*
X111000000Y-86120000D01*
D17*
X124720000Y-79770000D02*
G75*
G02*
X124470000Y-79770000I-125000J0D01*
G01*
X124470000Y-79770000D02*
G75*
G02*
X124720000Y-79770000I125000J0D01*
G01*
%TD*%
M02*
