M48
; DRILL file {KiCad 9.0.4} date 2025-09-08T14:57:05+0900
; FORMAT={-:-/ absolute / metric / decimal}
; #@! TF.CreationDate,2025-09-08T14:57:05+09:00
; #@! TF.GenerationSoftware,Kicad,Pcbnew,9.0.4
; #@! TF.FileFunction,Plated,1,2,PTH
FMAT,2
METRIC
; #@! TA.AperFunction,Plated,PTH,ViaDrill
T1C0.300
; #@! TA.AperFunction,Plated,PTH,ComponentDrill
T2C0.800
; #@! TA.AperFunction,Plated,PTH,ComponentDrill
T3C0.864
; #@! TA.AperFunction,Plated,PTH,ComponentDrill
T4C0.900
; #@! TA.AperFunction,Plated,PTH,ComponentDrill
T5C0.950
; #@! TA.AperFunction,Plated,PTH,ComponentDrill
T6C1.000
; #@! TA.AperFunction,Plated,PTH,ComponentDrill
T7C1.240
; #@! TA.AperFunction,Plated,PTH,ComponentDrill
T8C1.300
; #@! TA.AperFunction,Plated,PTH,ComponentDrill
T9C1.550
; #@! TA.AperFunction,Plated,PTH,ComponentDrill
T10C2.700
%
G90
G05
T1
X81.4Y-86.8
X82.8Y-77.6
X83.0Y-45.0
X83.0Y-50.0
X83.0Y-59.0
X83.0Y-69.0
X84.0Y-125.0
X84.0Y-137.0
X84.0Y-147.0
X85.0Y-55.0
X85.0Y-65.0
X85.0Y-82.5
X85.0Y-100.0
X85.0Y-110.0
X85.0Y-120.0
X85.1Y-73.5
X87.751Y-84.0
X90.0Y-105.0
X90.0Y-115.0
X90.0Y-125.0
X90.29Y-94.71
X91.0Y-50.0
X91.0Y-67.0
X91.6Y-78.4
X92.0Y-83.0
X93.0Y-143.0
X95.0Y-45.0
X95.0Y-54.15
X95.0Y-68.0
X95.0Y-71.77
X95.0Y-110.0
X95.0Y-120.0
X95.0Y-130.0
X95.29Y-99.71
X96.0Y-78.0
X97.0Y-83.0
X97.4Y-146.8
X98.0Y-57.0
X100.0Y-50.0
X100.0Y-78.0
X100.0Y-95.0
X100.0Y-125.0
X100.0Y-135.0
X101.0Y-54.15
X103.0Y-78.0
X103.0Y-83.0
X105.0Y-45.0
X105.0Y-95.0
X105.0Y-100.0
X105.51Y-84.77
X105.51Y-85.77
X107.0Y-50.0
X108.0Y-55.0
X109.0Y-79.0
X109.0Y-80.0
X109.0Y-121.0
X109.75Y-117.25
X110.0Y-51.0
X110.0Y-105.0
X110.6Y-71.6
X111.0Y-111.0
X112.0Y-45.0
X112.0Y-68.0
X113.0Y-51.0
X113.0Y-114.0
X113.3Y-95.0
X113.5Y-135.3
X114.0Y-60.0
X114.0Y-109.0
X115.0Y-45.0
X115.0Y-57.376
X115.0Y-67.0
X115.0Y-130.0
X115.4Y-142.9
X116.335Y-63.665
X117.0Y-68.0
X117.0Y-71.3
X118.75Y-126.25
X119.0Y-108.77
X120.0Y-50.0
X120.0Y-95.0
X120.0Y-135.0
X120.0Y-145.0
X120.3Y-70.0
X120.35Y-85.77
X121.0Y-60.0
X121.35Y-86.77
X122.0Y-65.0
X122.2Y-70.0
X125.0Y-45.0
X125.0Y-55.0
X125.0Y-74.0
X125.0Y-100.0
X125.0Y-105.0
X125.0Y-110.0
X125.0Y-115.0
X125.0Y-125.0
X125.0Y-130.0
X125.0Y-140.0
X125.7Y-79.77
X126.0Y-68.0
X126.6Y-79.7
X128.0Y-107.921
X128.671Y-98.671
X129.0Y-65.0
X129.0Y-74.0
X129.0Y-82.0
X129.0Y-101.0
X129.15Y-77.15
X130.0Y-50.0
X130.0Y-60.0
X130.0Y-120.0
X130.0Y-135.0
X130.0Y-145.0
X131.3Y-70.8
X132.0Y-104.0
X132.0Y-107.921
X134.0Y-68.0
X134.0Y-73.7
X134.0Y-78.0
X134.0Y-82.0
X134.05Y-59.45
X134.292Y-130.707
X135.0Y-45.0
X135.0Y-55.0
X135.0Y-140.0
X135.509Y-110.191
X136.0Y-65.0
X136.0Y-107.0
X136.4Y-70.8
X138.0Y-73.7
X139.0Y-111.0
X139.059Y-113.741
X140.0Y-50.0
X140.0Y-60.0
X140.0Y-68.0
X140.0Y-78.0
X140.0Y-99.685
X140.0Y-125.0
X140.0Y-134.451
X140.0Y-145.0
X140.5Y-90.5
X140.857Y-83.857
X141.3Y-109.1
X142.0Y-132.0
X142.255Y-70.8
X142.255Y-75.0
X142.259Y-116.941
X142.357Y-82.357
X142.467Y-64.467
X143.0Y-114.0
X144.0Y-132.0
X145.0Y-45.0
X145.0Y-140.0
X145.665Y-82.6
X145.7Y-67.4
X145.7Y-75.0
X145.7Y-80.1
X145.7Y-95.3
X145.7Y-97.8
X145.7Y-100.3
X145.7Y-105.4
X145.73Y-87.67
X145.74Y-92.74
X145.795Y-70.0
X145.795Y-90.2
X145.8Y-62.2
X145.8Y-64.9
X146.0Y-132.0
X146.6Y-122.3
X146.6Y-126.9
X146.9Y-117.449
X149.141Y-134.141
X150.0Y-50.0
X150.0Y-60.0
X150.0Y-70.0
X150.0Y-80.0
X150.0Y-90.0
X150.0Y-100.0
X150.0Y-110.0
X150.0Y-115.0
X150.0Y-145.0
X155.0Y-45.0
X155.0Y-55.0
X155.0Y-65.0
X155.0Y-75.0
X155.0Y-85.0
X155.0Y-95.0
X155.0Y-105.0
X155.0Y-120.0
X155.0Y-130.0
X155.0Y-140.0
X160.0Y-45.0
X160.0Y-55.0
X160.0Y-65.0
X160.0Y-75.0
X160.0Y-85.0
X160.0Y-95.0
X160.0Y-105.0
X160.0Y-115.0
X160.0Y-125.0
X160.0Y-135.0
X160.0Y-145.0
X165.0Y-50.0
X165.0Y-60.0
X165.0Y-70.0
X165.0Y-80.0
X165.0Y-90.0
X165.0Y-100.0
X165.0Y-110.0
X165.0Y-120.0
X165.0Y-130.0
X166.0Y-136.0
X167.0Y-145.0
X168.0Y-44.0
X170.0Y-65.0
X170.0Y-75.0
X170.0Y-85.0
X170.0Y-95.0
X170.0Y-105.0
X170.0Y-115.0
X170.0Y-125.0
X170.3Y-55.5
X173.0Y-130.0
X175.0Y-60.0
X175.0Y-70.0
X175.0Y-80.0
X175.0Y-90.0
X175.0Y-100.0
X175.0Y-110.0
X175.0Y-120.0
X176.0Y-44.0
X176.0Y-51.0
X176.0Y-125.0
X176.0Y-136.0
X176.0Y-147.0
T2
X95.27Y-75.77
X95.35Y-80.77
X97.35Y-101.77
X97.85Y-71.77
X99.85Y-110.77
X102.35Y-101.77
X102.35Y-110.77
X102.85Y-71.77
X105.43Y-75.77
X105.51Y-80.77
X105.85Y-110.77
X108.35Y-110.77
X115.0Y-55.0
X115.0Y-65.16
X116.35Y-104.77
X116.35Y-108.77
X116.35Y-118.93
X119.0Y-55.0
X119.0Y-65.16
X121.35Y-104.77
X123.35Y-89.69
X123.35Y-99.85
X124.0Y-57.58
X124.0Y-62.58
X130.19Y-98.0
X130.19Y-100.54
X130.19Y-103.08
X130.19Y-105.62
X131.35Y-111.27
X131.35Y-113.77
X137.81Y-98.0
X137.81Y-100.54
X137.81Y-103.08
X137.81Y-105.62
T3
X103.73Y-54.15
X103.73Y-56.69
X103.73Y-59.23
X103.73Y-61.77
X111.35Y-54.15
X111.35Y-56.69
X111.35Y-59.23
X111.35Y-61.77
X130.19Y-85.19
X130.19Y-87.73
X130.19Y-90.27
X130.19Y-92.81
X137.81Y-85.19
X137.81Y-87.73
X137.81Y-90.27
X137.81Y-92.81
T4
X90.35Y-75.77
X92.89Y-75.77
X105.54Y-104.77
X113.16Y-104.77
X114.96Y-50.0
X117.5Y-50.0
X123.35Y-109.77
X123.35Y-117.39
T5
X90.825Y-57.27
X90.825Y-59.77
X90.825Y-62.27
T6
X143.92Y-120.0
X143.92Y-124.59
X143.92Y-129.18
X144.46Y-58.46
X144.46Y-61.0
X144.46Y-63.54
X144.46Y-66.08
X144.46Y-68.62
X144.46Y-71.16
X144.46Y-73.7
X144.46Y-76.24
X144.46Y-78.78
X144.46Y-81.32
X144.46Y-83.86
X144.46Y-86.4
X144.46Y-88.94
X144.46Y-91.48
X144.46Y-94.02
X144.46Y-96.56
X144.46Y-99.1
X144.46Y-101.64
X144.46Y-104.18
X144.46Y-106.72
X146.46Y-120.0
X146.46Y-124.59
X146.46Y-129.18
X147.0Y-58.46
X147.0Y-61.0
X147.0Y-63.54
X147.0Y-66.08
X147.0Y-68.62
X147.0Y-71.16
X147.0Y-73.7
X147.0Y-76.24
X147.0Y-78.78
X147.0Y-81.32
X147.0Y-83.86
X147.0Y-86.4
X147.0Y-88.94
X147.0Y-91.48
X147.0Y-94.02
X147.0Y-96.56
X147.0Y-99.1
X147.0Y-101.64
X147.0Y-104.18
X147.0Y-106.72
X149.0Y-120.0
X149.0Y-124.59
X149.0Y-129.18
T7
X103.81Y-134.26
X106.35Y-134.26
X108.89Y-134.26
T8
X110.855Y-89.77
X113.355Y-99.77
X115.855Y-89.77
X128.855Y-117.77
X131.355Y-127.77
X133.855Y-117.77
T9
X97.6Y-138.6
X115.2Y-138.6
T10
X84.05Y-90.27
X84.05Y-95.27
T6
G00X92.95Y-91.32
M15
G01X92.95Y-90.22
M16
G05
G00X97.65Y-91.32
M15
G01X97.65Y-90.22
M16
G05
G00X102.35Y-91.32
M15
G01X102.35Y-90.22
M16
G05
M30
